<?xml version="1.0" standalone="no"?>
<!DOCTYPE svg PUBLIC "-//W3C//DTD SVG 20010904//EN"
 "http://www.w3.org/TR/2001/REC-SVG-20010904/DTD/svg10.dtd">
<svg version="1.0" xmlns="http://www.w3.org/2000/svg"
 width="6171.000000pt" height="6171.000000pt" viewBox="0 0 6171.000000 6171.000000"
 preserveAspectRatio="xMidYMid meet">
<metadata>
Created by potrace 1.14, written by Peter Selinger 2001-2017
</metadata>
<g transform="translate(0.000000,6171.000000) scale(0.100000,-0.100000)"
fill="#000000" stroke="none">
<path d="M30265 57694 c-960 -26 -1719 -76 -2565 -170 -3734 -413 -7319 -1558
-10575 -3377 -4378 -2445 -7994 -6018 -10440 -10317 -2002 -3516 -3159 -7425
-3390 -11450 -32 -560 -39 -838 -39 -1525 0 -689 7 -965 40 -1530 266 -4634
1756 -9094 4339 -12990 695 -1049 1435 -2013 2274 -2965 627 -711 1373 -1467
2091 -2121 2586 -2353 5605 -4198 8900 -5439 2558 -963 5293 -1554 8035 -1735
728 -48 1101 -59 1920 -59 1013 0 1656 28 2610 115 3998 362 7856 1570 11325
3547 1761 1003 3425 2211 4920 3571 655 596 1334 1279 1921 1931 2066 2297
3701 4889 4859 7700 1497 3635 2151 7544 1925 11500 -251 4382 -1599 8617
-3938 12370 -2425 3891 -5836 7132 -9892 9397 -730 408 -1520 803 -2275 1138
-2635 1169 -5420 1920 -8300 2239 -703 78 -1317 124 -2105 156 -239 10 -1412
20 -1640 14z m2148 -7972 c11 -9 66 -17 161 -23 80 -5 156 -13 169 -18 26 -10
217 -28 309 -29 31 0 80 -8 110 -17 29 -9 104 -18 166 -21 66 -3 128 -12 149
-21 20 -8 77 -17 127 -20 50 -2 117 -13 149 -24 31 -10 84 -19 117 -19 36 0
79 -8 110 -20 29 -11 74 -20 106 -20 34 0 72 -8 99 -20 25 -12 68 -21 97 -21
29 -1 73 -10 98 -20 24 -11 71 -22 105 -26 33 -3 67 -12 75 -19 9 -7 46 -16
83 -20 38 -4 85 -15 105 -25 20 -11 55 -19 77 -19 22 0 58 -9 80 -20 22 -11
54 -20 72 -20 18 0 50 -9 70 -20 21 -11 56 -20 78 -20 23 0 53 -9 70 -20 17
-11 46 -20 65 -20 19 0 48 -9 65 -20 16 -11 49 -22 73 -26 23 -3 59 -15 79
-25 21 -11 51 -19 67 -19 16 0 37 -7 47 -16 10 -9 37 -18 61 -21 24 -3 50 -11
58 -19 8 -7 38 -18 65 -25 28 -7 59 -18 70 -25 11 -6 36 -15 55 -19 19 -4 41
-12 48 -17 7 -6 33 -14 58 -19 25 -5 52 -15 60 -23 8 -9 31 -18 52 -22 20 -4
44 -12 52 -19 8 -7 32 -15 53 -18 20 -3 49 -15 64 -26 14 -12 35 -21 47 -21
11 0 35 -9 51 -20 17 -11 42 -20 56 -20 14 0 34 -9 44 -20 10 -11 25 -20 34
-20 9 0 39 -12 66 -25 28 -14 57 -25 66 -25 9 0 22 -7 29 -15 7 -8 22 -15 34
-15 12 0 37 -11 56 -25 19 -14 40 -25 46 -25 7 0 34 -11 60 -25 26 -14 53 -25
60 -25 8 0 14 -4 14 -10 0 -5 18 -14 40 -20 21 -6 42 -15 45 -20 3 -4 22 -14
42 -21 21 -7 44 -18 51 -25 7 -8 25 -17 40 -21 15 -3 38 -14 51 -25 13 -10 32
-18 42 -18 10 0 21 -5 25 -11 3 -6 25 -19 49 -29 24 -10 46 -23 49 -29 4 -6
16 -11 26 -11 10 0 25 -6 33 -14 8 -8 30 -21 51 -30 20 -8 36 -20 36 -25 0 -6
6 -11 13 -11 7 0 29 -9 50 -20 20 -11 43 -20 50 -20 8 0 22 -9 31 -19 10 -11
31 -23 47 -26 16 -4 29 -11 29 -16 0 -6 15 -17 33 -25 44 -21 87 -46 117 -67
13 -9 33 -17 43 -17 9 0 20 -7 24 -15 3 -9 20 -22 37 -31 17 -8 49 -26 71 -39
22 -13 55 -31 73 -39 17 -8 32 -19 32 -25 0 -5 12 -14 28 -20 15 -6 47 -26 72
-45 25 -19 50 -35 55 -35 6 -1 20 -8 30 -16 22 -17 136 -93 165 -110 10 -6 26
-17 35 -25 9 -8 25 -19 35 -25 34 -19 135 -90 145 -100 6 -6 44 -33 85 -60 41
-27 83 -56 92 -65 9 -8 42 -33 72 -55 57 -41 212 -160 254 -195 13 -11 28 -20
33 -20 5 0 26 -18 46 -40 21 -22 43 -40 50 -40 7 0 17 -9 23 -20 6 -11 16 -20
22 -20 6 0 21 -10 33 -22 12 -13 30 -30 41 -38 29 -23 146 -120 160 -133 7 -7
24 -21 39 -32 14 -11 41 -33 59 -50 17 -16 63 -59 102 -93 206 -189 296 -275
479 -459 184 -185 313 -321 426 -447 24 -27 51 -57 60 -66 9 -9 42 -48 74 -86
32 -38 61 -71 65 -74 3 -3 30 -34 60 -70 29 -36 61 -71 72 -78 10 -7 18 -17
18 -23 0 -5 65 -91 145 -192 79 -100 151 -191 159 -202 8 -11 27 -34 41 -51
14 -18 25 -36 25 -41 0 -5 8 -16 18 -25 9 -9 28 -33 42 -53 14 -20 44 -61 68
-91 23 -29 42 -56 42 -58 0 -2 24 -39 53 -81 28 -43 59 -87 67 -100 8 -12 56
-82 105 -155 95 -140 128 -191 144 -227 5 -11 15 -24 21 -28 5 -3 17 -21 25
-38 8 -18 20 -41 27 -52 25 -40 94 -151 106 -170 6 -11 19 -37 28 -57 9 -21
20 -38 24 -38 5 0 14 -16 20 -35 6 -19 15 -35 20 -35 5 0 14 -15 20 -34 6 -19
17 -37 25 -40 8 -3 15 -14 15 -25 0 -11 11 -33 25 -49 14 -17 25 -39 25 -50 0
-12 5 -24 10 -27 6 -4 17 -21 25 -38 8 -18 19 -39 24 -47 6 -8 17 -28 25 -45
25 -51 96 -189 105 -205 20 -34 61 -126 61 -136 0 -7 6 -17 14 -23 8 -7 18
-25 21 -41 3 -16 13 -34 20 -40 8 -7 17 -27 21 -45 3 -19 15 -41 25 -51 10 -9
19 -27 19 -39 0 -12 9 -34 20 -48 11 -14 20 -34 20 -45 0 -10 8 -30 19 -43 10
-13 21 -40 25 -60 4 -21 13 -42 20 -48 8 -6 16 -25 20 -42 3 -17 15 -42 26
-56 11 -14 20 -38 20 -53 0 -15 6 -33 14 -39 8 -7 17 -29 21 -51 4 -21 15 -46
26 -56 10 -9 19 -29 19 -43 0 -14 9 -39 20 -56 11 -16 20 -42 20 -56 0 -15 8
-37 18 -50 11 -13 22 -41 25 -62 3 -20 15 -49 26 -64 12 -14 21 -40 21 -58 0
-18 9 -44 20 -58 11 -14 20 -40 20 -59 0 -18 6 -42 14 -53 7 -11 17 -36 21
-55 4 -19 16 -54 26 -77 11 -23 19 -52 19 -65 0 -13 9 -36 20 -53 11 -16 20
-44 20 -60 0 -17 9 -47 20 -68 11 -20 20 -49 20 -65 0 -15 8 -44 19 -64 10
-20 21 -57 24 -82 4 -25 16 -62 27 -83 11 -21 20 -56 20 -78 0 -22 6 -49 14
-60 7 -11 17 -45 21 -75 3 -30 15 -72 26 -93 10 -21 19 -56 19 -79 0 -23 9
-60 19 -82 10 -23 21 -69 24 -104 3 -34 12 -73 20 -85 7 -12 17 -53 20 -90 4
-38 14 -83 23 -100 9 -18 18 -63 21 -101 2 -39 11 -86 20 -105 8 -20 19 -78
23 -129 4 -51 13 -99 20 -107 7 -8 16 -64 20 -124 5 -60 14 -120 21 -133 7
-13 16 -75 20 -139 3 -64 13 -138 22 -165 9 -28 18 -107 21 -184 3 -74 13
-160 21 -190 10 -37 17 -120 21 -250 2 -107 9 -222 15 -255 5 -33 14 -121 19
-195 5 -80 9 -3027 9 -7221 1 -7063 1 -7086 21 -7149 11 -34 20 -86 20 -114 0
-32 7 -65 20 -89 11 -20 20 -54 20 -76 0 -23 8 -48 20 -64 11 -14 20 -38 20
-54 0 -15 9 -41 20 -58 11 -16 20 -36 20 -43 0 -15 49 -118 85 -177 13 -22 30
-55 39 -72 8 -18 20 -33 26 -33 6 0 15 -11 20 -25 20 -53 136 -194 229 -279
25 -23 69 -65 100 -93 30 -29 61 -53 68 -53 8 0 16 -6 19 -14 3 -8 19 -19 35
-25 16 -5 29 -14 29 -20 0 -5 8 -12 19 -16 10 -3 29 -14 41 -25 13 -11 31 -20
40 -20 9 0 25 -9 35 -20 10 -11 26 -20 35 -20 10 0 28 -9 42 -19 13 -11 38
-23 54 -27 16 -4 40 -15 53 -26 13 -10 33 -18 45 -18 12 0 31 -7 43 -15 12 -8
44 -20 73 -26 28 -6 64 -17 78 -25 15 -8 50 -14 78 -14 30 0 71 -9 97 -20 43
-19 67 -21 346 -21 305 0 354 3 400 27 14 8 49 14 76 14 28 0 69 9 94 20 24
11 55 20 70 20 14 0 41 9 59 20 18 11 43 20 56 20 13 0 34 9 48 19 13 11 38
23 54 27 16 4 40 15 53 26 13 10 31 18 41 18 9 0 25 9 35 20 10 11 26 20 36
20 10 0 39 15 64 33 26 17 54 37 63 42 25 15 134 97 157 118 149 135 315 324
343 390 6 15 16 27 21 27 5 0 14 12 20 28 6 15 27 52 46 82 18 30 37 67 40 82
4 15 12 32 20 38 8 6 17 26 21 43 3 18 13 41 20 52 8 11 14 34 14 51 0 17 9
43 20 56 11 14 21 47 24 76 3 28 13 63 22 77 9 14 18 54 21 93 3 37 12 85 20
107 11 27 18 99 24 220 5 109 14 202 23 235 9 30 16 83 16 118 0 41 7 78 19
105 11 23 22 69 26 102 4 33 14 69 21 80 8 11 14 34 14 52 0 17 11 53 25 79
14 26 25 58 25 71 0 14 9 36 20 50 11 14 20 35 20 45 0 11 9 31 20 45 11 14
20 36 20 48 0 12 9 32 20 45 11 13 20 31 20 41 0 10 7 24 15 33 9 8 23 30 31
48 8 18 26 51 39 73 13 22 30 54 38 70 8 17 21 36 30 44 10 7 17 22 17 32 0
10 5 21 11 25 6 3 18 21 25 38 8 17 28 49 45 71 16 22 35 52 40 68 6 15 15 27
19 27 4 0 17 15 29 33 35 54 45 70 61 87 8 10 24 30 35 45 27 37 310 325 319
325 4 0 43 29 87 65 45 36 87 65 95 65 8 0 14 5 14 10 0 6 8 14 18 17 9 4 30
17 45 30 16 13 35 23 42 23 7 0 20 6 27 13 16 14 194 103 225 112 11 3 27 12
33 20 7 8 24 15 38 15 13 0 39 8 56 19 17 10 49 22 71 26 22 4 47 13 56 21 10
9 43 19 75 24 33 4 73 15 89 24 17 9 51 16 76 16 26 0 73 8 105 19 149 47 875
47 1017 0 31 -10 79 -19 105 -19 27 0 62 -8 83 -19 19 -10 55 -22 80 -25 25
-3 62 -15 84 -26 22 -11 51 -20 66 -20 15 0 32 -7 39 -15 7 -8 28 -17 49 -21
20 -4 47 -15 60 -25 13 -11 34 -19 46 -19 12 0 28 -7 35 -15 7 -8 29 -19 50
-25 21 -6 41 -17 44 -25 3 -8 13 -15 23 -15 16 0 128 -69 188 -115 10 -8 24
-15 31 -15 6 0 17 -7 24 -16 8 -8 27 -22 44 -30 55 -26 91 -47 101 -59 6 -6
30 -24 55 -40 116 -76 302 -246 415 -381 27 -32 58 -65 67 -72 10 -7 18 -19
18 -26 0 -7 9 -21 20 -31 11 -10 20 -23 20 -30 0 -7 9 -20 20 -30 11 -10 20
-24 20 -30 0 -7 7 -18 16 -25 8 -8 21 -28 29 -47 8 -18 18 -33 23 -33 6 0 13
-12 17 -27 3 -14 15 -38 26 -51 10 -14 19 -31 19 -39 0 -8 9 -26 20 -40 11
-14 20 -34 20 -44 0 -11 9 -36 20 -56 11 -21 20 -45 20 -53 0 -8 9 -28 20 -45
11 -16 20 -44 20 -60 0 -17 8 -46 18 -65 11 -19 22 -58 25 -87 3 -29 13 -65
21 -82 9 -16 16 -48 16 -70 0 -61 21 -191 31 -191 5 0 9 -160 9 -360 0 -207
-4 -360 -9 -360 -11 0 -21 -83 -26 -230 -2 -71 -10 -132 -20 -160 -9 -25 -19
-90 -22 -145 -3 -55 -12 -116 -20 -135 -8 -19 -18 -76 -22 -127 -4 -51 -14
-99 -21 -108 -7 -8 -14 -45 -17 -82 -2 -38 -13 -88 -23 -113 -10 -25 -21 -72
-26 -105 -4 -33 -13 -69 -20 -80 -7 -11 -16 -47 -20 -80 -4 -33 -13 -70 -21
-81 -7 -12 -16 -45 -20 -74 -3 -28 -14 -68 -24 -88 -11 -20 -19 -52 -19 -71 0
-19 -7 -42 -16 -52 -9 -10 -19 -40 -22 -66 -3 -26 -13 -59 -23 -72 -11 -13
-19 -39 -19 -58 0 -20 -9 -46 -20 -60 -11 -14 -20 -38 -20 -54 0 -15 -11 -49
-25 -75 -14 -26 -25 -54 -25 -63 0 -9 -9 -34 -20 -56 -11 -22 -20 -49 -20 -61
0 -12 -7 -27 -15 -34 -8 -7 -17 -28 -21 -49 -4 -20 -15 -47 -25 -60 -11 -13
-19 -33 -19 -45 0 -11 -9 -34 -20 -51 -11 -16 -20 -40 -20 -51 0 -12 -9 -33
-20 -47 -11 -14 -20 -36 -20 -50 0 -13 -9 -32 -20 -42 -11 -10 -20 -23 -20
-29 0 -6 -11 -33 -24 -61 -43 -89 -167 -340 -176 -355 -11 -18 -33 -62 -54
-107 -9 -17 -20 -34 -26 -38 -5 -3 -10 -15 -10 -25 0 -10 -11 -32 -25 -48 -14
-17 -25 -37 -25 -45 0 -8 -7 -20 -16 -27 -8 -8 -22 -27 -30 -44 -20 -43 -47
-88 -61 -104 -7 -7 -13 -19 -13 -26 0 -7 -11 -25 -25 -40 -14 -15 -25 -32 -25
-38 0 -6 -7 -20 -17 -30 -19 -21 -36 -49 -58 -95 -8 -18 -19 -33 -24 -33 -4 0
-13 -11 -19 -25 -7 -14 -17 -31 -23 -38 -9 -11 -24 -34 -61 -92 -7 -11 -16
-22 -20 -25 -11 -9 -58 -80 -58 -89 0 -4 -12 -21 -27 -38 -16 -16 -35 -40 -43
-52 -8 -13 -36 -51 -63 -85 -26 -33 -54 -70 -62 -81 -37 -51 -151 -192 -169
-211 -12 -11 -34 -38 -51 -60 -16 -21 -47 -56 -67 -78 -21 -21 -38 -40 -38
-42 0 -2 -8 -12 -17 -23 -10 -10 -63 -67 -118 -126 -160 -172 -420 -425 -530
-517 -22 -18 -52 -43 -65 -56 -39 -36 -46 -41 -212 -173 -86 -68 -173 -135
-193 -149 -20 -14 -44 -32 -53 -41 -9 -9 -27 -20 -39 -23 -13 -4 -23 -13 -23
-21 0 -8 -9 -17 -20 -20 -12 -4 -55 -30 -96 -58 -42 -29 -85 -57 -97 -64 -12
-7 -26 -18 -32 -26 -5 -8 -21 -18 -34 -22 -14 -4 -47 -23 -73 -42 -27 -19 -59
-38 -71 -44 -12 -6 -40 -21 -62 -34 -22 -13 -57 -33 -77 -44 -20 -12 -39 -25
-43 -31 -3 -5 -14 -10 -24 -10 -10 0 -26 -9 -36 -20 -10 -11 -26 -20 -37 -20
-10 0 -27 -9 -38 -20 -11 -11 -32 -22 -47 -26 -16 -4 -36 -15 -46 -25 -10 -11
-28 -19 -40 -19 -12 0 -30 -9 -40 -20 -9 -11 -27 -20 -40 -20 -13 0 -32 -9
-42 -20 -10 -11 -27 -20 -37 -20 -11 0 -37 -9 -59 -20 -100 -51 -116 -58 -146
-64 -17 -4 -37 -14 -43 -21 -7 -8 -28 -17 -49 -21 -20 -4 -43 -12 -51 -19 -8
-7 -31 -15 -51 -19 -20 -4 -47 -15 -59 -26 -13 -11 -38 -20 -55 -20 -18 0 -44
-9 -58 -20 -14 -11 -40 -20 -60 -20 -19 0 -45 -8 -58 -19 -13 -10 -46 -20 -72
-23 -26 -3 -56 -13 -66 -22 -10 -9 -33 -16 -52 -16 -19 0 -53 -9 -74 -21 -22
-12 -63 -23 -92 -24 -28 -2 -68 -13 -89 -24 -22 -12 -57 -21 -82 -21 -24 0
-62 -9 -85 -19 -24 -11 -66 -19 -98 -20 -31 0 -78 -9 -105 -19 -30 -12 -88
-21 -149 -25 -61 -4 -112 -12 -130 -21 -20 -11 -59 -16 -120 -16 -110 -1 -239
-16 -243 -30 -5 -14 -1019 -14 -1024 0 -4 14 -150 30 -271 30 -65 0 -110 5
-134 15 -21 9 -93 20 -163 25 -69 5 -143 16 -165 24 -22 8 -71 15 -108 16 -39
0 -83 7 -105 16 -20 9 -73 20 -117 24 -44 5 -95 16 -113 25 -18 9 -61 19 -95
23 -34 3 -72 11 -84 19 -12 8 -48 17 -80 20 -32 3 -74 14 -93 25 -19 10 -55
18 -81 18 -28 0 -51 6 -59 14 -6 8 -37 20 -68 26 -31 6 -68 17 -82 24 -14 8
-45 17 -70 21 -24 4 -54 13 -65 21 -11 7 -40 16 -65 20 -25 4 -53 13 -62 21
-9 8 -36 17 -60 20 -24 3 -54 14 -67 24 -13 11 -35 19 -50 19 -14 0 -39 9 -56
20 -16 11 -41 20 -54 20 -14 0 -32 7 -42 16 -10 9 -36 20 -59 25 -23 5 -49 16
-57 24 -8 8 -27 15 -42 15 -16 0 -34 6 -40 14 -6 8 -26 19 -44 26 -41 16 -111
47 -159 71 -20 11 -43 19 -51 19 -8 0 -24 9 -37 20 -13 11 -33 20 -45 20 -12
0 -30 9 -40 20 -10 11 -28 20 -40 20 -12 0 -30 9 -40 20 -10 11 -26 20 -35 20
-9 0 -31 11 -50 25 -19 14 -42 25 -51 25 -10 0 -21 5 -25 11 -3 6 -21 18 -38
26 -17 8 -47 24 -68 36 -102 61 -145 85 -165 91 -13 4 -23 12 -23 17 0 6 -12
16 -27 22 -45 20 -103 58 -103 67 0 5 -13 11 -30 15 -16 4 -32 11 -36 16 -5 8
-44 35 -105 74 -37 22 -136 90 -164 112 -42 33 -45 34 -95 68 -25 16 -54 38
-65 47 -11 10 -56 44 -100 77 -44 33 -89 69 -101 80 -11 11 -47 42 -80 68 -96
77 -110 90 -240 208 -142 130 -364 352 -364 365 0 5 -4 10 -9 10 -5 0 -31 23
-58 52 -26 29 -61 65 -76 80 -16 15 -50 54 -75 86 -46 57 -62 76 -92 111 -99
115 -120 141 -120 148 0 5 -8 16 -17 25 -10 9 -27 29 -38 44 -11 14 -29 36
-40 48 -23 24 -65 84 -65 93 0 3 -17 26 -38 52 -21 25 -53 70 -72 99 -18 28
-37 52 -41 52 -4 0 -11 9 -14 21 -8 24 -61 106 -73 111 -4 2 -16 21 -27 43
-11 22 -28 47 -37 57 -10 10 -24 32 -33 50 -8 18 -26 51 -39 73 -14 22 -31 54
-39 70 -8 17 -21 36 -30 44 -10 7 -17 21 -17 31 0 9 -9 25 -19 34 -11 10 -23
31 -26 47 -4 16 -10 29 -14 29 -5 0 -15 17 -24 38 -9 20 -20 44 -26 52 -5 8
-14 26 -20 40 -6 14 -34 68 -61 120 -27 52 -55 110 -61 128 -6 17 -14 32 -19
32 -5 0 -11 13 -15 30 -3 16 -15 40 -25 53 -10 13 -22 37 -26 53 -4 16 -12 36
-19 44 -7 8 -15 30 -19 49 -3 19 -12 42 -19 50 -7 9 -19 34 -26 56 -8 21 -20
45 -27 53 -8 7 -14 26 -14 40 0 15 -6 37 -14 48 -8 11 -19 40 -26 64 -7 25
-17 48 -22 51 -6 4 -14 28 -19 54 -5 27 -16 56 -24 65 -8 9 -15 30 -15 46 0
16 -11 47 -25 69 -13 22 -25 54 -25 70 0 17 -9 44 -20 60 -11 17 -20 45 -20
63 0 17 -9 49 -20 69 -11 21 -20 54 -20 73 0 19 -9 49 -20 65 -12 19 -20 47
-20 75 0 26 -8 58 -18 75 -11 17 -21 58 -24 91 -3 34 -13 72 -22 86 -8 13 -17
51 -20 84 -2 33 -10 74 -18 90 -9 16 -18 62 -21 102 -3 40 -13 87 -22 105 -10
19 -20 71 -24 127 -4 52 -13 106 -21 120 -7 14 -16 77 -20 146 -4 66 -13 132
-20 145 -8 14 -16 88 -21 184 -4 88 -14 196 -23 240 -15 73 -17 724 -19 7300
-2 5961 -4 7226 -15 7255 -8 19 -17 101 -22 182 -4 81 -15 169 -23 195 -8 26
-18 87 -21 134 -2 48 -12 104 -21 125 -9 22 -18 70 -21 107 -2 38 -13 88 -24
112 -12 26 -20 65 -20 95 0 29 -7 65 -17 83 -9 18 -20 60 -24 95 -4 35 -14 70
-23 81 -9 10 -16 35 -16 57 0 22 -9 57 -20 79 -11 22 -20 53 -20 70 0 17 -9
47 -20 68 -11 20 -20 47 -20 60 0 12 -9 40 -20 62 -11 22 -20 48 -20 59 0 11
-9 38 -19 60 -11 23 -24 60 -30 82 -6 23 -18 47 -26 54 -8 7 -15 23 -15 36 0
13 -9 41 -20 61 -11 21 -20 45 -20 54 0 9 -9 28 -20 42 -11 14 -20 36 -20 50
0 13 -9 36 -20 50 -11 14 -20 34 -20 45 0 10 -8 30 -19 43 -10 13 -22 38 -25
56 -4 17 -14 37 -22 44 -8 6 -14 17 -14 25 0 12 -95 204 -140 282 -6 9 -19 35
-31 57 -46 92 -58 112 -73 124 -9 8 -16 20 -16 28 0 7 -10 28 -22 46 -50 74
-58 87 -58 95 0 5 -7 16 -17 23 -9 8 -21 25 -27 39 -20 43 -58 100 -66 100 -5
0 -12 9 -15 20 -9 28 -57 100 -67 100 -4 0 -14 15 -23 33 -17 37 -78 124 -106
150 -10 10 -19 22 -19 27 0 6 -8 18 -17 29 -10 10 -27 31 -38 45 -18 24 -45
57 -90 109 -8 9 -15 21 -15 25 0 5 -10 18 -22 29 -13 11 -39 40 -58 64 -19 24
-62 73 -95 109 -33 36 -64 71 -70 78 -19 26 -360 367 -405 406 -25 21 -79 69
-120 105 -109 98 -337 281 -348 281 -5 0 -12 7 -16 15 -3 8 -12 15 -19 15 -8
0 -28 12 -45 28 -46 41 -65 56 -83 67 -9 6 -63 42 -119 80 -56 39 -112 75
-124 82 -11 7 -28 17 -36 22 -66 45 -92 61 -102 61 -5 0 -23 11 -40 25 -16 14
-36 25 -44 25 -8 0 -14 4 -14 9 0 5 -16 16 -35 25 -19 9 -37 21 -40 26 -3 6
-15 10 -25 10 -10 0 -32 11 -48 25 -17 14 -38 25 -49 25 -10 0 -26 9 -36 20
-9 11 -25 20 -35 20 -11 0 -27 9 -37 20 -10 11 -26 20 -35 20 -10 0 -28 9 -42
19 -13 11 -38 23 -54 27 -16 4 -35 13 -42 21 -7 7 -25 16 -40 20 -15 3 -38 14
-51 25 -13 10 -33 18 -43 18 -11 0 -31 9 -45 20 -14 11 -33 20 -42 20 -9 0
-29 9 -46 20 -16 11 -37 20 -45 20 -8 0 -32 9 -53 20 -20 11 -46 20 -58 20
-11 0 -32 9 -46 20 -14 11 -41 22 -62 26 -20 4 -43 12 -51 19 -8 8 -33 17 -55
21 -22 4 -53 15 -70 26 -16 10 -42 18 -57 18 -15 0 -42 9 -60 20 -18 11 -47
20 -65 20 -17 0 -47 8 -65 19 -18 10 -52 21 -74 25 -23 3 -54 13 -70 21 -16 8
-46 15 -66 15 -21 0 -55 9 -77 21 -22 11 -59 20 -83 20 -24 1 -60 9 -81 20
-21 11 -66 21 -101 23 -35 2 -78 12 -96 21 -18 9 -65 19 -108 21 -41 3 -91 12
-111 20 -20 9 -85 19 -146 23 -60 5 -123 14 -140 21 -16 6 -104 16 -195 20
-91 5 -183 15 -205 22 -57 18 -623 18 -680 0 -22 -7 -114 -17 -205 -22 -97 -5
-184 -15 -210 -23 -25 -9 -88 -18 -141 -20 -60 -3 -108 -11 -127 -21 -17 -9
-65 -18 -106 -20 -43 -3 -90 -12 -108 -21 -18 -9 -62 -19 -97 -21 -35 -3 -81
-14 -102 -24 -21 -11 -58 -20 -81 -20 -24 0 -60 -9 -81 -20 -20 -11 -54 -20
-75 -20 -20 0 -54 -9 -75 -20 -20 -11 -51 -20 -67 -20 -17 0 -48 -9 -70 -20
-22 -11 -49 -20 -61 -20 -12 0 -40 -9 -63 -19 -23 -11 -57 -22 -77 -26 -21 -3
-42 -12 -49 -20 -7 -8 -22 -15 -35 -15 -29 0 -85 -20 -85 -30 0 -5 -20 -12
-45 -15 -24 -4 -49 -13 -55 -20 -6 -8 -28 -16 -50 -20 -21 -4 -46 -15 -56 -26
-9 -10 -28 -19 -41 -19 -13 0 -41 -8 -61 -19 -20 -10 -57 -28 -82 -39 -25 -11
-70 -32 -100 -46 -30 -14 -60 -26 -65 -26 -6 0 -18 -9 -28 -20 -9 -11 -28 -20
-41 -20 -13 0 -29 -6 -35 -14 -7 -8 -24 -17 -38 -21 -15 -3 -38 -15 -51 -26
-14 -10 -31 -19 -38 -19 -7 0 -19 -6 -27 -14 -8 -8 -29 -22 -48 -30 -19 -9
-52 -27 -74 -41 -22 -13 -53 -31 -70 -40 -33 -17 -46 -24 -122 -73 -29 -18
-55 -37 -58 -42 -3 -6 -14 -10 -24 -10 -10 0 -26 -9 -36 -20 -10 -11 -23 -20
-30 -20 -7 0 -20 -9 -30 -20 -10 -11 -23 -20 -30 -20 -7 0 -20 -9 -30 -20 -10
-11 -23 -20 -30 -20 -6 0 -22 -11 -35 -25 -13 -14 -28 -25 -33 -25 -5 0 -31
-17 -58 -37 -26 -21 -64 -49 -84 -63 -19 -14 -46 -34 -59 -45 -13 -11 -33 -27
-46 -35 -28 -19 -203 -160 -210 -169 -3 -4 -34 -32 -70 -62 -36 -31 -83 -71
-105 -90 -60 -51 -434 -427 -480 -482 -22 -27 -53 -63 -70 -80 -16 -18 -46
-52 -65 -75 -19 -24 -44 -54 -55 -67 -11 -13 -28 -34 -38 -47 -10 -12 -49 -63
-88 -113 -38 -49 -76 -99 -84 -110 -9 -11 -26 -34 -40 -51 -14 -18 -25 -37
-25 -43 0 -6 -5 -11 -10 -11 -6 0 -15 -12 -20 -26 -6 -14 -26 -45 -45 -68 -18
-23 -39 -53 -45 -66 -6 -14 -24 -43 -41 -65 -16 -22 -35 -52 -40 -67 -6 -16
-15 -28 -20 -28 -6 0 -17 -15 -25 -32 -8 -18 -30 -58 -49 -88 -19 -30 -34 -60
-35 -66 0 -6 -9 -19 -20 -29 -11 -10 -20 -26 -20 -35 0 -10 -6 -23 -14 -29 -7
-6 -29 -42 -47 -79 -19 -37 -42 -78 -51 -91 -10 -13 -18 -30 -18 -38 0 -8 -9
-26 -20 -40 -11 -14 -20 -32 -20 -40 0 -8 -9 -26 -20 -40 -11 -14 -20 -33 -20
-43 0 -10 -8 -28 -18 -41 -11 -13 -22 -37 -26 -53 -4 -15 -14 -35 -21 -43 -8
-8 -15 -25 -15 -37 0 -13 -9 -35 -20 -49 -11 -14 -20 -36 -20 -50 0 -13 -9
-34 -19 -46 -11 -13 -23 -37 -27 -53 -3 -17 -15 -45 -25 -62 -10 -17 -19 -42
-19 -55 0 -14 -7 -32 -15 -41 -9 -10 -19 -35 -22 -56 -3 -22 -12 -46 -19 -54
-7 -9 -18 -37 -24 -63 -6 -27 -17 -58 -24 -70 -8 -12 -17 -42 -21 -67 -4 -24
-13 -54 -21 -65 -7 -11 -16 -40 -20 -65 -4 -25 -13 -54 -20 -65 -8 -11 -14
-38 -14 -60 0 -22 -9 -58 -21 -79 -11 -22 -23 -64 -26 -95 -4 -31 -12 -66 -20
-78 -8 -11 -18 -52 -23 -90 -4 -37 -15 -86 -24 -108 -8 -22 -15 -63 -16 -90 0
-28 -9 -77 -20 -109 -12 -34 -21 -85 -22 -124 0 -37 -6 -85 -13 -107 -21 -66
-26 -96 -30 -211 -2 -60 -8 -121 -14 -136 -6 -16 -14 -83 -19 -150 -12 -165
-6 -769 8 -838 6 -30 15 -75 20 -100 5 -25 9 -84 9 -131 1 -54 8 -111 20 -150
10 -35 19 -92 20 -126 0 -35 10 -88 21 -120 11 -32 20 -80 20 -108 1 -27 8
-68 16 -90 9 -22 20 -71 24 -108 5 -38 15 -79 23 -90 8 -12 17 -48 20 -80 3
-32 12 -68 20 -80 8 -12 17 -43 20 -69 4 -26 16 -64 27 -85 11 -21 20 -54 20
-73 0 -19 9 -48 20 -65 11 -16 20 -43 20 -60 0 -16 9 -43 20 -60 11 -16 20
-44 20 -61 0 -17 9 -43 20 -57 11 -14 20 -37 20 -52 0 -14 9 -43 20 -63 10
-20 22 -49 25 -64 3 -15 12 -33 20 -42 8 -8 15 -25 15 -38 0 -13 9 -37 19 -54
10 -17 22 -44 25 -61 4 -17 16 -39 27 -49 10 -9 19 -29 19 -44 0 -15 9 -35 20
-45 11 -10 20 -28 20 -40 0 -12 9 -34 20 -48 11 -14 20 -34 20 -45 0 -10 9
-29 20 -42 11 -13 20 -31 20 -40 0 -10 8 -28 19 -41 10 -13 22 -35 26 -49 4
-14 16 -33 26 -43 11 -10 19 -26 19 -36 0 -10 9 -26 20 -36 11 -10 20 -25 20
-34 1 -9 16 -41 35 -71 19 -30 40 -67 46 -82 6 -14 17 -29 25 -32 8 -3 14 -12
14 -21 0 -9 8 -28 19 -43 10 -15 35 -53 55 -84 20 -31 41 -60 46 -63 6 -3 10
-13 10 -22 0 -14 15 -36 70 -101 11 -13 20 -30 20 -37 0 -8 6 -18 13 -22 6 -4
17 -15 22 -24 6 -9 24 -35 40 -59 17 -24 35 -50 40 -59 6 -9 16 -23 23 -31 6
-8 35 -44 62 -80 27 -36 56 -72 62 -80 7 -8 34 -41 61 -74 26 -32 58 -69 70
-82 12 -12 31 -34 42 -49 67 -88 465 -494 599 -610 38 -33 77 -68 87 -77 11
-10 23 -18 27 -18 5 0 20 -12 35 -27 33 -36 59 -58 152 -129 11 -8 57 -44 102
-79 45 -36 86 -65 91 -65 5 0 17 -9 27 -20 22 -24 199 -146 270 -186 16 -9 35
-23 43 -30 7 -8 19 -14 26 -14 8 0 20 -7 27 -17 8 -9 29 -22 47 -30 17 -7 32
-18 32 -23 0 -6 9 -10 19 -10 11 0 32 -11 47 -25 15 -14 35 -25 45 -25 10 0
22 -6 26 -14 4 -8 24 -21 43 -30 36 -16 54 -26 101 -58 15 -9 39 -20 53 -24
14 -3 30 -12 37 -20 6 -8 21 -14 34 -14 12 0 30 -9 40 -20 10 -11 26 -20 35
-20 10 0 28 -8 41 -18 13 -11 38 -22 54 -26 17 -4 38 -16 48 -27 10 -10 25
-19 34 -19 8 0 30 -9 47 -19 17 -10 45 -22 63 -26 17 -3 37 -13 44 -21 6 -8
20 -14 30 -14 10 0 39 -11 65 -25 26 -14 53 -25 60 -25 8 0 28 -9 46 -20 18
-11 45 -20 59 -20 15 0 32 -7 39 -15 7 -8 28 -17 49 -21 20 -4 52 -15 71 -25
19 -11 44 -19 55 -19 11 0 36 -8 55 -19 19 -10 55 -22 80 -26 24 -4 54 -13 65
-20 11 -7 40 -16 65 -20 25 -4 54 -14 65 -21 11 -8 38 -14 60 -14 22 0 58 -9
79 -21 22 -11 64 -23 95 -26 31 -4 66 -13 79 -21 12 -8 52 -17 90 -20 37 -3
77 -11 89 -19 12 -8 57 -17 100 -20 43 -3 88 -12 101 -19 13 -9 69 -18 135
-23 63 -5 122 -13 133 -18 30 -16 88 -24 177 -24 45 0 114 -7 152 -15 96 -19
162 -24 435 -29 170 -3 250 -8 289 -19 30 -9 98 -19 150 -22 53 -4 108 -13
123 -21 15 -7 56 -16 90 -20 35 -3 79 -14 98 -25 19 -10 50 -18 69 -18 19 0
42 -7 51 -15 9 -8 38 -19 64 -24 26 -5 54 -15 64 -24 9 -8 34 -18 55 -22 20
-4 37 -11 37 -16 0 -5 20 -14 44 -20 25 -6 47 -17 50 -24 3 -8 21 -17 40 -21
20 -3 36 -10 36 -16 0 -5 17 -16 38 -25 20 -8 39 -19 42 -23 3 -4 32 -22 65
-39 32 -18 62 -36 65 -41 6 -10 78 -60 86 -60 5 0 123 -99 209 -174 22 -19 43
-35 47 -36 9 0 82 -68 197 -180 96 -95 194 -208 224 -257 10 -18 23 -33 28
-33 5 0 9 -6 9 -13 0 -8 11 -24 25 -37 14 -13 25 -29 25 -35 0 -7 9 -22 20
-35 11 -13 20 -28 20 -35 0 -7 9 -20 20 -30 11 -10 20 -26 20 -35 0 -9 9 -25
20 -35 11 -10 20 -26 20 -35 0 -10 8 -28 18 -41 11 -13 22 -37 26 -54 4 -16
13 -37 20 -45 7 -8 18 -34 24 -56 7 -23 19 -47 27 -54 8 -7 15 -27 15 -44 0
-17 9 -44 20 -61 11 -16 20 -46 20 -65 0 -19 9 -52 20 -73 11 -20 20 -53 20
-73 0 -42 20 -127 32 -135 5 -3 10 -50 13 -105 2 -54 11 -133 19 -174 14 -68
16 -555 16 -4904 0 -4266 -2 -4838 -15 -4905 -8 -42 -19 -123 -24 -181 -5 -58
-16 -123 -24 -145 -9 -22 -16 -59 -17 -83 0 -23 -9 -59 -20 -79 -11 -21 -20
-54 -20 -75 0 -20 -7 -43 -15 -52 -8 -8 -18 -30 -21 -48 -4 -18 -15 -51 -24
-73 -10 -22 -31 -67 -45 -100 -44 -99 -99 -204 -128 -245 -9 -13 -17 -31 -17
-39 0 -7 -10 -24 -22 -37 -42 -43 -58 -64 -58 -74 0 -6 -31 -48 -68 -94 -38
-46 -75 -91 -83 -101 -18 -22 -191 -195 -214 -214 -10 -8 -55 -45 -101 -83
-46 -37 -86 -68 -89 -68 -2 0 -24 -14 -47 -30 -24 -17 -54 -38 -68 -48 -14 -9
-29 -22 -33 -29 -4 -7 -13 -13 -20 -14 -7 0 -32 -16 -57 -35 -25 -18 -56 -39
-70 -45 -14 -5 -33 -19 -43 -30 -10 -10 -26 -19 -36 -19 -10 0 -24 -7 -31 -14
-6 -8 -27 -20 -46 -26 -19 -6 -34 -16 -34 -21 0 -5 -5 -9 -11 -9 -17 0 -157
-68 -164 -80 -3 -6 -16 -10 -28 -10 -12 0 -39 -9 -60 -20 -20 -11 -45 -20 -55
-20 -10 0 -35 -9 -55 -19 -21 -11 -57 -23 -80 -26 -23 -4 -55 -15 -72 -25 -16
-9 -61 -20 -98 -23 -37 -4 -77 -13 -90 -22 -13 -9 -44 -15 -82 -15 -77 0 -179
-17 -183 -30 -5 -13 -5092 -14 -5092 -1 0 12 -113 31 -186 31 -35 0 -71 7 -89
16 -16 9 -57 18 -90 21 -33 3 -74 14 -90 24 -17 10 -54 21 -83 25 -28 3 -52
10 -52 14 0 10 -57 30 -85 30 -13 0 -28 7 -35 15 -7 8 -28 17 -49 21 -20 4
-42 11 -49 17 -21 17 -204 107 -217 107 -7 0 -20 9 -30 20 -10 11 -23 20 -29
20 -6 0 -37 18 -69 40 -31 22 -62 40 -67 40 -6 0 -20 11 -32 25 -12 14 -26 25
-31 25 -9 0 -198 151 -260 209 -73 67 -143 139 -203 207 -32 37 -68 77 -79 88
-11 12 -34 41 -50 66 -17 25 -35 50 -41 55 -6 6 -19 23 -30 39 -10 16 -27 41
-36 55 -10 14 -25 41 -35 59 -9 17 -20 32 -24 32 -4 0 -13 15 -19 34 -6 19
-17 37 -25 39 -7 3 -16 19 -20 36 -3 16 -12 35 -20 41 -8 6 -17 24 -20 40 -3
15 -15 36 -26 46 -10 9 -19 27 -19 39 0 12 -9 34 -20 48 -11 14 -20 35 -20 46
0 12 -9 38 -20 58 -11 21 -20 45 -20 53 0 8 -9 30 -20 48 -11 18 -20 44 -20
59 0 15 -9 45 -19 67 -10 23 -21 64 -24 93 -3 29 -13 65 -21 82 -9 16 -16 49
-16 73 -1 24 -7 77 -16 118 -8 41 -19 97 -24 124 -5 28 -9 140 -9 250 1 195
-4 248 -23 273 -5 6 -12 45 -14 85 -3 44 -13 88 -25 111 -10 21 -19 48 -19 60
0 12 -9 36 -20 52 -11 17 -20 42 -20 56 0 14 -9 36 -20 49 -11 13 -20 29 -20
36 0 6 -8 29 -19 51 -10 21 -24 49 -30 63 -6 14 -22 43 -36 65 -13 22 -30 51
-37 65 -7 14 -27 45 -43 69 -17 24 -34 51 -40 60 -15 24 -85 112 -112 141
-108 116 -171 178 -197 198 -17 12 -52 41 -78 64 -26 22 -56 46 -66 52 -11 6
-40 25 -65 43 -25 17 -55 34 -66 38 -12 3 -21 10 -21 15 0 4 -17 15 -37 24
-21 9 -51 24 -68 33 -71 39 -104 53 -123 53 -11 0 -25 7 -32 15 -7 8 -28 18
-48 21 -20 4 -55 15 -77 25 -22 10 -58 19 -80 19 -22 0 -51 7 -64 16 -16 12
-60 19 -148 25 -68 5 -133 13 -143 19 -25 13 -273 13 -286 0 -6 -6 -60 -14
-120 -17 -74 -4 -123 -11 -153 -24 -24 -11 -60 -19 -80 -19 -20 0 -53 -9 -74
-20 -20 -11 -47 -20 -59 -20 -13 0 -38 -9 -56 -20 -18 -11 -41 -20 -51 -20
-10 0 -29 -8 -42 -19 -13 -10 -39 -22 -56 -25 -18 -4 -35 -12 -39 -17 -3 -5
-20 -16 -37 -25 -44 -21 -84 -44 -136 -79 -24 -17 -51 -34 -60 -40 -42 -27
-165 -129 -251 -208 -29 -27 -147 -162 -184 -212 -8 -11 -27 -34 -41 -51 -14
-18 -25 -36 -25 -41 0 -6 -9 -18 -20 -28 -11 -10 -20 -23 -20 -30 0 -7 -9 -22
-20 -35 -11 -13 -23 -34 -26 -47 -4 -13 -9 -23 -13 -23 -3 0 -21 -33 -40 -72
-18 -40 -42 -89 -52 -109 -11 -20 -19 -46 -19 -57 0 -11 -6 -25 -14 -31 -8 -6
-17 -31 -20 -54 -4 -23 -15 -56 -26 -72 -13 -19 -20 -47 -20 -78 0 -26 -8 -62
-17 -80 -14 -26 -19 -72 -24 -262 -4 -153 -12 -253 -23 -300 -8 -38 -16 -104
-16 -145 0 -53 -6 -88 -20 -118 -11 -24 -22 -69 -24 -100 -3 -32 -14 -75 -25
-97 -12 -21 -21 -51 -21 -65 0 -14 -9 -43 -20 -65 -11 -22 -20 -48 -20 -60 0
-11 -9 -33 -20 -50 -11 -16 -20 -42 -20 -56 0 -14 -9 -34 -20 -44 -11 -10 -20
-24 -20 -31 0 -11 -40 -100 -61 -134 -5 -8 -16 -29 -24 -47 -8 -17 -19 -34
-24 -37 -5 -4 -12 -20 -16 -36 -4 -17 -11 -30 -16 -30 -6 0 -15 -13 -22 -28
-7 -15 -18 -34 -25 -42 -7 -8 -27 -37 -45 -65 -17 -27 -37 -56 -44 -63 -7 -7
-13 -17 -13 -22 0 -5 -8 -17 -18 -27 -10 -10 -49 -56 -87 -103 -116 -145 -157
-190 -249 -279 -127 -122 -193 -181 -201 -181 -3 0 -28 -17 -55 -37 -27 -21
-65 -49 -85 -63 -20 -14 -49 -35 -65 -47 -15 -13 -35 -23 -43 -23 -9 0 -19 -5
-23 -11 -3 -6 -21 -18 -38 -26 -17 -8 -58 -29 -91 -48 -33 -18 -67 -34 -76
-34 -8 -1 -30 -12 -49 -26 -19 -14 -46 -25 -61 -25 -14 0 -32 -7 -39 -15 -7
-8 -24 -15 -39 -15 -15 0 -43 -8 -64 -19 -20 -10 -58 -22 -84 -26 -27 -3 -59
-14 -72 -22 -14 -9 -59 -19 -100 -24 -42 -4 -89 -14 -106 -23 -18 -9 -55 -16
-90 -16 -77 0 -179 -17 -183 -30 -5 -13 -5112 -14 -5112 -1 0 12 -113 31 -186
31 -35 0 -71 7 -89 16 -16 9 -57 18 -90 21 -33 3 -73 13 -90 23 -16 10 -49 21
-72 25 -23 3 -59 15 -80 26 -20 10 -49 19 -64 19 -15 0 -32 6 -38 14 -7 8 -30
17 -52 21 -21 4 -41 11 -44 15 -3 5 -60 36 -128 70 -143 72 -157 80 -236 132
-14 10 -36 22 -47 27 -12 5 -33 20 -46 33 -13 13 -35 30 -47 38 -141 91 -452
397 -565 555 -59 82 -90 127 -101 144 -5 9 -27 41 -47 72 -21 31 -38 61 -38
66 0 5 -9 18 -20 28 -11 10 -20 26 -20 37 0 10 -9 26 -20 35 -11 10 -20 28
-20 40 0 13 -9 32 -20 43 -11 11 -20 31 -20 45 0 14 -9 34 -20 45 -11 11 -20
30 -20 43 0 12 -9 37 -20 55 -11 18 -20 40 -20 49 0 9 -8 35 -19 57 -10 23
-24 63 -30 90 -7 27 -19 58 -27 70 -7 11 -14 41 -14 66 -1 25 -9 63 -20 85
-11 24 -20 63 -20 95 -1 71 -15 143 -29 148 -15 5 -16 10049 -1 10054 14 4 30
171 30 313 0 78 6 142 16 180 9 33 19 126 23 206 5 80 13 154 18 165 16 29 24
87 24 165 0 43 8 95 20 132 11 35 20 90 20 127 0 38 8 86 20 120 11 30 22 91
26 135 3 44 12 93 21 109 8 16 18 64 22 105 4 42 15 94 23 116 9 22 16 61 17
88 0 27 8 63 20 84 12 23 20 57 20 86 0 28 8 64 20 87 11 22 20 59 20 82 0 24
9 60 20 81 11 20 20 54 20 75 0 20 9 55 21 76 11 21 23 61 26 88 3 27 14 66
24 86 11 20 19 49 19 65 0 15 9 45 20 67 11 22 20 54 20 72 0 18 9 47 20 63
11 17 20 46 20 65 0 19 9 49 20 65 11 17 20 45 20 63 0 19 9 45 19 58 11 14
22 42 26 64 4 21 15 56 26 77 10 20 19 48 19 62 0 13 7 32 15 41 9 10 19 35
22 56 3 22 11 46 18 54 7 8 18 35 25 60 7 24 18 53 26 64 8 11 14 32 14 47 0
14 8 37 19 50 10 13 21 38 25 56 4 17 16 48 27 69 10 21 19 46 19 55 0 9 6 22
14 28 8 7 18 27 21 44 4 18 16 46 26 63 10 17 19 40 19 51 0 11 9 32 20 46 11
14 20 36 20 50 0 13 7 30 14 37 8 6 20 28 27 48 6 20 17 44 24 52 8 8 17 29
21 45 3 17 12 37 20 45 7 8 16 29 20 45 4 17 15 41 26 54 10 13 18 30 18 38 0
8 9 26 20 40 11 14 20 33 20 43 0 10 9 29 20 43 11 14 20 32 20 40 0 8 9 26
20 40 11 14 20 32 20 40 0 8 8 25 19 38 10 13 22 35 26 49 4 13 15 36 24 50
29 43 41 64 52 90 6 14 15 32 20 40 5 8 16 29 24 47 8 17 19 34 24 37 5 4 12
19 16 35 3 16 15 37 26 47 10 9 19 25 19 34 0 10 7 24 17 31 9 8 22 28 30 44
8 17 25 48 38 70 13 22 30 54 38 70 8 17 21 36 30 44 10 7 17 21 17 31 0 9 9
25 20 35 11 10 20 23 20 30 0 7 9 20 20 30 11 10 20 26 20 36 0 10 4 21 10 24
13 8 80 110 80 122 0 5 9 18 20 28 11 10 20 23 20 30 0 7 9 20 20 30 11 10 20
23 20 28 0 6 7 19 17 29 9 10 21 26 27 37 6 10 24 38 41 62 16 24 34 51 40 61
37 59 135 201 167 239 21 26 38 50 38 53 0 6 78 107 105 137 8 9 15 19 15 24
0 4 12 22 27 40 16 18 37 45 48 60 11 14 28 34 38 43 9 9 17 22 17 30 0 7 7
15 15 18 8 3 17 14 20 24 3 10 18 31 33 47 15 16 43 48 62 72 19 24 43 52 53
62 9 11 17 22 17 27 0 4 19 27 43 52 42 46 58 65 152 175 245 289 674 725
1059 1076 33 30 66 62 75 72 8 9 21 17 28 17 6 0 16 6 20 14 4 8 34 35 66 61
32 26 70 59 85 72 23 22 96 81 359 291 12 9 33 26 48 37 15 11 37 30 50 43 12
12 27 22 32 22 6 0 17 7 24 16 7 9 23 20 36 25 13 5 23 15 23 24 0 8 8 15 18
15 10 0 28 11 40 25 12 14 28 25 36 25 8 0 19 6 23 13 4 6 15 17 24 22 9 6 35
24 59 40 24 17 50 35 59 40 9 6 23 16 31 22 48 41 79 63 87 63 5 0 18 7 28 15
11 8 37 28 59 45 21 16 45 30 52 30 8 0 14 4 14 10 0 5 16 16 35 24 19 8 35
19 35 25 0 5 9 13 21 16 11 4 41 21 66 38 52 37 109 72 138 85 12 6 27 17 34
26 7 9 19 16 27 16 7 0 25 11 40 25 15 14 33 25 40 25 12 0 65 31 109 65 10 8
24 15 30 15 7 0 20 9 30 20 10 11 25 20 33 20 8 0 27 11 44 25 16 14 38 25 48
25 10 0 22 5 25 10 4 6 21 17 38 25 33 15 52 26 98 57 15 9 38 20 52 23 14 4
33 15 43 26 9 10 25 19 36 19 10 0 26 9 35 20 10 11 27 20 39 20 11 0 29 9 39
20 10 11 26 20 35 20 9 0 31 11 50 25 19 14 42 25 51 25 10 0 24 6 31 13 7 8
30 17 51 21 21 4 37 13 37 20 0 14 21 26 47 26 8 0 26 9 40 20 14 11 33 20 43
20 10 0 29 9 43 20 14 11 34 20 45 20 10 0 30 8 43 18 13 11 38 22 54 26 17 4
37 13 45 20 8 8 28 16 44 20 16 4 41 16 54 27 14 10 35 19 48 19 12 0 29 6 36
14 8 7 30 17 49 21 19 4 41 13 49 19 8 7 34 18 56 24 23 7 47 19 54 27 7 8 23
15 37 15 13 0 40 8 61 19 20 10 51 22 69 25 17 4 37 14 44 22 6 8 21 14 34 14
12 0 43 11 69 25 26 14 57 25 70 25 12 0 31 7 42 15 10 8 28 15 39 15 12 0 37
8 58 19 20 10 54 22 74 26 21 4 52 15 69 26 17 10 44 19 60 19 16 0 44 9 62
20 18 11 45 20 60 20 15 0 44 8 65 19 20 10 56 22 79 25 24 4 57 15 73 26 17
12 47 20 70 20 22 0 50 6 61 14 11 8 42 17 69 21 28 4 64 16 81 26 17 11 49
19 70 19 22 0 56 9 77 20 20 11 56 20 79 20 23 0 60 9 82 19 23 10 67 21 99
24 32 3 68 12 80 20 12 8 49 17 81 20 61 6 76 16 76 53 0 12 9 41 19 65 10 24
22 69 26 99 3 30 13 69 20 86 8 17 18 57 21 90 4 32 13 69 21 80 7 12 16 46
20 75 3 30 12 64 20 75 7 12 16 45 20 74 3 28 14 68 24 88 11 20 19 51 19 69
0 18 9 47 20 65 11 18 20 49 20 68 0 19 9 49 20 65 11 17 20 46 20 65 0 19 9
49 20 65 11 17 20 47 20 67 0 21 7 44 17 53 9 9 20 40 24 67 5 28 15 58 24 68
9 10 19 35 22 56 4 22 15 53 25 69 10 17 18 43 18 58 0 15 9 40 19 55 11 15
22 43 25 63 4 21 13 42 21 49 8 7 15 26 15 42 0 16 9 41 20 55 11 14 23 43 26
65 4 21 10 38 15 38 4 0 14 19 21 43 6 23 20 56 30 72 10 17 18 40 18 51 0 12
7 27 15 34 8 7 17 28 21 49 4 20 15 47 25 60 11 13 19 28 19 33 0 8 15 42 71
164 11 22 19 48 19 57 0 9 4 17 9 17 5 0 15 17 21 38 7 20 18 44 25 52 8 8 17
29 21 45 4 17 15 41 26 54 10 13 18 30 18 38 0 8 9 26 20 40 11 14 20 33 20
43 0 9 9 25 20 35 11 10 20 29 20 42 0 13 9 31 20 40 11 10 20 28 20 40 0 12
8 30 19 40 10 10 22 29 26 43 4 14 16 36 26 49 11 13 19 31 19 41 0 9 9 25 20
35 11 10 20 26 20 35 0 10 7 23 16 30 8 8 22 27 29 44 8 17 35 67 60 111 24
44 51 94 59 111 8 17 22 36 30 44 9 7 16 18 16 25 0 7 6 18 14 24 8 7 17 24
21 38 3 15 15 33 26 41 10 7 19 22 19 32 0 10 4 21 9 25 16 9 71 95 71 110 0
8 5 17 10 20 6 4 28 34 50 68 22 34 46 71 55 82 8 10 15 23 15 29 0 5 7 16 15
25 13 13 115 162 150 220 6 9 16 20 23 24 6 4 12 14 12 22 0 7 9 24 20 37 50
59 70 87 70 95 0 5 8 16 18 24 10 9 34 39 52 67 18 29 37 52 42 52 4 0 8 6 8
14 0 7 12 26 28 43 15 16 34 40 42 53 8 12 23 32 33 44 9 11 58 73 107 136 50
63 98 124 108 135 10 11 38 45 62 75 24 30 52 64 62 75 23 25 57 65 83 99 11
14 40 47 65 74 25 27 72 79 105 117 33 37 78 87 100 110 22 24 76 83 120 131
44 48 85 92 91 98 184 181 409 398 473 456 46 41 99 90 119 109 21 19 67 59
103 91 36 31 75 65 87 76 11 10 28 25 37 32 9 8 44 37 78 65 34 28 71 59 81
67 11 8 29 25 41 38 12 12 27 22 34 22 6 0 16 9 23 20 7 11 18 20 25 20 7 0
16 6 20 14 4 7 18 18 31 25 12 6 22 18 22 26 0 8 8 15 17 15 10 0 26 9 38 20
28 27 184 148 246 190 28 19 66 47 84 63 18 15 36 27 40 27 4 0 26 15 49 33
23 18 54 42 70 52 16 11 39 27 51 35 12 8 69 47 125 85 56 39 110 75 119 80 9
6 36 24 60 40 24 17 55 36 70 44 14 8 32 20 39 28 7 7 19 13 26 13 7 0 21 9
31 20 10 11 24 20 30 20 7 0 19 7 26 17 8 9 28 22 44 30 17 8 48 25 70 38 22
13 54 31 70 41 17 9 34 23 38 30 4 8 16 14 25 14 10 0 29 8 42 17 25 18 56 36
115 67 17 9 48 27 70 41 22 13 54 31 72 39 17 9 34 20 37 25 3 5 22 12 41 15
19 4 35 11 35 16 0 5 35 26 78 46 42 21 79 40 82 44 3 3 73 39 155 78 83 40
157 77 165 83 8 5 23 12 34 16 10 3 39 17 63 30 24 12 51 23 59 23 7 0 22 8
33 19 10 10 34 21 54 25 19 4 40 13 46 20 7 8 27 17 45 20 19 4 39 13 45 20 6
8 25 16 42 20 17 3 42 15 56 26 14 11 36 20 48 20 12 0 34 9 48 20 14 11 35
20 46 20 12 0 38 9 58 20 21 11 45 20 54 20 9 0 28 9 42 20 14 11 35 20 47 20
12 0 39 9 59 19 20 10 55 24 79 30 23 7 42 16 42 20 0 5 20 12 44 15 24 4 54
16 67 26 12 11 37 20 54 20 18 0 43 8 56 19 13 10 43 21 67 24 24 3 51 12 60
20 9 8 36 17 60 20 24 3 51 12 61 21 10 9 31 16 47 16 16 0 47 9 69 20 22 11
51 20 65 20 14 0 42 8 63 19 20 10 58 22 84 26 27 3 57 12 68 19 11 7 41 16
66 20 25 4 62 16 82 26 20 11 54 20 75 20 20 0 53 8 72 18 19 11 60 22 92 25
31 3 67 12 80 20 12 8 54 18 92 21 38 4 74 13 80 20 6 8 41 16 80 20 38 3 80
13 94 22 16 10 60 20 110 25 45 4 90 13 98 19 8 7 46 15 85 17 40 2 94 13 121
24 29 11 73 19 109 19 33 0 85 8 117 19 31 10 98 21 147 24 50 3 110 13 135
22 26 9 90 18 150 20 58 2 128 11 155 20 29 9 104 17 180 20 72 3 155 10 185
15 124 23 194 31 214 26 25 -6 167 12 181 24 18 15 105 17 491 16 295 -1 374
-4 387 -14z m-198 -9271 c158 -6 219 -12 247 -25 20 -8 70 -19 110 -22 40 -4
83 -13 94 -21 12 -7 46 -16 75 -20 30 -3 61 -12 70 -20 9 -7 39 -17 66 -22 27
-4 60 -15 74 -24 13 -9 33 -17 44 -17 11 0 34 -9 50 -20 17 -11 39 -20 51 -20
11 0 29 -9 39 -20 10 -11 29 -20 42 -20 13 0 31 -9 40 -20 10 -11 25 -20 34
-20 10 0 31 -11 47 -25 17 -14 37 -25 45 -25 9 0 18 -4 22 -9 6 -10 93 -71
101 -71 4 0 59 -42 158 -123 137 -111 253 -231 363 -378 31 -41 58 -76 62 -79
8 -6 25 -34 51 -82 11 -21 25 -38 30 -38 6 0 10 -6 10 -13 0 -7 11 -28 25 -47
14 -19 25 -42 25 -52 0 -9 9 -22 20 -28 11 -6 20 -21 20 -34 0 -13 9 -31 20
-41 11 -10 20 -28 20 -40 0 -12 9 -34 20 -48 11 -14 20 -33 20 -42 0 -10 8
-32 19 -49 10 -17 21 -47 25 -67 4 -21 13 -42 20 -48 7 -6 16 -33 20 -60 3
-27 12 -54 20 -60 7 -6 16 -37 20 -68 4 -31 15 -70 25 -87 12 -20 20 -58 23
-103 3 -40 11 -80 19 -89 8 -9 16 -60 20 -132 4 -64 15 -157 23 -206 21 -115
21 -339 1 -443 -9 -43 -18 -125 -21 -183 -4 -62 -14 -128 -25 -163 -10 -31
-19 -77 -19 -102 0 -26 -8 -61 -20 -82 -11 -21 -20 -56 -20 -78 0 -22 -8 -51
-17 -64 -9 -14 -20 -46 -24 -73 -4 -26 -15 -55 -23 -63 -8 -9 -18 -32 -22 -53
-4 -20 -12 -44 -19 -52 -7 -8 -18 -34 -24 -57 -7 -23 -16 -45 -21 -48 -4 -3
-14 -22 -21 -43 -6 -20 -15 -39 -18 -42 -4 -3 -22 -36 -41 -75 -31 -61 -54
-102 -91 -155 -5 -8 -15 -25 -22 -36 -23 -41 -88 -132 -102 -144 -8 -7 -15
-17 -15 -23 0 -6 -9 -20 -20 -32 -11 -11 -39 -42 -62 -69 -101 -117 -369 -366
-393 -366 -4 0 -27 -16 -51 -36 -42 -35 -61 -47 -141 -89 -18 -10 -33 -21 -33
-25 0 -5 -14 -11 -31 -15 -17 -4 -33 -13 -36 -20 -2 -8 -19 -17 -36 -21 -18
-3 -43 -15 -56 -25 -13 -11 -30 -19 -39 -19 -8 0 -29 -9 -46 -19 -17 -10 -45
-22 -63 -26 -17 -3 -37 -13 -44 -21 -6 -8 -23 -14 -38 -14 -15 0 -43 -8 -63
-19 -20 -10 -57 -21 -81 -24 -25 -4 -62 -15 -84 -26 -22 -11 -60 -20 -90 -20
-28 0 -74 -10 -102 -21 -37 -14 -75 -20 -134 -20 -45 0 -131 -7 -192 -15 -123
-17 -306 -19 -375 -5 -25 5 -103 12 -175 16 -84 4 -150 12 -185 24 -31 10 -85
22 -120 26 -36 4 -74 13 -86 20 -11 8 -42 17 -68 20 -26 4 -64 15 -84 25 -20
11 -48 19 -63 19 -15 0 -32 6 -38 14 -7 8 -24 17 -39 21 -15 3 -45 15 -67 25
-22 10 -51 23 -65 29 -14 6 -32 15 -40 19 -44 25 -78 43 -107 57 -17 8 -34 19
-38 25 -3 5 -14 10 -24 10 -10 0 -30 10 -44 23 -14 12 -55 42 -92 67 -37 25
-75 53 -83 63 -9 9 -21 17 -26 17 -12 0 -16 4 -177 162 -75 73 -163 169 -197
213 -34 44 -70 89 -81 100 -10 11 -22 30 -26 43 -3 12 -10 22 -14 22 -5 0 -14
13 -21 29 -6 16 -18 32 -26 35 -8 3 -14 14 -14 25 0 11 -5 23 -11 27 -6 3 -19
25 -30 48 -19 41 -29 59 -59 106 -9 14 -20 39 -24 55 -4 17 -13 37 -20 45 -8
8 -16 28 -20 44 -4 16 -16 41 -27 54 -10 14 -19 37 -19 52 0 15 -8 38 -19 51
-10 13 -21 43 -24 67 -3 24 -12 51 -20 60 -8 9 -17 41 -20 71 -4 29 -13 64
-22 77 -8 13 -18 54 -21 91 -2 37 -12 81 -20 98 -9 18 -17 67 -20 120 -2 50
-9 115 -14 145 -35 198 -37 430 -6 575 8 39 17 115 20 170 3 60 11 112 20 130
8 17 18 62 22 100 4 39 13 80 21 91 7 12 16 46 20 75 3 30 12 62 20 71 8 9 17
36 20 60 3 24 14 54 24 67 11 13 19 35 19 50 0 14 9 40 20 56 11 17 20 39 20
51 0 12 9 31 20 44 11 13 23 35 27 49 3 14 14 37 25 50 10 13 18 32 18 41 0
10 6 22 13 28 6 6 27 40 46 76 18 36 40 71 47 77 8 6 14 17 14 24 0 6 9 20 20
30 11 10 20 25 20 33 0 8 9 24 21 36 11 12 41 48 65 81 59 79 151 181 243 269
41 39 86 83 100 99 14 15 29 27 34 27 4 0 39 25 77 55 38 30 80 60 94 67 14 6
26 14 26 18 0 4 13 13 29 20 16 6 32 18 35 25 2 7 18 16 35 20 17 4 33 11 37
16 3 5 20 16 37 24 18 8 39 19 47 23 25 15 124 60 147 66 11 4 27 13 33 21 7
8 25 15 40 15 15 0 38 8 51 18 13 11 46 22 73 26 28 3 53 11 57 18 4 6 35 15
70 20 35 4 72 14 83 22 12 7 54 16 94 20 40 3 90 14 110 23 28 12 82 18 217
23 261 9 279 9 510 1z"/>
<path d="M20453 34650 c-18 -4 -39 -12 -45 -18 -7 -6 -30 -13 -50 -17 -21 -4
-47 -16 -59 -26 -12 -10 -34 -19 -48 -19 -14 0 -39 -9 -56 -20 -16 -11 -37
-20 -46 -20 -9 0 -27 -8 -40 -18 -13 -11 -37 -22 -54 -26 -16 -4 -37 -13 -45
-20 -8 -8 -28 -17 -45 -20 -16 -4 -37 -13 -45 -21 -8 -7 -32 -18 -52 -25 -21
-6 -38 -15 -38 -20 0 -5 -13 -11 -29 -15 -16 -3 -39 -15 -52 -26 -12 -10 -30
-19 -39 -19 -9 0 -25 -9 -35 -20 -10 -11 -28 -20 -40 -20 -13 0 -28 -7 -35
-15 -6 -8 -42 -29 -78 -47 -63 -30 -122 -65 -149 -88 -7 -6 -23 -15 -35 -20
-13 -6 -43 -24 -68 -40 -25 -16 -55 -34 -67 -39 -11 -5 -24 -15 -28 -21 -4 -7
-23 -18 -41 -26 -19 -8 -34 -19 -34 -24 0 -6 -6 -10 -13 -10 -8 0 -24 -11 -37
-25 -13 -14 -31 -25 -41 -25 -10 0 -22 -6 -26 -13 -4 -6 -28 -25 -53 -42 -25
-16 -68 -48 -96 -70 -28 -22 -61 -47 -74 -55 -50 -34 -265 -211 -272 -225 -5
-8 -15 -15 -21 -15 -7 0 -20 -8 -28 -17 -9 -10 -47 -45 -85 -78 -75 -66 -396
-384 -484 -480 -30 -33 -86 -98 -124 -145 -78 -97 -92 -112 -123 -142 -13 -12
-23 -25 -23 -30 0 -4 -7 -16 -16 -25 -34 -39 -144 -182 -144 -188 0 -4 -12
-22 -27 -40 -48 -57 -63 -79 -63 -92 0 -7 -4 -13 -9 -13 -5 0 -18 -15 -30 -32
-11 -18 -26 -42 -33 -53 -7 -11 -23 -33 -35 -48 -13 -16 -23 -32 -23 -37 0 -8
-78 -131 -99 -157 -6 -6 -13 -23 -16 -36 -4 -14 -15 -33 -26 -43 -10 -9 -19
-22 -19 -29 0 -7 -9 -22 -20 -35 -11 -13 -23 -34 -26 -47 -4 -13 -10 -23 -14
-23 -4 0 -15 -18 -23 -39 -9 -22 -21 -42 -27 -46 -5 -3 -10 -16 -10 -29 0 -13
-9 -31 -20 -41 -11 -10 -20 -26 -20 -35 0 -9 -11 -31 -25 -50 -14 -19 -25 -40
-25 -48 0 -8 -9 -25 -20 -39 -11 -14 -20 -35 -20 -47 0 -12 -9 -29 -20 -39
-11 -9 -20 -27 -20 -40 0 -13 -9 -34 -20 -47 -11 -12 -22 -38 -26 -56 -3 -18
-12 -38 -19 -44 -8 -6 -17 -26 -20 -43 -4 -18 -13 -39 -20 -47 -7 -8 -15 -33
-18 -54 -4 -22 -10 -42 -15 -45 -15 -10 -32 -48 -32 -71 0 -12 -9 -33 -20 -47
-11 -14 -20 -35 -20 -47 0 -12 -9 -38 -20 -59 -11 -20 -20 -49 -20 -64 0 -16
-9 -41 -20 -58 -11 -16 -20 -46 -20 -65 0 -19 -9 -48 -20 -65 -11 -16 -23 -50
-26 -75 -4 -25 -13 -55 -21 -66 -7 -12 -16 -45 -20 -74 -3 -28 -14 -68 -24
-88 -11 -20 -19 -53 -19 -73 0 -20 -9 -56 -20 -80 -11 -24 -20 -65 -20 -90 0
-26 -9 -66 -20 -90 -12 -28 -20 -66 -20 -104 0 -36 -7 -72 -16 -90 -10 -18
-20 -72 -25 -135 -4 -58 -14 -123 -22 -145 -9 -24 -17 -91 -20 -165 -3 -69
-10 -137 -15 -152 -29 -72 -31 -338 -32 -3429 0 -2801 1 -3168 15 -3179 12
-10 16 -7 26 16 6 16 15 36 20 44 9 15 21 40 34 70 3 8 17 33 30 55 14 22 33
56 42 75 10 19 24 41 31 48 6 7 12 21 12 31 0 10 9 26 20 36 11 10 22 27 26
38 4 12 21 42 39 67 18 25 36 57 40 71 4 13 16 30 26 37 11 7 19 19 19 26 0 6
7 21 15 31 8 11 48 70 88 130 80 123 96 145 150 215 20 27 37 52 37 56 0 3 11
20 25 38 14 17 34 41 43 54 9 13 25 31 35 40 9 9 17 20 17 24 0 7 107 143 153
194 6 7 21 25 32 40 11 15 31 39 45 54 14 15 52 58 85 96 122 138 333 352 480
489 59 55 116 107 125 116 15 14 176 149 213 179 7 5 26 21 42 34 17 14 41 34
55 46 101 83 245 190 257 190 4 0 13 7 22 15 33 31 79 65 88 65 6 0 18 9 28
20 10 11 24 20 30 20 7 0 19 7 26 17 8 9 29 22 47 30 17 7 32 18 32 23 0 6 6
10 13 10 7 0 23 9 35 20 12 11 32 25 44 30 13 6 43 24 68 40 25 16 54 34 65
39 12 5 27 16 34 25 7 9 22 16 32 16 10 0 30 11 45 25 15 14 34 25 43 25 10 0
22 5 28 11 11 11 41 28 160 88 45 23 85 46 88 51 3 6 14 10 24 10 10 0 30 9
44 20 14 11 32 20 40 20 8 0 25 8 38 18 13 11 38 22 54 26 17 4 37 13 45 21 8
7 32 18 52 24 20 7 42 19 48 27 7 7 25 14 40 14 15 0 35 9 45 20 10 11 30 20
44 20 14 0 40 9 56 20 17 11 40 20 51 20 12 0 32 8 45 18 13 11 41 22 62 25
20 3 49 15 64 26 14 12 40 21 58 21 18 0 38 6 44 14 6 7 30 17 54 20 23 4 51
13 62 20 11 8 41 17 65 21 25 4 54 13 65 20 11 7 44 17 74 24 29 6 62 18 74
26 12 8 37 15 57 15 20 0 54 9 75 21 22 12 63 23 92 24 28 2 68 13 89 24 24
13 57 21 89 21 27 0 64 7 80 16 17 9 59 18 93 21 35 2 86 13 113 24 29 11 74
19 108 19 33 0 87 9 122 19 35 10 109 21 164 24 55 3 125 12 155 20 33 9 121
18 220 21 91 3 223 13 294 22 101 12 187 15 405 11 152 -3 308 -10 346 -16 39
-6 147 -13 240 -16 106 -4 189 -12 220 -21 28 -8 100 -18 160 -21 61 -3 126
-12 145 -20 19 -8 79 -18 132 -22 53 -4 104 -13 112 -20 8 -7 52 -16 98 -21
46 -4 97 -15 114 -24 17 -9 60 -19 95 -23 35 -3 73 -12 85 -20 11 -7 43 -16
70 -19 27 -3 70 -14 96 -25 26 -10 60 -19 75 -19 16 0 46 -9 68 -20 22 -11 54
-20 73 -20 19 0 45 -9 59 -20 15 -12 41 -20 62 -20 20 0 47 -7 60 -17 13 -9
44 -20 69 -25 25 -4 53 -15 61 -23 9 -8 35 -17 59 -21 23 -3 47 -13 53 -20 6
-7 27 -16 48 -20 20 -4 50 -15 67 -25 17 -11 43 -19 56 -19 14 0 31 -7 38 -15
7 -9 32 -20 56 -26 24 -6 49 -17 55 -25 6 -8 19 -14 28 -14 9 0 32 -8 51 -19
19 -10 49 -21 67 -25 17 -4 34 -14 37 -22 3 -8 16 -14 29 -14 14 0 35 -8 48
-19 13 -10 38 -22 56 -25 17 -4 34 -13 36 -20 3 -8 21 -16 39 -20 19 -3 41
-15 51 -26 9 -11 26 -20 37 -20 11 0 29 -9 40 -20 11 -11 28 -20 38 -20 11 0
27 -9 37 -20 10 -11 26 -20 35 -20 9 0 27 -9 40 -20 13 -11 34 -23 47 -26 13
-4 23 -10 23 -14 0 -4 34 -24 75 -44 41 -20 75 -41 75 -46 0 -5 10 -12 23 -15
12 -4 31 -15 42 -25 11 -10 31 -24 45 -29 26 -12 43 -22 132 -83 30 -21 60
-38 67 -38 6 0 11 -4 11 -9 0 -5 17 -20 37 -33 20 -12 47 -30 59 -38 11 -8 34
-24 50 -35 16 -11 31 -23 34 -27 9 -12 80 -58 90 -58 5 0 15 -8 22 -18 7 -10
20 -23 29 -28 9 -5 34 -24 55 -41 22 -18 80 -65 129 -105 50 -40 97 -79 105
-86 8 -7 27 -22 41 -35 101 -85 199 -177 374 -352 232 -231 312 -317 415 -445
25 -31 64 -76 87 -101 24 -24 43 -49 43 -54 0 -6 8 -18 18 -27 9 -9 25 -27 34
-40 10 -13 40 -52 68 -87 27 -35 50 -67 50 -70 0 -4 18 -27 40 -51 22 -24 40
-49 40 -56 0 -6 9 -19 20 -29 11 -10 20 -24 20 -32 0 -7 4 -13 10 -13 5 0 17
-15 26 -32 9 -18 23 -37 30 -41 8 -4 14 -14 14 -20 0 -7 7 -22 15 -32 29 -39
100 -150 112 -177 7 -16 17 -28 23 -28 5 0 10 -6 10 -14 0 -8 11 -28 25 -44
14 -17 25 -37 25 -45 0 -9 5 -19 10 -22 6 -4 19 -23 31 -43 11 -20 31 -55 44
-77 13 -22 29 -51 35 -64 6 -13 19 -35 30 -49 11 -13 20 -32 20 -41 0 -9 9
-24 20 -34 11 -9 20 -26 20 -37 0 -10 9 -27 19 -37 11 -10 21 -29 23 -42 6
-47 26 -34 33 21 11 94 1 3746 -10 3757 -6 6 -33 12 -61 14 -27 2 -62 12 -76
21 -14 9 -50 19 -79 23 -30 3 -64 12 -77 20 -13 8 -46 17 -75 20 -29 3 -68 14
-87 25 -19 10 -50 18 -69 18 -18 0 -48 9 -65 19 -17 11 -52 22 -79 26 -26 4
-50 11 -52 15 -3 5 -31 14 -63 21 -31 7 -66 18 -77 26 -10 7 -41 16 -67 19
-26 4 -48 10 -48 14 0 11 -57 30 -88 30 -14 0 -33 7 -42 15 -10 9 -35 19 -56
22 -22 3 -46 11 -54 18 -8 7 -35 18 -60 25 -24 7 -53 18 -64 26 -11 8 -35 14
-52 14 -17 0 -41 9 -53 19 -12 10 -38 22 -58 26 -20 4 -46 13 -57 21 -11 8
-32 14 -47 14 -14 0 -34 9 -44 20 -10 11 -36 23 -58 27 -21 3 -41 12 -44 19
-3 7 -24 16 -49 20 -24 3 -49 12 -55 20 -6 8 -30 19 -53 25 -22 6 -48 17 -56
24 -8 7 -29 16 -47 20 -17 3 -37 13 -44 21 -6 8 -22 14 -34 14 -12 0 -34 9
-48 20 -14 11 -34 20 -44 20 -11 0 -34 11 -53 25 -19 14 -39 25 -45 25 -7 0
-70 29 -140 65 -71 36 -135 65 -142 65 -7 0 -13 4 -13 9 0 5 -12 13 -27 19
-45 17 -56 22 -98 47 -51 31 -161 85 -173 85 -5 0 -17 9 -27 20 -10 11 -29 20
-42 20 -13 0 -26 7 -29 15 -3 8 -21 19 -40 25 -19 6 -34 15 -34 20 0 4 -15 13
-32 21 -18 7 -35 16 -38 20 -3 3 -38 23 -78 44 -39 21 -77 44 -83 52 -6 7 -20
13 -30 13 -10 0 -20 4 -24 9 -9 16 -95 71 -110 71 -8 0 -17 4 -20 10 -6 10
-109 80 -118 80 -4 0 -78 47 -157 101 -8 5 -24 15 -36 22 -60 35 -94 60 -94
68 0 5 -8 9 -18 9 -10 0 -29 11 -42 25 -13 14 -29 25 -35 25 -7 0 -20 9 -30
20 -10 11 -23 20 -28 20 -6 0 -17 7 -26 15 -33 31 -79 65 -88 65 -6 0 -18 9
-28 20 -10 11 -22 20 -27 20 -4 0 -34 20 -66 45 -31 25 -62 49 -68 54 -5 5
-19 13 -30 19 -11 6 -40 29 -64 51 -25 23 -49 41 -54 41 -5 0 -16 7 -25 16 -9
8 -68 56 -131 105 -102 80 -162 129 -236 194 -13 11 -34 29 -48 40 -67 53
-128 107 -351 309 -27 25 -56 46 -62 46 -7 0 -13 7 -13 15 0 8 -4 15 -8 15
-11 0 -517 504 -612 610 -41 46 -86 95 -98 109 -13 14 -49 55 -80 90 -32 35
-64 71 -73 80 -9 9 -42 48 -74 86 -32 39 -64 75 -69 82 -82 94 -306 372 -306
380 0 3 -29 41 -65 84 -36 43 -65 81 -65 85 0 8 -72 102 -99 130 -12 12 -21
24 -21 28 0 3 -21 36 -47 74 -26 37 -56 81 -67 97 -12 17 -24 32 -27 35 -3 3
-14 20 -24 38 -11 17 -22 32 -26 32 -4 0 -12 14 -18 30 -5 17 -14 30 -19 30
-5 0 -15 14 -22 30 -7 17 -16 30 -21 30 -5 0 -11 11 -15 24 -3 14 -14 32 -25
42 -10 9 -19 22 -19 29 0 7 -9 20 -20 30 -11 10 -20 23 -20 30 0 6 -11 22 -25
35 -14 13 -25 29 -25 37 0 7 -16 36 -35 64 -20 27 -40 60 -46 72 -5 12 -23 42
-39 67 -16 25 -35 57 -41 72 -6 14 -17 29 -25 32 -8 3 -14 14 -14 24 0 11 -8
30 -18 43 -10 13 -23 35 -30 49 -7 14 -23 43 -37 65 -13 22 -31 54 -39 71 -8
17 -22 36 -30 44 -9 7 -16 21 -16 31 0 11 -9 27 -20 36 -11 10 -20 25 -20 33
0 9 -11 31 -25 50 -14 19 -25 41 -25 50 0 9 -4 20 -9 26 -13 13 -191 365 -191
378 0 6 -9 22 -20 36 -11 14 -20 32 -20 41 0 8 -11 30 -25 49 -14 19 -25 42
-25 53 0 10 -9 30 -20 44 -11 14 -20 36 -20 48 0 12 -7 28 -15 35 -8 7 -17 27
-21 46 -3 18 -12 38 -20 45 -7 6 -16 26 -20 44 -3 19 -15 41 -25 51 -10 9 -19
29 -19 44 0 15 -9 39 -20 53 -11 14 -20 36 -20 49 0 12 -8 37 -18 53 -10 17
-22 44 -26 60 -4 17 -13 37 -21 45 -7 8 -15 31 -19 51 -4 21 -15 48 -26 62
-11 14 -20 37 -20 51 0 14 -9 43 -20 63 -11 21 -20 47 -20 59 0 12 -8 32 -18
45 -11 13 -22 41 -25 63 -3 21 -12 46 -20 55 -8 9 -17 35 -20 59 -3 24 -12 51
-20 60 -8 9 -18 38 -21 64 -4 25 -16 56 -26 69 -12 13 -20 37 -20 58 0 20 -9
50 -20 66 -11 17 -20 45 -20 63 0 17 -9 49 -20 69 -11 21 -20 51 -20 68 0 17
-9 47 -20 68 -11 20 -20 50 -20 65 0 26 -16 53 -29 51 -4 -1 -21 -5 -38 -9z"/>
</g>
</svg>
