<svg xmlns="http://www.w3.org/2000/svg" fill="none" viewBox="0 0 160 160">
  <path fill="url(#a)" d="M0 0h160v160H0z"/>
  <circle cx="80" cy="80" r="64" fill="url(#a)"/>
  <path fill="#fff" d="M81.5239 72.2556c2.7369 0 4.9556-2.2187 4.9556-4.9556 0-2.7368-2.2187-4.9555-4.9556-4.9555-2.7369 0-4.9555 2.2187-4.9555 4.9555 0 2.7369 2.2186 4.9556 4.9555 4.9556Z"/>
  <path fill="#fff" d="M118.588 90.4878c-2.581-.4378-4.819 1.5238-4.852 4.014-.025 2.0276-1.144 3.9273-3.04 4.6458-3.526 1.3424-6.871-1.243-6.871-4.5921V67.5931c0-11.3937-8.4495-21.2016-19.7729-22.4528-12.1618-1.3463-22.6593 7.1608-24.5259 18.5338 0 .0082-.0083.0165-.0166.0165C49.4457 65.8875 42 74.8365 42 85.4703v18.1947c0 2.268 1.8377 4.105 4.1049 4.105h9.2669c2.263 0 3.9809-1.85 3.9727-4.113-.0124-3.444 3.506-6.0828 7.136-4.5052 1.7509.7639 2.7833 2.5642 2.7751 4.4722-.0083 2.288 1.8459 4.142 4.1296 4.142h9.11c2.2672 0 4.1048-1.838 4.1048-4.105V85.4951c0-.6649-.128-1.3339-.4377-1.9203-.7846-1.4991-2.3085-2.3457-3.9108-2.2589-.2353.0124-.479.0206-.7226.0206-7.7307 0-14.0325-6.2894-14.0408-14.0201v-.0165l.0619-.8342c.508-6.9295 5.9178-12.6202 12.8473-13.1653 8.251-.6525 15.1764 5.8806 15.1764 13.9954v27.0449c0 6.3223 5.0923 12.4383 11.3523 13.2973 8.028 1.103 14.937-5.063 15.073-12.8513.037-2.073-1.358-3.9562-3.403-4.303l-.008.0041Zm-40.2513-.764v9.3743c0 .2271-.1859.4129-.413.4129h-.7805c-.1735 0-.3263-.1115-.3841-.2767-1.817-5.129-6.7189-8.8085-12.4591-8.8085s-10.642 3.6837-12.4591 8.8085c-.0578.1652-.2106.2767-.3882.2767h-.7805c-.2271 0-.4129-.1858-.4129-.4129V85.4703c0-5.988 3.7455-11.1294 9.0686-13.1405.2313-.0867.4832.0537.541.2932 2.1185 8.6103 9.2587 15.2755 18.1209 16.692.1982.033.3469.2023.3469.4047v.0041Z"/>
  <defs>
    <radialGradient id="a" cx="0" cy="0" r="1" gradientTransform="rotate(45 -11.3137085 27.3137085) scale(181.019)" gradientUnits="userSpaceOnUse">
      <stop stop-color="#0ECAD4"/>
      <stop offset="1" stop-color="#7A45E5"/>
    </radialGradient>
  </defs>
</svg>
