<svg width="568.84mm" height="203.35mm" version="1.1" viewBox="0 0 568.84 203.35" xmlns="http://www.w3.org/2000/svg">
 <path class="graphql-logo" d="m100.35 50.58c-9.4899 0-13.381 9.4706-11.168 14.307l-26.019 15.032c-3.0159-4.1523-14.262-5.824-18.231 2.8976-3.0133 6.6221 0.9658 14.67 7.4856 15.877l0.0604 30.064c-4.801 0.28159-11.787 7.9113-7.2443 16.42 3.9622 7.4224 13.402 6.882 17.99 2.1129l25.959 15.092c-1.5699 3.0929 0.31316 14.488 10.685 14.307 10.372-0.18111 12.392-10.43 10.745-14.73l25.898-14.972c1.2029 3.4411 13.175 6.831 17.99-1.7504s-3.2238-16.783-7.1234-16.3l-0.0604-30.486c3.2145 0.26393 12.074-7.1838 7.4859-15.937s-15.747-6.3067-18.171-2.4146l-26.019-15.152c1.6296-3.618-0.77283-14.368-10.263-14.368zm6.7834 18.836 26.556 14.973c-1.7232 6.1491 2.2715 12.589 8.0607 14.014l0.13337 30.412zm-14.903 3e-3 -34.38 59.614-0.15088-30.486c6.1951-1.5496 9.8098-8.2101 8.1799-13.945zm10.784 3.0129 34.022 59.079c-1.2593 0.76836-3.037 3.8745-3.0733 5.3783l-68.11-0.0712c-0.12288-1.616-1.7291-4.3952-3.0974-5.2991l34.054-59.04c0.96203 0.69774 5.0735 0.72148 6.2047-0.0469zm31.508 69.799-26.278 15.456c-4.4539-4.5765-12.029-4.3531-16.167-0.0611l-26.372-15.147z" fill="#e535ab"/>
 <g class="woocommerce-logo">
  <path d="m44.308 157.14c0.11004 2.1542 3.5094 7.2338 7.4708 7.2464l40.293 0.12791 17.576 13.04-4.4412-13.04 30.571-0.20045c3.3875 0.0727 7.9375-4.5835 7.8096-8.1532l-0.0277-33.374c0.0734-3.0716-4.2581-7.8869-8.3774-7.8258l-83.061 0.0354c-3.8386 0.028-8.0599 3.8037-8.066 7.4233 0 0 0.21671 28.357 0.25344 34.72z" fill="#9b5c8f"/>
  <g fill="#fff">
   <path d="m55.16 125.15s0.13363-3.274-3.4077-3.2072c-3.5413 0.0668-3.947 2.2308-3.0459 7.0239 1.1197 5.9556 4.9046 25.032 5.6599 26.61 0.75528 1.5774 1.4504 4.4052 3.5886 4.3384s4.2878-3.9618 4.2878-3.9618c1.5368-1.8709 7.6172-14.767 7.6172-14.767s4.2129 12.785 7.684 15.741c1.6704 1.6036 3.5771 4.0049 5.8212 2.645s1.3549-5.3453 1.387-7.6706c0.04603-3.3432 1.4936-13.601 1.9458-15.861 0.43194-2.1577 2.1382-8.6194 3.2741-10.824 1.1359-2.205-0.26727-3.8086-1.5368-4.5436-1.2695-0.73499-4.009-0.53454-5.0781 2.0045s-2.7395 8.0181-3.6081 11.693c-0.86862 3.675-1.2695 9.8222-1.2695 9.8222s-2.1651-5.2801-2.5978-7.904c-0.80086-3.8105-1.1504-9.1568-4.2567-9.2762-3.1063-0.11938-5.6372 6.6257-7.3776 9.8303s-5.0781 9.7553-5.0781 9.7553-1.8824-7.6988-2.3305-11.103c-0.40455-3.0731-1.6785-10.345-1.6785-10.345z"/>
   <path d="m102.21 124.7c-8.1895-0.10731-12.561 10.277-12.777 16.867-0.14244 4.349 1.8091 14.082 10.629 14.016 8.9616-0.11404 13.392-10.306 13.202-17.256s-2.8647-13.519-11.054-13.626zm0.32763 6.8008c3.6081 0 3.7419 7.5504 3.7419 7.5504-0.33408 4.0759-2.7394 9.02-6.2808 9.2873-3.5413 0.26726-3.6082-7.2828-3.3409-8.8196 0.26727-1.5368 2.2716-8.0181 5.8798-8.0181z"/>
   <path d="m127.81 124.7c-8.1894-0.10731-12.561 10.277-12.777 16.867-0.14244 4.349 1.8091 14.082 10.629 14.016 8.9616-0.11405 13.392-10.306 13.202-17.256-0.19018-6.95-2.8647-13.519-11.054-13.626zm0.32763 6.8008c3.6081 0 3.7419 7.5504 3.7419 7.5504-0.33408 4.0758-2.7394 9.02-6.2808 9.2873-3.5413 0.26727-3.6082-7.2828-3.3409-8.8196 0.26728-1.5368 2.2716-8.0181 5.8798-8.0181z"/>
  </g>
 </g>
 <g class="wordpress-logo" fill="#21759b" stroke-width=".23689">
  <path d="m146.2 122.24c0-4.8466-0.74953-9.5379-2.1081-13.934l-20.888 54.208c13.759-8.1408 22.996-23.125 22.996-40.275z"/>
  <path d="m84.64 166.58c4.6502 1.562 9.6277 2.4014 14.812 2.4014 5.4167 0 10.605-0.91677 15.442-2.6127l-14.271-36.998-15.983 37.209z"/>
  <path d="m54.604 109.02c-1.2347 4.1892-1.9091 8.6235-1.9091 13.215 0 17.519 9.6448 32.784 23.901 40.782l-21.849-53.704z"/>
  <path d="m78.423 106-2.0084-0.0898c-4.3811-0.0727-3.8959 4.4756-3.8959 4.4756l15.544 38.987 10.45-24.961-5.8339-14.853c-2.336-3.9272-8.0365-3.886-8.0365-3.886v-2.069h32.685l-0.0486 2.2948-3.4008 0.21107c-4.2354 0-3.379 4.029-3.379 4.029l14.183 37.888 4.0655-10.491c7.2117-16.349 2.7628-28.449 2.7628-28.449-7.2216-14.858 1.9041-16.99 1.9041-16.99 0.5773-0.0824 1.1184-0.1284 1.6495-0.1528-8.5752-10.077-21.349-16.468-35.61-16.468-19.282 0-35.845 11.685-42.99 28.357l21.88-0.22552 0.07746 2.3942z"/>
  <path d="m151.97 122.08c0 28.973-23.576 52.552-52.542 52.552-28.981 0-52.557-23.578-52.557-52.552 0-28.981 23.576-52.549 52.557-52.549 28.966 0.0024 52.542 23.569 52.542 52.549zm-52.542-54.97c-30.308 0-54.97 24.663-54.97 54.973s24.663 54.96 54.97 54.96c30.303 0 54.948-24.651 54.948-54.96 0-30.31-24.646-54.973-54.948-54.973z"/>
 </g>
 <circle class="white-circle" cx="101.68" cy="101.68" r="101.68" fill="#fff" style="paint-order:markers fill stroke"/>
 <path class="logo-path" d="m101.35 4.287c-14.854 0-20.946 14.824-17.481 22.395l-40.727 23.529c-4.7207-6.4995-22.325-9.1163-28.537 4.5356-4.7167 10.365 1.5118 22.962 11.717 24.852l0.09457 47.058c-7.5149 0.44077-18.449 12.383-11.339 25.702 6.202 11.618 20.977 10.772 28.159 3.3073l40.633 23.623c-2.4573 4.8412 0.4902 22.678 16.726 22.395 16.235-0.28349 19.397-16.327 16.82-23.056l40.538-23.435c1.8829 5.3863 20.622 10.692 28.159-2.7399s-5.0461-26.27-11.15-25.514l-0.0946-47.72c5.0316 0.41312 18.899-11.245 11.718-24.946-7.1815-13.702-24.648-9.8718-28.443-3.7796l-40.727-23.718c2.5507-5.6632-1.2097-22.49-16.064-22.49zm10.618 29.483 41.568 23.437c-2.6974 9.6251 3.5555 19.705 12.617 21.937l0.20876 47.603zm-23.327 0.0052-53.814 93.313-0.23616-47.72c9.6972-2.4256 15.355-12.851 12.804-21.828zm16.88 4.716 53.254 92.475c-1.9711 1.2027-4.7539 6.0647-4.8106 8.4186l-106.61-0.11166c-0.19234-2.5296-2.7066-6.8797-4.8483-8.2946l53.305-92.415c1.5058 1.0922 7.9414 1.1293 9.7121-0.07338zm49.319 109.25-41.133 24.193c-6.9716-7.1635-18.828-6.8139-25.306-0.0956l-41.279-23.709z" fill="#9b5c8f"/>
 <path class="logo-text-bubble" d="m50.47 118.62c0.11003 2.1542 3.5094 7.2338 7.4708 7.2464l40.293 0.12791 17.576 13.04-4.4412-13.04 30.571-0.20045c3.3875 0.0727 7.9375-4.5835 7.8096-8.1532l-0.0277-33.374c0.0734-3.0716-4.2581-7.8869-8.3774-7.8258l-83.061 0.03537c-3.8386 0.02799-8.0599 3.8037-8.0661 7.4233 0 0 0.21671 28.357 0.25345 34.72z" fill="#9b5c8f"/>
 <g class="logo-text" fill="#fff">
  <path d="m61.323 86.634s0.13363-3.2741-3.4077-3.2072c-3.5413 0.06682-3.947 2.2308-3.0459 7.0239 1.1197 5.9556 4.9046 25.032 5.6599 26.61 0.75528 1.5774 1.4504 4.4052 3.5886 4.3384s4.2878-3.9618 4.2878-3.9618c1.5368-1.8709 7.6172-14.767 7.6172-14.767s4.2129 12.785 7.684 15.741c1.6704 1.6036 3.5771 4.0049 5.8212 2.645s1.3549-5.3453 1.387-7.6706c0.04603-3.3432 1.4936-13.601 1.9458-15.861 0.43194-2.1577 2.1382-8.6194 3.2741-10.824 1.1359-2.205-0.26727-3.8086-1.5368-4.5436-1.2695-0.73499-4.009-0.53454-5.0781 2.0045-1.0691 2.5391-2.7395 8.0181-3.6081 11.693-0.86862 3.675-1.2695 9.8222-1.2695 9.8222s-2.1651-5.2801-2.5978-7.904c-0.80086-3.8105-1.1504-9.1568-4.2567-9.2762s-5.6372 6.6257-7.3776 9.8303-5.0781 9.7553-5.0781 9.7553-1.8824-7.6988-2.3305-11.103c-0.40455-3.0731-1.6785-10.345-1.6785-10.345z"/>
  <path d="m108.37 86.18c-8.1895-0.10732-12.561 10.277-12.777 16.867-0.14244 4.349 1.8091 14.082 10.629 14.016 8.9616-0.11404 13.392-10.306 13.202-17.256-0.19018-6.95-2.8647-13.519-11.054-13.626zm0.32763 6.8008c3.6081-3e-6 3.7419 7.5504 3.7419 7.5504-0.33408 4.0759-2.7394 9.02-6.2808 9.2873-3.5413 0.26726-3.6082-7.2828-3.3409-8.8196 0.26727-1.5368 2.2716-8.0181 5.8798-8.0181z"/>
  <path d="m133.98 86.18c-8.1894-0.10732-12.561 10.277-12.777 16.867-0.14244 4.349 1.8091 14.082 10.629 14.016 8.9616-0.11405 13.392-10.306 13.202-17.256-0.19018-6.95-2.8647-13.519-11.054-13.626zm0.32763 6.8008c3.6081-3e-6 3.7419 7.5504 3.7419 7.5504-0.33408 4.0758-2.7394 9.02-6.2808 9.2873-3.5413 0.26727-3.6082-7.2828-3.3409-8.8196 0.26728-1.5368 2.2716-8.0181 5.8798-8.0181z"/>
 </g>
 <g class="content">
  <g class="wpgraphql-text" stroke-width=".54519">
   <path d="m218.6 41.022 0.48555 4.1656 0.74113-3.68 5.9546-25.965h3.91l5.7757 25.965 0.74113 3.7823 0.53668-4.2934 4.549-25.454h4.6767l-7.4113 37.209h-4.2167l-6.2103-27.114-0.38334-2.1978-0.38334 2.1978-6.4398 27.114h-4.2422l-7.3857-37.209h4.6767z"/>
   <path d="m256.03 38.185v14.567h-4.6767v-37.209h11.858q5.1878 0 8.1522 3.1178 2.9645 3.0923 2.9645 8.2547 0 5.3667-2.8367 8.2803-2.8111 2.8878-7.9478 2.99zm0-4.0123h7.1812q3.1178 0 4.7789-1.8656 1.6611-1.8656 1.6611-5.3412 0-3.3478-1.7122-5.3667-1.7122-2.0189-4.7023-2.0189h-7.2069z"/>
   <path d="m303.67 48.126-0.81779 1.0222q-3.5267 4.1145-10.325 4.1145-6.0309 0-9.4814-3.9867-3.4244-4.0123-3.5012-11.321v-7.3088q0-7.8202 3.1178-11.705 3.1434-3.91 9.3789-3.91 5.3156 0 8.3054 2.9645 3.0156 2.9645 3.3223 8.4592h-4.6767q-0.28111-3.4756-1.9422-5.4178-1.6356-1.9678-4.9834-1.9678-4.0123 0-5.8777 2.6322-1.8656 2.6067-1.9422 8.3567v7.5901q0 5.622 2.1467 8.638 2.1467 2.99 6.159 2.99 3.7823 0 5.7501-1.84l0.68999-0.63891v-8.5867h-6.798v-3.9867h11.475z"/>
   <path d="m322.15 29.343q-0.94557-0.17889-2.0445-0.17889-3.4756 0-4.8556 3.8078v19.78h-4.5234v-27.651h4.3956l0.0767 2.8111q1.8144-3.3223 5.1367-3.3223 1.0734 0 1.7889 0.35778z"/>
   <path d="m339.88 52.75q-0.4089-0.89444-0.58777-3.0156-2.4022 3.5267-6.1334 3.5267-3.7567 0-5.8777-2.0956-2.0956-2.1211-2.0956-5.9546 0-4.2167 2.8622-6.6955t7.8458-2.53h3.3223v-2.9389q0-2.4789-1.0989-3.5267-1.0989-1.0478-3.3478-1.0478-2.0445 0-3.3223 1.2267-1.2778 1.2011-1.2778 3.0667h-4.5234q0-2.1211 1.2522-4.0378 1.2522-1.9422 3.3734-3.0411 2.1211-1.0989 4.7278-1.0989 4.2422 0 6.4398 2.1211 2.2233 2.0956 2.2745 6.1334v13.954q0.0256 3.1945 0.86893 5.5457v0.40889zm-6.0309-3.6034q1.6611 0 3.1689-0.92001t2.1978-2.3v-6.5935h-2.5556q-3.22 0.05111-5.0856 1.4567-1.8656 1.38-1.8656 3.8845 0 2.3511 0.94558 3.4244 0.94557 1.0478 3.1945 1.0478z"/>
   <path d="m370.69 40.255q0 6.5679-2.3767 9.7878-2.3511 3.22-6.6698 3.22-4.1656 0-6.4147-3.1433v13.263h-4.4978v-38.283h4.0889l0.23001 3.0667q2.2745-3.5778 6.5167-3.5778 4.549 0 6.798 3.1689 2.249 3.1689 2.3256 9.4814zm-4.4978-2.5811q0-4.6511-1.4311-6.8487-1.4311-2.2233-4.6-2.2233-3.2456 0-4.9323 3.2456v14.388q1.6611 3.1689 4.9834 3.1689 3.0667 0 4.4978-2.1978 1.4567-2.2233 1.4823-6.7724z"/>
   <path d="m381.11 27.937q2.5812-3.3478 6.5935-3.3478 7.3344 0 7.4369 9.7878v18.375h-4.4978v-18.17q0-3.2456-1.0989-4.6-1.0734-1.38-3.2456-1.38-1.6867 0-3.0411 1.1245-1.3289 1.1245-2.1467 2.9389v20.087h-4.5234v-39.254h4.5234z"/>
   <path d="m426.47 37.393q0 4.9067-1.3289 8.3054-1.3033 3.3734-3.7311 5.2645l5.5457 4.9834-3.1689 3.0923-6.6955-6.1078q-1.61 0.33222-3.1178 0.33222-5.8014 0-9.1488-4.0634-3.3222-4.0889-3.3989-11.475v-6.7724q0-7.5133 3.2967-11.705 3.2967-4.2167 9.2001-4.2167 5.9546 0 9.2257 4.1145 3.2711 4.0889 3.3222 11.602zm-4.6767-6.491q0-5.9033-1.9422-8.7656-1.9167-2.8878-5.929-2.8878-3.8333 0-5.827 2.9134-1.9678 2.9134-1.9933 8.5867v6.6448q0 5.7245 1.9678 8.7143 1.9934 2.99 5.9033 2.99 3.8845 0 5.8014-2.7089 1.9167-2.7089 2.0189-8.3567z"/>
   <path d="m438.62 48.74h14.593v4.0123h-19.295v-37.209h4.7023z"/>
  </g>
  <g class="woocommerce-text" stroke-width=".54519">
   <path d="m218.6 89.337 0.48555 4.1656 0.74113-3.68 5.9546-25.965h3.91l5.7757 25.965 0.74113 3.7823 0.53668-4.2934 4.549-25.454h4.6767l-7.4113 37.209h-4.2167l-6.2103-27.114-0.38334-2.1978-0.38334 2.1978-6.4398 27.114h-4.2422l-7.3857-37.209h4.6767z"/>
   <path d="m248.96 85.968q0-6.0309 2.9134-9.5321 2.9389-3.5267 7.7433-3.5267 4.8044 0 7.7177 3.4244 2.9389 3.4244 3.0156 9.3277v2.9134q0 6.0058-2.9134 9.507-2.9134 3.5012-7.769 3.5012-4.8045 0-7.7177-3.3989-2.8878-3.3989-2.99-9.2001zm4.5234 2.6067q0 4.2678 1.6611 6.7211 1.6867 2.4278 4.5234 2.4278 5.9802 0 6.159-8.638v-3.1178q0-4.2422-1.6867-6.6955-1.6867-2.4789-4.5234-2.4789-2.7856 0-4.4722 2.4789-1.6611 2.4534-1.6611 6.6699z"/>
   <path d="m275.23 85.968q0-6.0309 2.9134-9.5321 2.9389-3.5267 7.7433-3.5267 4.8044 0 7.7177 3.4244 2.9389 3.4244 3.0156 9.3277v2.9134q0 6.0058-2.9134 9.507-2.9134 3.5012-7.769 3.5012-4.8045 0-7.7177-3.3989-2.8878-3.3989-2.99-9.2001zm4.5234 2.6067q0 4.2678 1.6611 6.7211 1.6867 2.4278 4.5234 2.4278 5.9802 0 6.159-8.638v-3.1178q0-4.2422-1.6867-6.6955-1.6867-2.4789-4.5234-2.4789-2.7856 0-4.4722 2.4789-1.6611 2.4534-1.6611 6.6699z"/>
   <path d="m326.42 89.261q-0.30667 5.9802-3.3734 9.1488-3.0411 3.1689-8.6124 3.1689-5.5969 0-8.8931-4.2422-3.2967-4.2678-3.2967-11.551v-6.7467q0-7.2576 3.3734-11.475 3.3989-4.2167 9.2513-4.2167 5.3922 0 8.331 3.2456 2.9645 3.22 3.22 9.2257h-4.7278q-0.30667-4.549-1.9167-6.491-1.61-1.9422-4.9067-1.9422-3.8078 0-5.8521 2.99-2.0445 2.9645-2.0445 8.7143v6.8236q0 5.6476 1.8912 8.6636 1.9167 3.0156 5.5713 3.0156 3.6545 0 5.2645-1.8144t1.9933-6.5167z"/>
   <path d="m331.15 85.968q0-6.0309 2.9134-9.5321 2.9389-3.5267 7.7433-3.5267t7.7177 3.4244q2.9389 3.4244 3.0156 9.3277v2.9134q0 6.0058-2.9133 9.507-2.9134 3.5012-7.769 3.5012-4.8045 0-7.7177-3.3989-2.8878-3.3989-2.99-9.2001zm4.5234 2.6067q0 4.2678 1.6611 6.7211 1.6867 2.4278 4.5234 2.4278 5.9802 0 6.159-8.638v-3.1178q0-4.2422-1.6867-6.6955-1.6867-2.4789-4.5234-2.4789-2.7856 0-4.4722 2.4789-1.6611 2.4534-1.6611 6.6699z"/>
   <path d="m362.62 73.418 0.10222 2.5556q2.53-3.0667 6.6699-3.0667 4.6256 0 6.4654 4.0123 2.6067-4.0123 7.2576-4.0123 7.6414 0 7.8202 9.5321v18.63h-4.4978v-18.196q0-3.0156-1.0734-4.4722-1.0733-1.4823-3.6289-1.4823-2.0445 0-3.3223 1.5844-1.2778 1.5844-1.4822 4.0378v18.528h-4.549v-18.4q-0.0767-5.7501-4.6767-5.7501-3.4245 0-4.83 3.4244v20.726h-4.4978v-27.651z"/>
   <path d="m401.99 73.418 0.10222 2.5556q2.53-3.0667 6.6699-3.0667 4.6256 0 6.4654 4.0123 2.6067-4.0123 7.2576-4.0123 7.6414 0 7.8202 9.5321v18.63h-4.4978v-18.196q0-3.0156-1.0734-4.4722-1.0733-1.4823-3.6289-1.4823-2.0445 0-3.3223 1.5844-1.2778 1.5844-1.4822 4.0378v18.528h-4.549v-18.4q-0.0766-5.7501-4.6767-5.7501-3.4245 0-4.8301 3.4244v20.726h-4.4978v-27.651z"/>
   <path d="m446.97 101.58q-5.1623 0-7.9222-3.0667-2.76-3.0923-2.8111-9.0469v-3.3478q0-6.1846 2.6833-9.6858 2.7089-3.5267 7.5389-3.5267 4.8556 0 7.2576 3.0923 2.4022 3.0923 2.4534 9.6346v2.9645h-15.435v0.63891q0 4.4467 1.6611 6.4654 1.6867 2.0189 4.8301 2.0189 1.9934 0 3.5012-0.74113 1.5334-0.76665 2.8622-2.4022l2.3511 2.8622q-2.9389 4.1401-8.97 4.1401zm-0.51111-24.789q-2.8112 0-4.1656 1.9422-1.3544 1.9167-1.5333 5.9802h10.887v-0.61334q-0.17888-3.9356-1.4311-5.622-1.2267-1.6867-3.7567-1.6867z"/>
   <path d="m473.03 77.659q-0.94557-0.17889-2.0445-0.17889-3.4756 0-4.8556 3.8078v19.78h-4.5234v-27.651h4.3956l0.0767 2.8111q1.8144-3.3223 5.1367-3.3223 1.0734 0 1.7889 0.35778z"/>
   <path d="m486.66 97.722q2.2489 0 3.6034-1.38 1.3545-1.4056 1.4823-3.9867h4.2678q-0.15336 3.9867-2.8367 6.6192-2.6578 2.6067-6.5167 2.6067-5.1367 0-7.8458-3.22-2.6834-3.2456-2.6834-9.6346v-3.0411q0-6.261 2.6834-9.507 2.6834-3.2711 7.8202-3.2711 4.2422 0 6.7211 2.6834 2.5044 2.6834 2.6578 7.3344h-4.2678q-0.15336-3.0667-1.4823-4.6-1.3033-1.5333-3.6289-1.5333-3.0156 0-4.4723 1.9933-1.4566 1.9678-1.5078 6.491v3.5267q0 4.8811 1.4311 6.8999 1.4567 2.0189 4.5745 2.0189z"/>
   <path d="m511.13 101.58q-5.1623 0-7.9222-3.0667-2.76-3.0923-2.8111-9.0469v-3.3478q0-6.1846 2.6833-9.6858 2.7089-3.5267 7.5389-3.5267 4.8556 0 7.2576 3.0923 2.4022 3.0923 2.4534 9.6346v2.9645h-15.435v0.63891q0 4.4467 1.6611 6.4654 1.6867 2.0189 4.8301 2.0189 1.9934 0 3.5012-0.74113 1.5333-0.76665 2.8622-2.4022l2.3511 2.8622q-2.9389 4.1401-8.97 4.1401zm-0.51112-24.789q-2.8112 0-4.1656 1.9422-1.3544 1.9167-1.5334 5.9802h10.887v-0.61334q-0.17888-3.9356-1.4311-5.622-1.2267-1.6867-3.7567-1.6867z"/>
  </g>
  <g class="woographql-text" fill="#9b5c8f" stroke-width=".54519">
   <path d="m232.2 158.54 3.2091-21.278h6.7669l-6.0227 33.858h-6.8601l-3.9532-19.952-3.9067 19.952h-6.8836l-6.0462-33.858h6.8138l3.1859 21.254 3.9765-21.254h5.7436z"/>
   <path d="m244.08 157.73q0-5.7207 2.6975-8.976 2.6975-3.2556 7.4647-3.2556 4.8136 0 7.5111 3.2556 2.6975 3.2556 2.6975 9.0229v1.6046q0 5.7436-2.6743 8.976-2.6743 3.2324-7.4876 3.2324-4.8369 0-7.5345-3.2324-2.6743-3.2556-2.6743-9.0229zm6.6044 1.651q0 6.744 3.6044 6.744 3.3254 0 3.5812-5.6274l0.0233-2.7673q0-3.4417-0.95342-5.0927-0.95343-1.6743-2.6975-1.6743-1.6743 0-2.6278 1.6743-0.9302 1.651-0.9302 5.0927z"/>
   <path d="m267.81 157.73q0-5.7207 2.6975-8.976 2.6975-3.2556 7.4647-3.2556 4.8136 0 7.5111 3.2556 2.6975 3.2556 2.6975 9.0229v1.6046q0 5.7436-2.6743 8.976-2.6743 3.2324-7.4876 3.2324-4.8369 0-7.5345-3.2324-2.6743-3.2556-2.6743-9.0229zm6.6044 1.651q0 6.744 3.6044 6.744 3.3254 0 3.5812-5.6274l0.0232-2.7673q0-3.4417-0.95343-5.0927-0.95343-1.6743-2.6975-1.6743-1.6743 0-2.6278 1.6743-0.93021 1.651-0.93021 5.0927z"/>
   <path d="m315.63 167.29q-1.9766 2.1394-4.8602 3.2324-2.8603 1.0697-6.2784 1.0697-5.8368 0-9.0692-3.6044-3.2324-3.6277-3.3254-10.534v-6.0925q0-6.9997 3.0463-10.767 3.0696-3.7905 8.9297-3.7905 5.5113 0 8.3016 2.7208 2.8138 2.7208 3.2556 8.5344h-6.6508q-0.27905-3.2324-1.3487-4.3951-1.0697-1.186-3.3486-1.186-2.7673 0-4.023 2.0231-1.2557 2.0232-1.3022 6.4414v6.1394q0 4.6276 1.372 6.744 1.3952 2.0929 4.5578 2.0929 2.0232 0 3.2789-0.81391l0.60462-0.41858v-6.2092h-4.7904v-5.1625h11.651z"/>
   <path d="m332.61 152.31-2.1859-0.18603q-2.6975 0-3.6509 2.372v16.627h-6.6044v-25.161h6.2092l0.18604 2.7208q1.558-3.1859 4.302-3.1859 1.1162 0 1.8138 0.3023z"/>
   <path d="m347.31 171.13q-0.27905-0.58134-0.55811-1.9534-1.7673 2.4185-4.7904 2.4185-3.1626 0-5.2555-2.0929-2.0696-2.0929-2.0696-5.4183 0-3.9532 2.5115-6.1159 2.5347-2.1627 7.2788-2.2092h1.9999v-2.0232q0-1.6976-0.58133-2.3952-0.58134-0.69763-1.6976-0.69763-2.465 0-2.465 2.8836h-6.581q0-3.4881 2.6045-5.7436 2.6278-2.279 6.6273-2.279 4.1393 0 6.3951 2.1627 2.2789 2.1394 2.2789 6.1394v11.837q0.0463 3.2556 0.9302 5.0927v0.39532zm-3.8835-4.6974q1.0929 0 1.8604-0.44183t1.1394-1.0464v-5.2322h-1.5813q-1.6743 0-2.651 1.0697-0.95343 1.0697-0.95343 2.8603 0 2.7905 2.1859 2.7905z"/>
   <path d="m377.4 159.33q0 5.93-2.0464 9.0927-2.0232 3.1626-6.0462 3.1626-3.0696 0-4.9299-2.4882v11.697h-6.581v-34.835h6.0925l0.23252 2.3022q1.8836-2.7673 5.1392-2.7673 4.023 0 6.0462 2.9301 2.0464 2.9301 2.0929 8.976zm-6.5576-1.651q0-3.6509-0.81391-5.1625-0.79064-1.5115-2.6976-1.5115-2.0231 0-2.9533 1.6976v11.79q0.8837 1.6278 2.9998 1.6278 1.9534 0 2.6975-1.6511 0.76741-1.651 0.76741-5.1392z"/>
   <path d="m387.81 148.17q2.1394-2.6743 5.2555-2.6743 3.4417 0 5.2322 2.4185 1.7906 2.4185 1.8138 7.209v15.999h-6.6044v-15.929q0-2.2092-0.69762-3.1859-0.6744-0.99994-2.2092-0.99994-1.7906 0-2.7905 1.6511v18.464h-6.581v-35.719h6.581z"/>
   <path d="m428.97 156.82q0 8.3948-4.5346 12.208l4.6741 4.1858-4.3021 3.9532-6.2321-5.6972-1.7906 0.11627q-5.7436 0-8.9994-3.8835-3.2323-3.9067-3.2556-10.79v-5.302q0-6.9762 3.2324-10.883 3.2323-3.93 8.976-3.93 5.6046 0 8.8599 3.7672 3.2556 3.7672 3.3719 10.58zm-6.8601-5.2555q0-4.6276-1.3255-6.8367-1.3255-2.2092-4.0463-2.2092t-4.023 2.1627q-1.3022 2.1394-1.3488 6.5346v5.6046q0 4.6508 1.3255 6.8601 1.3488 2.2092 4.0927 2.2092 2.6743 0 3.9765-2.1859 1.3255-2.2092 1.3488-6.7206z"/>
   <path d="m440.75 165.45h11.999v5.6743h-18.836v-33.858h6.8367z"/>
  </g>
  <g class="for-short-text" stroke-width=".46933">
   <path d="m464.47 166.11 4.2624-13.924h-2.0909l0.64916-2.1205h2.0909l0.56738-1.8536q0.79358-2.4467 2.3974-3.811 1.6233-1.3791 3.8031-1.3791 0.78595 0 1.5095 0.25209l-0.81435 2.2243q-0.52268-0.13346-1.1603-0.13346-2.2391 0-3.215 3.1882l-0.46303 1.5125h2.7433l-0.6491 2.1205h-2.7433l-4.2624 13.924z"/>
   <path d="m475.04 157.34q1.0712-3.4996 3.3836-5.531 2.3317-2.0464 5.1195-2.0464 2.7878 0 3.87 1.9871 1.097 1.987 0.0929 5.4124l-0.51749 1.6905q-1.0667 3.4847-3.3791 5.5162-2.3123 2.0315-5.1298 2.0315-2.7878 0-3.8744-1.9722-1.072-1.9722-0.10086-5.3383zm2.1617 1.5125q-0.75809 2.4764-0.22996 3.9 0.54748 1.4087 2.1934 1.4087 3.4699 0 5.108-5.0121l0.55375-1.8091q0.75356-2.4615 0.2106-3.8851-0.53837-1.4384-2.1843-1.4384-1.6163 0-3.0353 1.4384-1.3996 1.4236-2.1486 3.8703z"/>
   <path d="m498.92 152.52q-0.51689-0.1038-1.1545-0.1038-2.0167 0-3.4938 2.2095l-3.5134 11.477h-2.6247l4.9115-16.044h2.5506l-0.45474 1.6312q1.6429-1.9277 3.5707-1.9277 0.62283 0 0.97442 0.2076z"/>
   <path d="m513.37 162q0.25875-0.84526-0.19277-1.4532-0.45153-0.60799-2.0258-1.4235-1.8527-0.87487-2.5369-1.4977-0.66944-0.62283-0.85884-1.4087-0.18493-0.80077 0.15097-1.8981 0.59921-1.9574 2.4176-3.2475 1.8379-1.3049 4.0622-1.3049 2.3429 0 3.3489 1.3642 1.0059 1.3642 0.3523 3.4996h-2.6099q0.33137-1.0825-0.16372-1.8388-0.49061-0.77111-1.6175-0.77111-1.1566 0-2.0101 0.60799-0.83403 0.59317-1.1427 1.6015-0.24512 0.80072 0.0796 1.2901 0.3396 0.48935 1.9332 1.2901 2.5718 1.1418 3.2886 2.2392 0.7215 1.0825 0.20853 2.7581-0.64 2.0909-2.4642 3.3513-1.8197 1.2456-4.2368 1.2456-2.506 0-3.6228-1.4384-1.1167-1.4384-0.44035-3.6479h2.6395q-0.36397 1.3346 0.17555 2.0908 0.53957 0.75629 1.9335 0.75629 1.305 0 2.1641-0.57834 0.86369-0.59316 1.1678-1.5867z"/>
   <path d="m525.2 151.71q2.0923-1.9426 4.4204-1.9426 4.2558 0 2.5766 5.6792l-3.2637 10.662h-2.6098l3.2274-10.543q0.57648-1.8832 0.17942-2.6691-0.37765-0.80077-1.6381-0.80077-0.97867 0-1.9643 0.65248-0.97082 0.65249-1.7676 1.7053l-3.5678 11.655h-2.6247l6.9724-22.777h2.6247z"/>
   <path d="m534.96 157.34q1.0712-3.4996 3.3836-5.531 2.3317-2.0464 5.1195-2.0464 2.7878 0 3.87 1.9871 1.097 1.987 0.0929 5.4124l-0.51749 1.6905q-1.0667 3.4847-3.379 5.5162-2.3124 2.0315-5.1298 2.0315-2.7878 0-3.8746-1.9722-1.0719-1.9722-0.10081-5.3383zm2.1617 1.5125q-0.75809 2.4764-0.22996 3.9 0.54742 1.4087 2.1934 1.4087 3.4699 0 5.108-5.0121l0.5538-1.8091q0.75351-2.4615 0.21061-3.8851-0.53838-1.4384-2.1844-1.4384-1.6164 0-3.0353 1.4384-1.3997 1.4236-2.1486 3.8703z"/>
   <path d="m558.84 152.52q-0.51689-0.1038-1.1546-0.1038-2.0167 0-3.4937 2.2095l-3.5134 11.477h-2.6247l4.9115-16.044h2.5505l-0.45474 1.6312q1.6429-1.9277 3.5707-1.9277 0.62283 0 0.97448 0.2076z"/>
   <path d="m567.62 146.18-1.1893 3.8851h2.417l-0.64911 2.1205h-2.417l-3.0459 9.9503q-0.29053 0.94901-0.12888 1.4384 0.16159 0.48935 0.91783 0.48935 0.51902 0 1.1073-0.17795l-0.71049 2.2243q-0.98047 0.29658-1.9147 0.29658-1.557 0-2.0321-1.1121-0.47513-1.1121 0.14677-3.1437l3.0504-9.965h-2.4467l0.6491-2.1205h2.4467l1.1893-3.8851z"/>
  </g>
 </g>
</svg>
