<svg id="svg" version="1.1" xmlns="http://www.w3.org/2000/svg" xmlns:xlink="http://www.w3.org/1999/xlink" width="400" height="400" viewBox="0, 0, 400,400"><g id="svgg"><path id="path0" d="M204.343 77.830 C 204.028 77.908,203.165 78.017,202.426 78.073 C 199.415 78.302,195.515 78.909,191.083 79.841 C 189.571 80.159,185.392 81.307,183.833 81.833 C 182.979 82.121,179.571 83.364,179.250 83.504 C 179.067 83.584,178.092 84.000,177.083 84.429 C 174.857 85.376,171.606 86.991,169.601 88.146 C 168.786 88.616,168.099 89.000,168.075 89.000 C 168.051 89.000,167.518 89.320,166.891 89.711 C 150.055 100.198,137.803 116.711,132.668 135.833 C 132.231 137.462,132.025 138.306,131.929 138.858 C 131.794 139.642,131.665 139.731,130.167 140.075 C 128.909 140.364,128.460 140.487,126.167 141.167 C 94.760 150.482,73.213 177.142,70.131 210.500 C 69.796 214.127,69.754 275.649,70.085 277.667 C 71.416 285.777,77.280 291.528,85.290 292.578 C 88.073 292.943,115.945 292.957,118.840 292.594 C 127.623 291.495,133.895 284.846,134.414 276.082 C 134.821 269.226,138.963 264.074,144.810 263.152 C 146.963 262.813,147.552 262.789,148.728 262.994 C 155.432 264.162,159.370 268.625,159.835 275.583 C 160.455 284.840,166.421 291.408,175.281 292.587 C 177.970 292.945,206.120 292.944,208.761 292.586 C 213.454 291.950,218.112 289.466,220.735 286.202 C 221.155 285.678,221.570 285.164,221.656 285.059 C 222.612 283.900,223.809 280.794,224.185 278.500 C 224.521 276.449,224.530 214.644,224.195 212.500 C 222.839 203.831,215.247 197.833,205.632 197.833 C 202.773 197.833,197.799 196.876,193.833 195.562 C 179.025 190.656,167.890 177.716,165.168 162.250 C 163.984 155.525,164.337 150.499,166.550 142.578 C 169.644 131.502,179.275 120.779,190.417 116.005 C 190.875 115.809,191.400 115.584,191.583 115.504 C 193.662 114.605,197.580 113.521,200.583 113.014 C 205.691 112.151,210.622 112.256,215.250 113.326 C 232.211 117.248,244.236 128.725,248.422 144.984 C 249.886 150.672,249.821 148.144,249.836 200.083 C 249.844 225.515,249.916 246.621,249.998 247.500 C 252.252 271.514,269.008 289.220,292.333 292.236 C 298.476 293.030,300.603 293.029,305.667 292.230 C 320.767 289.847,333.881 278.682,340.488 262.583 C 340.564 262.400,340.717 262.025,340.830 261.750 C 341.924 259.083,343.395 253.552,343.845 250.417 C 344.721 244.315,344.384 240.246,342.730 236.953 C 340.838 233.185,336.787 230.100,331.667 228.527 C 329.794 227.951,324.275 227.927,322.780 228.487 C 322.580 228.562,321.967 228.760,321.417 228.928 C 316.483 230.428,312.228 235.263,310.353 241.500 C 310.127 242.253,309.667 245.379,309.667 246.165 C 309.667 246.498,309.515 247.366,309.329 248.094 C 306.070 260.875,287.713 260.805,284.755 248.000 C 284.536 247.051,284.505 241.290,284.502 201.500 C 284.499 154.845,284.464 151.972,283.843 147.583 C 283.292 143.691,283.136 142.681,282.994 142.083 C 282.907 141.717,282.690 140.704,282.512 139.833 C 277.068 113.182,257.081 90.741,231.000 81.997 C 228.678 81.218,227.621 80.914,224.667 80.175 C 221.828 79.465,221.376 79.374,218.083 78.848 C 216.110 78.533,214.853 78.364,211.583 77.978 C 209.504 77.732,205.109 77.642,204.343 77.830 M204.000 138.090 C 194.928 139.661,189.191 148.330,190.659 158.250 C 190.862 159.622,190.912 159.822,191.508 161.667 C 195.620 174.391,213.966 176.473,221.091 165.023 C 221.499 164.367,221.833 163.794,221.833 163.748 C 221.833 163.702,222.022 163.275,222.252 162.798 C 223.219 160.794,223.833 157.762,223.833 155.000 C 223.833 143.731,214.987 136.188,204.000 138.090 M133.229 176.000 C 137.507 191.957,148.745 207.872,162.784 217.854 C 168.555 221.957,172.621 224.144,180.417 227.337 C 180.987 227.570,184.540 228.781,185.417 229.040 C 185.875 229.176,186.700 229.414,187.250 229.569 C 187.800 229.724,188.588 229.950,189.000 230.071 L 189.750 230.290 189.793 242.594 C 189.836 255.158,189.806 255.778,189.212 254.562 C 183.492 242.851,171.683 233.551,158.583 230.438 C 153.939 229.335,152.039 229.117,147.083 229.119 C 131.279 229.126,116.594 236.732,108.291 249.209 C 107.041 251.089,105.631 253.435,105.240 254.287 C 104.490 255.922,104.500 256.188,104.500 234.941 C 104.500 212.715,104.538 211.616,105.454 207.167 C 107.422 197.602,112.518 188.954,119.833 182.760 C 123.125 179.973,127.105 177.544,131.083 175.894 C 132.723 175.214,133.022 175.229,133.229 176.000 " stroke="none" fill="#f3931c" fill-rule="evenodd"></path><path id="path1" d="M194.750 25.920 C 194.475 25.951,192.487 26.059,190.333 26.161 C 183.625 26.476,175.448 27.341,169.833 28.329 C 168.871 28.499,167.371 28.762,166.500 28.914 C 165.629 29.066,164.279 29.327,163.500 29.496 C 162.721 29.664,161.483 29.924,160.750 30.073 C 159.103 30.409,156.861 30.939,155.735 31.259 C 155.269 31.392,154.781 31.499,154.652 31.498 C 154.523 31.496,153.929 31.640,153.333 31.817 C 152.737 31.995,151.837 32.248,151.333 32.381 C 149.578 32.844,146.078 33.866,145.250 34.156 C 144.792 34.317,143.967 34.582,143.417 34.745 C 142.867 34.907,142.117 35.151,141.750 35.286 C 141.383 35.421,140.446 35.743,139.667 36.003 C 138.887 36.262,137.837 36.635,137.333 36.833 C 136.829 37.030,136.229 37.252,136.000 37.326 C 135.771 37.400,135.246 37.589,134.833 37.745 C 134.421 37.901,133.821 38.127,133.500 38.248 C 132.204 38.733,124.605 41.955,123.667 42.416 C 123.438 42.529,122.650 42.901,121.917 43.244 C 120.339 43.982,115.071 46.625,114.000 47.216 C 113.587 47.443,112.575 47.984,111.750 48.418 C 110.925 48.851,110.138 49.293,110.000 49.400 C 109.862 49.507,109.412 49.771,109.000 49.988 C 108.587 50.205,108.138 50.468,108.000 50.572 C 107.862 50.676,107.412 50.938,107.000 51.155 C 106.587 51.372,106.138 51.639,106.000 51.749 C 105.862 51.859,105.638 51.999,105.500 52.060 C 105.362 52.121,105.050 52.301,104.806 52.460 C 104.562 52.620,104.000 52.969,103.556 53.237 C 103.113 53.505,101.775 54.367,100.583 55.153 C 99.392 55.939,98.342 56.612,98.250 56.650 C 97.988 56.758,96.923 57.570,96.861 57.708 C 96.831 57.777,96.736 57.833,96.652 57.833 C 96.475 57.833,92.939 60.328,91.333 61.586 C 90.737 62.053,89.763 62.782,89.167 63.205 C 88.571 63.628,87.933 64.112,87.750 64.281 C 87.567 64.449,87.079 64.848,86.667 65.168 C 86.255 65.488,85.768 65.874,85.584 66.025 C 82.607 68.481,81.852 69.109,81.500 69.426 C 81.271 69.631,80.333 70.458,79.417 71.263 C 76.760 73.596,76.162 74.155,72.729 77.518 C 69.513 80.667,66.876 83.439,64.265 86.417 C 63.461 87.333,62.601 88.308,62.353 88.583 C 62.106 88.858,61.570 89.496,61.162 90.000 C 60.755 90.504,60.380 90.954,60.329 91.000 C 60.278 91.046,59.641 91.833,58.914 92.750 C 58.187 93.667,57.549 94.454,57.497 94.500 C 57.383 94.600,53.549 99.717,53.080 100.394 C 52.899 100.656,52.525 101.191,52.250 101.581 C 51.509 102.634,48.776 106.643,48.583 106.959 C 48.492 107.110,48.173 107.593,47.875 108.032 C 47.577 108.471,47.333 108.862,47.333 108.901 C 47.333 108.940,46.808 109.799,46.167 110.810 C 45.525 111.821,45.000 112.703,45.000 112.769 C 45.000 112.836,44.898 113.009,44.773 113.154 C 44.649 113.298,44.321 113.829,44.045 114.333 C 43.769 114.837,43.241 115.779,42.871 116.425 C 41.835 118.235,41.210 119.393,39.971 121.797 C 39.343 123.014,38.757 124.139,38.668 124.297 C 38.062 125.367,35.449 131.172,33.662 135.417 C 33.585 135.600,33.359 136.125,33.161 136.583 C 32.962 137.042,32.738 137.604,32.662 137.833 C 32.587 138.063,32.365 138.662,32.169 139.167 C 31.569 140.710,30.501 143.674,30.007 145.167 C 29.749 145.946,29.464 146.771,29.374 147.000 C 29.284 147.229,29.077 147.867,28.914 148.417 C 28.752 148.967,28.488 149.829,28.327 150.333 C 27.957 151.498,26.943 155.085,26.585 156.500 C 26.434 157.096,26.169 158.108,25.996 158.750 C 25.824 159.392,25.558 160.479,25.405 161.167 C 25.253 161.854,24.992 163.017,24.826 163.750 C 24.659 164.483,24.409 165.683,24.269 166.417 C 24.129 167.150,23.865 168.537,23.681 169.500 C 23.086 172.617,22.277 178.236,21.928 181.667 C 21.142 189.400,21.083 190.679,21.083 200.000 C 21.083 209.321,21.142 210.600,21.928 218.333 C 22.277 221.764,23.086 227.383,23.681 230.500 C 23.865 231.463,24.129 232.850,24.269 233.583 C 24.409 234.317,24.659 235.517,24.825 236.250 C 24.991 236.983,25.257 238.183,25.416 238.917 C 25.575 239.650,25.846 240.696,26.019 241.241 C 26.192 241.786,26.333 242.358,26.333 242.513 C 26.333 242.668,26.439 243.160,26.568 243.606 C 26.697 244.052,26.969 245.017,27.172 245.750 C 27.562 247.157,27.857 248.160,28.326 249.667 C 28.483 250.171,28.745 251.033,28.909 251.583 C 29.073 252.133,29.317 252.883,29.452 253.249 C 29.587 253.616,29.872 254.441,30.087 255.083 C 30.530 256.409,31.637 259.467,32.169 260.833 C 32.365 261.337,32.585 261.938,32.659 262.167 C 32.732 262.396,32.922 262.883,33.081 263.250 C 33.392 263.968,33.577 264.406,34.167 265.833 C 34.629 266.952,34.821 267.389,35.577 269.037 C 35.901 269.745,36.167 270.362,36.167 270.408 C 36.167 270.498,38.400 275.228,38.670 275.708 C 38.827 275.988,38.996 276.319,39.314 276.966 C 39.761 277.878,41.721 281.609,41.827 281.750 C 41.896 281.842,42.176 282.329,42.450 282.833 C 42.723 283.337,43.353 284.448,43.849 285.302 C 44.344 286.155,44.976 287.243,45.253 287.718 C 45.979 288.969,46.633 290.022,47.609 291.512 C 48.082 292.233,48.495 292.882,48.526 292.953 C 48.558 293.025,49.034 293.748,49.584 294.561 C 50.133 295.373,50.696 296.213,50.833 296.427 C 51.603 297.624,55.078 302.431,55.344 302.667 C 55.396 302.712,55.878 303.350,56.417 304.083 C 56.955 304.817,57.475 305.504,57.573 305.611 C 57.670 305.717,57.938 306.051,58.167 306.351 C 58.838 307.232,61.846 310.883,62.231 311.284 C 62.425 311.486,62.659 311.748,62.751 311.867 C 65.302 315.164,74.441 324.423,79.500 328.837 C 80.371 329.596,81.121 330.263,81.167 330.318 C 81.315 330.496,84.206 332.887,85.580 333.969 C 86.315 334.547,87.104 335.189,87.333 335.396 C 87.563 335.602,88.200 336.103,88.750 336.509 C 89.300 336.916,89.787 337.290,89.833 337.342 C 90.563 338.163,101.473 345.597,104.865 347.583 C 105.021 347.675,106.634 348.620,108.450 349.683 C 116.243 354.248,126.100 358.982,133.917 361.913 C 134.558 362.154,135.233 362.415,135.417 362.493 C 136.394 362.908,139.444 363.984,141.417 364.610 C 142.150 364.843,143.125 365.167,143.583 365.330 C 144.042 365.493,144.867 365.761,145.417 365.924 C 145.967 366.088,146.829 366.352,147.333 366.511 C 147.837 366.670,148.737 366.929,149.333 367.087 C 149.929 367.244,150.867 367.507,151.417 367.671 C 151.967 367.835,152.942 368.095,153.583 368.248 C 154.225 368.402,155.350 368.678,156.083 368.862 C 156.817 369.046,157.829 369.296,158.333 369.417 C 160.901 370.037,167.271 371.291,170.083 371.730 C 190.822 374.974,209.128 374.974,229.917 371.731 C 232.091 371.392,236.465 370.563,239.167 369.977 C 241.270 369.522,242.325 369.269,243.871 368.849 C 244.580 368.657,245.286 368.500,245.440 368.500 C 245.594 368.500,246.140 368.378,246.652 368.228 C 247.164 368.078,248.033 367.825,248.583 367.664 C 249.133 367.504,250.071 367.244,250.667 367.087 C 251.262 366.929,252.162 366.670,252.667 366.511 C 253.171 366.352,253.996 366.098,254.500 365.947 C 257.720 364.979,263.446 362.987,266.333 361.831 C 266.746 361.665,267.496 361.369,268.000 361.173 C 268.504 360.976,269.067 360.749,269.250 360.668 C 269.433 360.588,270.408 360.175,271.417 359.752 C 272.425 359.329,273.400 358.915,273.583 358.833 C 277.725 356.981,278.680 356.529,282.076 354.817 C 286.695 352.490,287.885 351.846,291.551 349.691 C 293.367 348.623,294.981 347.675,295.137 347.583 C 298.563 345.575,307.867 339.241,310.250 337.294 C 310.342 337.219,310.841 336.835,311.359 336.440 C 311.877 336.046,312.418 335.617,312.561 335.487 C 312.852 335.223,312.933 335.158,314.000 334.336 C 314.412 334.019,314.787 333.719,314.833 333.671 C 314.879 333.623,315.292 333.286,315.750 332.922 C 316.208 332.559,316.621 332.220,316.667 332.169 C 316.712 332.118,317.200 331.703,317.750 331.246 C 318.300 330.790,318.787 330.372,318.833 330.317 C 318.879 330.263,319.629 329.596,320.500 328.835 C 325.387 324.567,331.419 318.539,335.762 313.583 C 336.485 312.758,337.124 312.046,337.181 312.000 C 337.239 311.954,337.686 311.429,338.176 310.833 C 338.665 310.237,339.110 309.712,339.165 309.667 C 339.242 309.602,341.294 307.048,342.044 306.083 C 342.115 305.992,342.364 305.692,342.598 305.417 C 342.831 305.142,343.256 304.579,343.542 304.167 C 343.827 303.754,344.194 303.267,344.356 303.083 C 344.836 302.542,345.951 301.023,348.087 298.000 C 349.117 296.543,352.167 291.986,352.167 291.904 C 352.167 291.863,352.429 291.456,352.750 291.000 C 353.071 290.544,353.333 290.125,353.333 290.069 C 353.333 290.014,353.475 289.769,353.649 289.525 C 354.328 288.571,357.596 282.877,359.305 279.669 C 360.674 277.100,363.833 270.649,363.833 270.423 C 363.833 270.357,364.361 269.175,365.249 267.250 C 365.376 266.975,365.641 266.337,365.838 265.833 C 366.034 265.329,366.256 264.799,366.330 264.655 C 366.405 264.511,366.665 263.873,366.909 263.238 C 367.154 262.603,367.491 261.746,367.659 261.333 C 367.827 260.921,368.076 260.283,368.211 259.917 C 368.347 259.550,368.612 258.837,368.801 258.333 C 369.595 256.212,370.571 253.301,371.401 250.583 C 371.737 249.483,372.150 248.133,372.319 247.583 C 372.678 246.415,372.986 245.296,373.491 243.333 C 374.470 239.522,374.888 237.774,375.244 236.000 C 375.401 235.221,375.665 233.946,375.831 233.167 C 377.052 227.457,378.207 218.584,378.750 210.750 C 379.093 205.804,379.093 194.196,378.750 189.250 C 378.208 181.425,377.060 172.607,375.833 166.833 C 375.668 166.054,375.410 164.817,375.260 164.083 C 374.924 162.436,374.394 160.195,374.074 159.069 C 373.942 158.602,373.833 158.117,373.833 157.990 C 373.833 157.863,373.690 157.270,373.515 156.671 C 373.339 156.073,373.069 155.096,372.913 154.500 C 372.758 153.904,372.491 152.967,372.321 152.417 C 372.151 151.867,371.737 150.517,371.401 149.417 C 370.556 146.649,370.465 146.381,368.430 140.667 C 368.185 139.979,367.843 139.079,367.669 138.667 C 367.495 138.254,367.154 137.397,366.909 136.762 C 366.665 136.127,366.406 135.489,366.334 135.345 C 366.261 135.201,365.921 134.408,365.577 133.583 C 365.234 132.758,364.701 131.537,364.393 130.869 C 364.085 130.201,363.833 129.619,363.833 129.577 C 363.833 129.357,360.630 122.830,359.325 120.392 C 356.500 115.112,353.514 110.079,350.849 106.109 C 350.428 105.481,350.008 104.847,349.917 104.700 C 348.737 102.809,344.510 96.995,342.503 94.500 C 342.245 94.179,341.529 93.279,340.913 92.500 C 335.664 85.863,326.939 76.749,320.500 71.177 C 319.629 70.424,318.692 69.601,318.417 69.349 C 317.806 68.790,314.365 65.957,313.333 65.165 C 312.921 64.848,312.508 64.505,312.417 64.402 C 312.325 64.300,311.950 63.999,311.583 63.733 C 310.940 63.267,310.801 63.159,310.263 62.708 C 310.126 62.594,309.942 62.500,309.854 62.500 C 309.766 62.500,309.669 62.441,309.639 62.370 C 309.517 62.084,303.609 57.833,303.334 57.833 C 303.242 57.833,303.167 57.775,303.167 57.703 C 303.167 57.631,302.932 57.424,302.646 57.244 C 302.360 57.064,301.954 56.804,301.745 56.667 C 299.366 55.105,295.362 52.535,295.167 52.445 C 295.029 52.382,294.692 52.183,294.417 52.003 C 294.142 51.823,293.617 51.508,293.250 51.302 C 292.883 51.096,292.457 50.851,292.304 50.756 C 291.278 50.123,289.224 48.939,288.167 48.370 C 287.479 48.000,286.354 47.393,285.667 47.020 C 281.728 44.886,274.159 41.348,269.250 39.346 C 267.977 38.827,267.161 38.502,266.583 38.283 C 266.217 38.144,265.317 37.801,264.583 37.521 C 263.850 37.241,262.912 36.894,262.500 36.749 C 258.782 35.445,257.850 35.126,257.417 35.008 C 257.142 34.933,256.204 34.636,255.333 34.349 C 254.463 34.062,253.375 33.717,252.917 33.584 C 252.458 33.450,251.596 33.198,251.000 33.023 C 250.404 32.849,249.429 32.578,248.833 32.422 C 248.237 32.265,247.280 31.994,246.705 31.819 C 246.130 31.643,245.537 31.500,245.386 31.500 C 245.236 31.500,244.731 31.392,244.265 31.259 C 243.139 30.939,240.897 30.409,239.250 30.073 C 238.517 29.924,237.279 29.664,236.500 29.496 C 235.721 29.327,234.371 29.066,233.500 28.914 C 232.629 28.762,231.129 28.498,230.167 28.328 C 225.121 27.435,217.269 26.576,210.333 26.159 C 207.375 25.981,195.786 25.803,194.750 25.920 M210.750 77.759 C 216.471 78.316,216.707 78.347,220.333 79.036 C 223.069 79.555,225.051 80.002,226.500 80.426 C 227.004 80.573,227.604 80.736,227.833 80.786 C 228.063 80.837,228.325 80.933,228.417 81.001 C 228.508 81.068,228.883 81.177,229.250 81.243 C 229.617 81.309,229.992 81.421,230.083 81.492 C 230.175 81.563,230.475 81.671,230.750 81.733 C 231.199 81.834,231.761 82.030,233.667 82.751 C 234.293 82.988,236.609 83.926,237.830 84.437 C 247.331 88.414,258.713 96.895,265.583 105.117 C 266.317 105.995,266.996 106.796,267.092 106.898 C 268.169 108.034,272.809 114.846,273.918 116.917 C 274.261 117.558,274.603 118.160,274.676 118.253 C 274.900 118.536,277.094 122.997,277.667 124.333 C 277.962 125.021,278.304 125.808,278.427 126.083 C 279.602 128.708,281.398 134.205,282.241 137.750 C 282.480 138.758,282.749 139.883,282.838 140.250 C 282.926 140.617,283.082 141.404,283.183 142.000 C 283.284 142.596,283.424 143.421,283.495 143.833 C 283.565 144.246,283.713 145.296,283.822 146.167 C 283.932 147.037,284.109 148.162,284.217 148.667 C 284.362 149.349,284.437 161.938,284.511 198.000 C 284.583 233.249,284.662 246.696,284.800 247.443 C 286.315 255.593,294.835 259.755,302.631 256.152 C 306.552 254.340,308.911 250.790,309.490 245.833 C 310.039 241.124,310.462 239.765,312.414 236.430 C 315.103 231.837,318.026 229.573,323.000 228.231 C 324.562 227.809,329.788 227.806,331.333 228.225 C 333.686 228.864,334.467 229.220,337.083 230.849 C 342.436 234.180,344.411 237.903,344.415 244.667 C 344.417 248.144,344.349 248.884,343.724 252.250 C 340.633 268.888,329.280 283.799,315.250 289.647 C 313.338 290.444,313.333 290.447,312.417 290.752 C 311.958 290.905,311.468 291.089,311.327 291.161 C 311.186 291.233,310.739 291.348,310.333 291.417 C 309.928 291.485,309.481 291.600,309.340 291.672 C 309.199 291.745,308.446 291.927,307.667 292.077 C 306.887 292.228,305.875 292.434,305.417 292.535 C 304.256 292.790,295.915 292.904,294.167 292.688 C 292.064 292.429,290.565 292.199,289.167 291.922 C 286.241 291.343,285.689 291.197,282.333 290.118 C 279.695 289.270,275.961 287.568,273.667 286.168 C 272.979 285.748,272.053 285.183,271.609 284.911 C 271.165 284.639,270.415 284.135,269.943 283.791 C 269.470 283.448,268.902 283.035,268.681 282.875 C 264.383 279.763,258.922 273.515,256.322 268.734 C 254.742 265.830,253.589 263.349,252.920 261.417 C 252.761 260.958,252.565 260.433,252.484 260.250 C 252.124 259.438,250.977 255.058,250.606 253.083 C 250.383 251.892,250.100 250.429,249.979 249.833 C 249.800 248.955,249.740 239.704,249.662 200.917 C 249.566 153.007,249.527 149.956,248.995 148.700 C 248.906 148.490,248.833 148.136,248.833 147.915 C 248.833 146.897,247.259 141.333,246.428 139.417 C 246.309 139.142,246.107 138.659,245.981 138.344 C 242.287 129.173,233.034 119.963,223.749 116.215 C 222.130 115.562,220.014 114.769,219.583 114.654 C 219.308 114.581,218.371 114.323,217.500 114.082 C 214.982 113.385,212.965 113.062,208.792 112.688 C 203.861 112.247,194.445 114.069,190.308 116.265 C 190.064 116.394,189.752 116.500,189.613 116.500 C 189.475 116.500,189.336 116.556,189.306 116.625 C 189.275 116.694,188.433 117.162,187.435 117.667 C 179.820 121.514,173.054 128.559,169.108 136.750 C 168.578 137.850,168.075 138.880,167.989 139.039 C 167.903 139.199,167.833 139.412,167.833 139.514 C 167.833 139.616,167.728 139.936,167.600 140.225 C 164.674 146.806,163.929 156.905,165.816 164.417 C 166.001 165.150,166.236 166.087,166.340 166.500 C 166.444 166.912,166.594 167.400,166.674 167.583 C 166.755 167.767,166.943 168.329,167.092 168.833 C 167.241 169.337,167.427 169.900,167.506 170.083 C 167.584 170.267,167.803 170.769,167.991 171.199 C 168.179 171.630,168.333 172.023,168.333 172.073 C 168.333 172.192,169.852 175.246,170.286 176.000 C 171.200 177.588,171.481 178.027,172.474 179.417 C 174.347 182.036,175.129 182.964,177.250 185.083 C 179.595 187.426,181.403 188.903,183.917 190.531 C 185.099 191.297,188.289 193.167,188.413 193.167 C 188.450 193.167,189.118 193.467,189.897 193.833 C 190.676 194.200,191.426 194.500,191.563 194.500 C 191.701 194.500,191.856 194.569,191.909 194.654 C 191.961 194.738,192.244 194.860,192.538 194.925 C 192.832 194.990,193.187 195.106,193.328 195.183 C 195.321 196.281,201.805 197.453,207.987 197.833 C 209.400 197.919,210.634 198.067,210.728 198.162 C 210.823 198.256,211.070 198.333,211.278 198.333 C 213.130 198.333,216.962 200.628,219.760 203.414 C 222.565 206.205,223.816 208.721,224.429 212.803 C 224.739 214.870,224.788 275.871,224.481 277.872 C 223.663 283.201,221.411 286.717,216.916 289.682 C 214.766 291.100,213.442 291.727,211.250 292.363 L 209.917 292.750 192.083 292.750 C 177.809 292.750,174.100 292.706,173.500 292.530 C 170.399 291.621,169.095 291.048,167.417 289.858 C 165.391 288.421,162.626 285.495,162.202 284.340 C 162.150 284.199,162.063 284.046,162.009 284.000 C 161.065 283.199,159.916 279.093,159.678 275.667 C 159.447 272.355,158.966 270.852,157.367 268.452 C 152.086 260.522,139.580 261.756,135.771 270.583 C 135.613 270.950,135.421 271.366,135.345 271.507 C 135.086 271.989,134.685 274.578,134.599 276.333 C 134.382 280.746,132.263 285.052,128.588 288.547 C 126.444 290.587,123.724 291.930,120.417 292.582 C 118.727 292.915,84.236 292.895,83.500 292.561 C 83.271 292.457,82.633 292.245,82.083 292.091 C 76.784 290.602,72.292 285.986,70.398 280.083 L 69.917 278.583 69.917 244.167 C 69.918 206.846,69.852 210.014,70.747 204.167 C 71.152 201.514,71.949 197.647,72.326 196.500 C 72.401 196.271,72.594 195.596,72.755 195.000 C 73.075 193.815,74.256 190.116,74.484 189.583 C 74.563 189.400,74.834 188.688,75.086 188.000 C 75.339 187.313,75.731 186.338,75.957 185.833 C 76.184 185.329,76.505 184.579,76.671 184.167 C 76.838 183.754,77.167 183.042,77.403 182.583 C 77.639 182.125,77.832 181.662,77.833 181.556 C 77.833 181.449,77.890 181.336,77.958 181.306 C 78.027 181.275,78.341 180.725,78.656 180.083 C 78.971 179.442,79.590 178.287,80.031 177.518 C 80.472 176.748,80.833 176.055,80.833 175.976 C 80.833 175.898,80.896 175.833,80.973 175.833 C 81.050 175.833,81.206 175.627,81.319 175.375 C 81.484 175.007,84.036 171.081,84.542 170.417 C 84.612 170.325,85.209 169.537,85.868 168.667 C 89.999 163.213,96.954 156.319,101.338 153.333 C 101.540 153.196,102.015 152.851,102.394 152.567 C 104.508 150.982,111.005 147.000,111.476 147.000 C 111.581 147.000,111.667 146.925,111.667 146.833 C 111.667 146.742,111.747 146.667,111.846 146.667 C 111.944 146.667,112.750 146.302,113.637 145.857 C 115.055 145.145,116.192 144.630,118.333 143.729 C 118.654 143.594,119.047 143.412,119.206 143.325 C 119.365 143.238,119.590 143.166,119.706 143.166 C 119.822 143.165,120.127 143.055,120.383 142.921 C 120.640 142.787,121.090 142.607,121.383 142.521 C 121.677 142.434,122.442 142.177,123.083 141.948 C 124.110 141.582,126.615 140.809,128.333 140.328 C 129.057 140.125,130.234 139.844,130.985 139.695 C 131.543 139.585,131.559 139.558,131.881 138.166 C 132.061 137.387,132.269 136.600,132.344 136.417 C 132.419 136.233,132.530 135.821,132.590 135.500 C 132.875 133.983,134.886 128.063,135.902 125.750 C 136.023 125.475,136.226 124.991,136.353 124.675 C 136.912 123.282,139.875 117.574,140.977 115.769 C 149.700 101.472,161.107 91.449,176.750 84.336 C 177.855 83.833,180.921 82.655,182.583 82.095 C 183.317 81.847,184.047 81.575,184.206 81.489 C 184.365 81.403,184.599 81.333,184.726 81.333 C 184.853 81.333,185.435 81.180,186.020 80.993 C 193.544 78.587,204.510 77.153,210.750 77.759 M211.917 138.175 C 212.658 138.393,212.787 138.441,214.338 139.067 C 217.808 140.468,222.646 145.566,222.665 147.842 C 222.666 147.984,222.735 148.171,222.818 148.258 C 224.299 149.810,224.306 158.429,222.829 161.917 C 220.690 166.967,216.701 170.921,212.905 171.752 C 212.636 171.811,212.267 171.923,212.083 172.002 C 209.553 173.083,203.483 172.771,200.167 171.388 C 195.624 169.495,191.673 164.744,190.904 160.250 C 190.841 159.883,190.713 159.487,190.619 159.368 C 190.378 159.065,190.264 153.639,190.471 152.333 C 190.690 150.956,190.978 149.678,191.166 149.250 C 191.246 149.067,191.365 148.729,191.429 148.500 C 192.081 146.175,194.415 142.925,196.845 140.959 C 197.617 140.334,200.729 138.667,201.123 138.667 C 201.241 138.667,201.468 138.599,201.627 138.516 C 203.369 137.611,209.334 137.413,211.917 138.175 M131.917 175.762 C 131.171 176.029,131.220 176.007,128.919 177.103 C 116.305 183.112,107.385 195.300,105.269 209.417 C 104.663 213.459,104.641 214.443,104.696 234.750 L 104.750 254.750 105.492 253.417 C 106.478 251.645,108.082 249.077,108.719 248.250 C 116.474 238.193,124.681 232.830,136.750 229.935 C 142.481 228.560,151.266 228.522,157.000 229.847 C 159.709 230.473,160.594 230.712,162.333 231.287 C 164.236 231.916,164.299 231.940,166.750 233.012 C 175.827 236.980,183.791 244.325,188.786 253.333 L 189.664 254.917 189.624 242.667 L 189.583 230.417 188.833 230.199 C 188.421 230.079,187.671 229.871,187.167 229.736 C 185.509 229.293,181.030 227.799,179.374 227.138 C 159.079 219.029,143.401 203.284,135.424 183.000 C 135.082 182.129,134.743 181.302,134.672 181.161 C 134.601 181.021,134.486 180.648,134.417 180.333 C 134.348 180.019,134.230 179.646,134.156 179.505 C 133.923 179.062,133.191 176.777,133.075 176.125 C 132.952 175.437,132.885 175.416,131.917 175.762 " stroke="none" fill="#0c233b" fill-rule="evenodd"></path><path id="path2" d="M206.542 77.623 C 206.977 77.657,207.690 77.657,208.125 77.623 C 208.560 77.588,208.204 77.560,207.333 77.560 C 206.463 77.560,206.106 77.588,206.542 77.623 M201.877 77.953 C 202.131 77.991,202.506 77.990,202.711 77.951 C 202.916 77.911,202.708 77.880,202.250 77.881 C 201.792 77.882,201.624 77.915,201.877 77.953 M211.877 77.953 C 212.131 77.991,212.506 77.990,212.711 77.951 C 212.916 77.911,212.708 77.880,212.250 77.881 C 211.792 77.882,211.624 77.915,211.877 77.953 M197.794 78.451 C 198.001 78.491,198.301 78.490,198.460 78.448 C 198.620 78.406,198.450 78.374,198.083 78.375 C 197.717 78.377,197.586 78.411,197.794 78.451 M216.127 78.451 C 216.334 78.491,216.634 78.490,216.794 78.448 C 216.953 78.406,216.783 78.374,216.417 78.375 C 216.050 78.377,215.920 78.411,216.127 78.451 M152.583 100.833 C 151.486 101.933,150.626 102.833,150.672 102.833 C 150.718 102.833,151.653 101.933,152.750 100.833 C 153.847 99.733,154.707 98.833,154.661 98.833 C 154.616 98.833,153.680 99.733,152.583 100.833 M263.000 102.385 C 263.000 102.414,263.244 102.658,263.542 102.927 L 264.083 103.417 263.594 102.875 C 263.138 102.370,263.000 102.257,263.000 102.385 M205.458 112.618 C 205.665 112.657,206.002 112.657,206.208 112.618 C 206.415 112.578,206.246 112.545,205.833 112.545 C 205.421 112.545,205.252 112.578,205.458 112.618 M207.792 112.618 C 207.998 112.657,208.335 112.657,208.542 112.618 C 208.748 112.578,208.579 112.545,208.167 112.545 C 207.754 112.545,207.585 112.578,207.792 112.618 M203.461 112.787 C 203.761 112.825,204.211 112.824,204.461 112.786 C 204.712 112.748,204.467 112.717,203.917 112.718 C 203.367 112.719,203.162 112.750,203.461 112.787 M209.628 112.787 C 209.928 112.825,210.378 112.824,210.628 112.786 C 210.878 112.748,210.633 112.717,210.083 112.718 C 209.533 112.719,209.328 112.750,209.628 112.787 M200.333 113.167 C 199.990 113.277,199.975 113.303,200.250 113.314 C 200.433 113.322,200.696 113.256,200.833 113.167 C 201.125 112.978,200.923 112.978,200.333 113.167 M235.833 124.083 C 236.144 124.404,236.436 124.667,236.482 124.667 C 236.528 124.667,236.311 124.404,236.000 124.083 C 235.689 123.763,235.397 123.500,235.351 123.500 C 235.305 123.500,235.522 123.763,235.833 124.083 M238.000 126.250 C 238.311 126.571,238.603 126.833,238.649 126.833 C 238.695 126.833,238.478 126.571,238.167 126.250 C 237.856 125.929,237.564 125.667,237.518 125.667 C 237.472 125.667,237.689 125.929,238.000 126.250 M195.240 142.375 L 194.750 142.917 195.292 142.427 C 195.797 141.971,195.910 141.833,195.781 141.833 C 195.752 141.833,195.509 142.077,195.240 142.375 M248.836 148.097 C 248.837 148.273,248.915 148.529,249.008 148.667 C 249.131 148.849,249.147 148.782,249.065 148.417 C 248.928 147.804,248.832 147.671,248.836 148.097 M284.212 149.833 C 284.212 150.246,284.245 150.415,284.284 150.208 C 284.324 150.002,284.324 149.665,284.284 149.458 C 284.245 149.252,284.212 149.421,284.212 149.833 M249.383 151.667 C 249.383 152.171,249.415 152.377,249.453 152.125 C 249.491 151.873,249.491 151.460,249.453 151.208 C 249.415 150.956,249.383 151.162,249.383 151.667 M284.372 152.167 C 284.372 152.487,284.406 152.619,284.448 152.458 C 284.490 152.298,284.490 152.035,284.448 151.875 C 284.406 151.715,284.372 151.846,284.372 152.167 M100.551 153.929 L 100.083 154.358 100.625 153.981 C 100.923 153.774,101.167 153.581,101.167 153.552 C 101.167 153.420,100.982 153.533,100.551 153.929 M94.906 158.708 L 94.417 159.250 94.958 158.760 C 95.256 158.491,95.500 158.248,95.500 158.219 C 95.500 158.090,95.362 158.203,94.906 158.708 M90.575 163.042 L 89.917 163.750 90.625 163.091 C 91.015 162.729,91.333 162.410,91.333 162.383 C 91.333 162.257,91.188 162.383,90.575 163.042 M195.160 168.042 C 195.850 168.778,196.000 168.910,196.000 168.785 C 196.000 168.758,195.644 168.402,195.208 167.993 L 194.417 167.250 195.160 168.042 M208.375 172.615 C 208.535 172.657,208.798 172.657,208.958 172.615 C 209.119 172.573,208.987 172.539,208.667 172.539 C 208.346 172.539,208.215 172.573,208.375 172.615 M115.742 186.875 L 115.083 187.583 115.792 186.925 C 116.450 186.312,116.577 186.167,116.450 186.167 C 116.423 186.167,116.105 186.485,115.742 186.875 M204.127 197.618 C 204.334 197.658,204.634 197.656,204.794 197.615 C 204.953 197.573,204.783 197.540,204.417 197.542 C 204.050 197.544,203.920 197.578,204.127 197.618 M150.000 206.719 C 150.000 206.748,150.244 206.991,150.542 207.260 L 151.083 207.750 150.594 207.208 C 150.138 206.703,150.000 206.590,150.000 206.719 M152.667 209.583 C 153.442 210.362,154.113 211.000,154.159 211.000 C 154.205 211.000,153.608 210.362,152.833 209.583 C 152.058 208.804,151.387 208.167,151.341 208.167 C 151.295 208.167,151.892 208.804,152.667 209.583 M70.042 209.583 C 70.044 209.950,70.078 210.080,70.118 209.873 C 70.158 209.666,70.156 209.366,70.115 209.206 C 70.073 209.047,70.040 209.217,70.042 209.583 M69.875 211.417 C 69.877 211.783,69.911 211.914,69.951 211.706 C 69.991 211.499,69.990 211.199,69.948 211.040 C 69.906 210.880,69.874 211.050,69.875 211.417 M224.539 214.333 C 224.539 214.654,224.573 214.785,224.615 214.625 C 224.657 214.465,224.657 214.202,224.615 214.042 C 224.573 213.881,224.539 214.012,224.539 214.333 M144.211 228.953 C 144.464 228.991,144.839 228.990,145.044 228.951 C 145.249 228.911,145.042 228.880,144.583 228.881 C 144.125 228.882,143.957 228.915,144.211 228.953 M149.211 228.953 C 149.464 228.991,149.839 228.990,150.044 228.951 C 150.249 228.911,150.042 228.880,149.583 228.881 C 149.125 228.882,148.957 228.915,149.211 228.953 M142.211 229.120 C 142.464 229.158,142.839 229.157,143.044 229.117 C 143.249 229.078,143.042 229.046,142.583 229.048 C 142.125 229.049,141.957 229.081,142.211 229.120 M151.292 229.118 C 151.498 229.157,151.835 229.157,152.042 229.118 C 152.248 229.078,152.079 229.045,151.667 229.045 C 151.254 229.045,151.085 229.078,151.292 229.118 M315.244 232.542 L 314.417 233.417 315.292 232.590 C 315.773 232.135,316.167 231.741,316.167 231.715 C 316.167 231.590,316.012 231.729,315.244 232.542 M113.412 242.708 L 112.250 243.917 113.458 242.754 C 114.581 241.675,114.743 241.500,114.621 241.500 C 114.595 241.500,114.051 242.044,113.412 242.708 M111.406 244.875 L 110.917 245.417 111.458 244.927 C 111.756 244.658,112.000 244.414,112.000 244.385 C 112.000 244.257,111.862 244.370,111.406 244.875 M249.705 246.833 C 249.705 247.154,249.740 247.285,249.782 247.125 C 249.823 246.965,249.823 246.702,249.782 246.542 C 249.740 246.381,249.705 246.512,249.705 246.833 M344.375 247.083 C 344.377 247.450,344.411 247.580,344.451 247.373 C 344.491 247.166,344.490 246.866,344.448 246.706 C 344.406 246.547,344.374 246.717,344.375 247.083 M249.879 248.500 C 249.879 248.912,249.911 249.081,249.951 248.875 C 249.991 248.669,249.991 248.331,249.951 248.125 C 249.911 247.919,249.879 248.088,249.879 248.500 M344.209 248.583 C 344.211 248.950,344.245 249.080,344.285 248.873 C 344.324 248.666,344.323 248.366,344.281 248.206 C 344.239 248.047,344.207 248.217,344.209 248.583 M305.833 253.917 C 305.428 254.329,305.135 254.667,305.181 254.667 C 305.226 254.667,305.595 254.329,306.000 253.917 C 306.405 253.504,306.699 253.167,306.653 253.167 C 306.607 253.167,306.238 253.504,305.833 253.917 M146.795 263.121 C 147.094 263.158,147.544 263.157,147.795 263.119 C 148.045 263.081,147.800 263.051,147.250 263.052 C 146.700 263.053,146.495 263.084,146.795 263.121 M224.542 276.583 C 224.544 276.950,224.578 277.080,224.618 276.873 C 224.658 276.666,224.656 276.366,224.615 276.206 C 224.573 276.047,224.540 276.217,224.542 276.583 M134.539 276.667 C 134.539 276.987,134.573 277.119,134.615 276.958 C 134.657 276.798,134.657 276.535,134.615 276.375 C 134.573 276.215,134.539 276.346,134.539 276.667 M262.583 277.333 C 263.035 277.792,263.442 278.167,263.487 278.167 C 263.533 278.167,263.201 277.792,262.750 277.333 C 262.299 276.875,261.892 276.500,261.846 276.500 C 261.800 276.500,262.132 276.875,262.583 277.333 M330.500 278.583 C 330.095 278.996,329.801 279.333,329.847 279.333 C 329.893 279.333,330.262 278.996,330.667 278.583 C 331.072 278.171,331.365 277.833,331.319 277.833 C 331.274 277.833,330.905 278.171,330.500 278.583 M265.500 280.250 C 265.811 280.571,266.103 280.833,266.149 280.833 C 266.195 280.833,265.978 280.571,265.667 280.250 C 265.356 279.929,265.064 279.667,265.018 279.667 C 264.972 279.667,265.189 279.929,265.500 280.250 M327.573 281.542 L 327.083 282.083 327.625 281.594 C 328.130 281.138,328.243 281.000,328.115 281.000 C 328.086 281.000,327.842 281.244,327.573 281.542 M164.660 287.542 C 165.350 288.278,165.500 288.410,165.500 288.285 C 165.500 288.258,165.144 287.902,164.708 287.493 L 163.917 286.750 164.660 287.542 M285.667 291.159 C 285.804 291.252,286.060 291.329,286.236 291.331 C 286.663 291.334,286.529 291.239,285.917 291.102 C 285.552 291.020,285.484 291.036,285.667 291.159 M293.294 292.618 C 293.501 292.658,293.801 292.656,293.960 292.615 C 294.120 292.573,293.950 292.540,293.583 292.542 C 293.217 292.544,293.086 292.578,293.294 292.618 " stroke="none" fill="#68523a" fill-rule="evenodd"></path><path id="path3" d="M203.500 77.833 C 202.938 77.952,202.935 77.956,203.417 77.958 C 203.692 77.960,204.142 77.903,204.417 77.833 C 205.108 77.657,204.336 77.657,203.500 77.833 M210.083 77.833 C 210.358 77.903,210.808 77.961,211.083 77.961 C 211.504 77.962,211.477 77.940,210.917 77.824 C 210.072 77.649,209.390 77.657,210.083 77.833 M201.627 78.118 C 201.834 78.158,202.134 78.156,202.294 78.115 C 202.453 78.073,202.283 78.040,201.917 78.042 C 201.550 78.044,201.420 78.078,201.627 78.118 M212.294 78.118 C 212.501 78.158,212.801 78.156,212.960 78.115 C 213.120 78.073,212.950 78.040,212.583 78.042 C 212.217 78.044,212.086 78.078,212.294 78.118 M199.083 78.333 C 198.637 78.447,198.628 78.461,199.000 78.461 C 199.229 78.461,199.642 78.403,199.917 78.333 C 200.363 78.220,200.372 78.206,200.000 78.206 C 199.771 78.206,199.358 78.263,199.083 78.333 M214.583 78.333 C 214.858 78.403,215.271 78.461,215.500 78.461 C 215.872 78.461,215.863 78.447,215.417 78.333 C 215.142 78.263,214.729 78.206,214.500 78.206 C 214.128 78.206,214.137 78.220,214.583 78.333 M220.083 79.159 C 220.403 79.304,221.296 79.398,221.153 79.272 C 221.115 79.238,220.783 79.165,220.417 79.109 C 219.952 79.039,219.851 79.054,220.083 79.159 M191.333 79.667 C 190.998 79.774,190.982 79.801,191.250 79.805 C 191.433 79.808,191.733 79.745,191.917 79.667 C 192.341 79.484,191.903 79.484,191.333 79.667 M222.583 79.667 C 222.767 79.745,223.029 79.810,223.167 79.810 C 223.324 79.810,223.293 79.757,223.083 79.667 C 222.900 79.588,222.637 79.523,222.500 79.523 C 222.342 79.523,222.373 79.576,222.583 79.667 M187.917 80.500 C 187.707 80.590,187.676 80.643,187.833 80.643 C 187.971 80.643,188.233 80.579,188.417 80.500 C 188.627 80.410,188.658 80.357,188.500 80.357 C 188.362 80.357,188.100 80.421,187.917 80.500 M227.750 81.000 C 227.933 81.079,228.196 81.143,228.333 81.143 C 228.491 81.143,228.460 81.090,228.250 81.000 C 228.067 80.921,227.804 80.857,227.667 80.857 C 227.509 80.857,227.540 80.910,227.750 81.000 M231.500 82.139 C 231.637 82.224,231.938 82.343,232.167 82.404 C 232.456 82.482,232.507 82.469,232.333 82.361 C 232.196 82.276,231.896 82.157,231.667 82.096 C 231.377 82.018,231.326 82.031,231.500 82.139 M180.917 82.756 C 180.500 82.957,180.486 82.980,180.833 82.895 C 181.306 82.779,181.836 82.509,181.583 82.513 C 181.492 82.514,181.192 82.623,180.917 82.756 M176.875 84.339 C 176.317 84.563,176.421 84.677,177.000 84.475 C 177.275 84.379,177.500 84.271,177.500 84.234 C 177.500 84.135,177.297 84.169,176.875 84.339 M173.833 85.750 C 173.604 85.881,173.492 85.988,173.583 85.988 C 173.675 85.988,173.938 85.881,174.167 85.750 C 174.396 85.619,174.508 85.512,174.417 85.512 C 174.325 85.512,174.063 85.619,173.833 85.750 M240.167 85.750 C 240.396 85.881,240.658 85.988,240.750 85.988 C 240.842 85.988,240.729 85.881,240.500 85.750 C 240.271 85.619,240.008 85.512,239.917 85.512 C 239.825 85.512,239.938 85.619,240.167 85.750 M172.625 86.345 C 172.281 86.526,172.000 86.712,172.000 86.757 C 172.000 86.803,172.300 86.687,172.667 86.500 C 173.033 86.313,173.333 86.124,173.333 86.080 C 173.333 85.971,173.332 85.971,172.625 86.345 M170.125 87.678 C 169.781 87.859,169.500 88.045,169.500 88.091 C 169.500 88.136,169.800 88.020,170.167 87.833 C 170.533 87.646,170.833 87.457,170.833 87.413 C 170.833 87.304,170.832 87.305,170.125 87.678 M243.500 87.410 C 243.500 87.456,243.800 87.646,244.167 87.833 C 244.533 88.020,244.833 88.136,244.833 88.090 C 244.833 88.044,244.533 87.854,244.167 87.667 C 243.800 87.480,243.500 87.364,243.500 87.410 M246.000 88.841 C 246.578 89.234,246.907 89.348,246.500 89.015 C 246.271 88.827,246.008 88.674,245.917 88.673 C 245.825 88.672,245.862 88.748,246.000 88.841 M167.208 89.353 C 166.640 89.716,166.456 89.961,166.958 89.685 C 167.341 89.475,167.940 89.011,167.833 89.008 C 167.787 89.007,167.506 89.162,167.208 89.353 M248.406 90.316 C 248.468 90.416,248.673 90.581,248.863 90.682 C 249.109 90.814,249.175 90.815,249.094 90.684 C 249.032 90.584,248.827 90.419,248.637 90.318 C 248.391 90.186,248.325 90.185,248.406 90.316 M250.333 91.569 C 250.333 91.614,250.690 91.885,251.125 92.170 C 251.796 92.611,251.841 92.624,251.417 92.254 C 250.876 91.782,250.333 91.439,250.333 91.569 M252.000 92.719 C 252.000 92.760,252.275 93.004,252.612 93.260 C 252.948 93.517,253.171 93.642,253.107 93.538 C 252.975 93.325,252.000 92.603,252.000 92.719 M161.100 93.511 C 160.743 93.780,160.521 94.000,160.607 94.000 C 160.692 94.000,161.022 93.778,161.340 93.507 C 162.078 92.876,161.942 92.878,161.100 93.511 M256.167 96.000 C 257.998 97.689,259.585 99.036,258.496 97.975 C 257.897 97.393,256.997 96.589,256.496 96.189 C 255.994 95.789,255.846 95.704,256.167 96.000 M156.324 97.458 L 155.750 98.083 156.375 97.509 C 156.957 96.974,157.077 96.833,156.949 96.833 C 156.922 96.833,156.640 97.115,156.324 97.458 M152.831 100.792 L 150.250 103.417 152.875 100.835 C 155.314 98.437,155.575 98.167,155.456 98.167 C 155.432 98.167,154.251 99.348,152.831 100.792 M261.254 100.667 C 262.168 101.630,262.951 102.396,262.993 102.369 C 263.034 102.342,262.286 101.555,261.330 100.619 L 259.591 98.917 261.254 100.667 M263.917 103.500 C 264.368 103.958,264.775 104.333,264.821 104.333 C 264.867 104.333,264.535 103.958,264.083 103.500 C 263.632 103.042,263.225 102.667,263.179 102.667 C 263.133 102.667,263.465 103.042,263.917 103.500 M149.238 104.542 C 148.274 105.597,147.943 106.000,148.038 106.000 C 148.091 106.000,148.524 105.550,149.000 105.000 C 149.911 103.949,150.085 103.614,149.238 104.542 M264.833 104.552 C 264.833 104.581,265.077 104.825,265.375 105.094 L 265.917 105.583 265.427 105.042 C 264.971 104.537,264.833 104.423,264.833 104.552 M267.167 107.333 C 267.457 107.700,267.732 108.000,267.778 108.000 C 267.824 108.000,267.624 107.700,267.333 107.333 C 267.043 106.967,266.768 106.667,266.722 106.667 C 266.676 106.667,266.876 106.967,267.167 107.333 M268.333 108.833 C 268.529 109.108,268.727 109.333,268.773 109.333 C 268.819 109.333,268.696 109.108,268.500 108.833 C 268.304 108.558,268.106 108.333,268.061 108.333 C 268.015 108.333,268.138 108.558,268.333 108.833 M144.500 110.500 C 144.304 110.775,144.181 111.000,144.227 111.000 C 144.273 111.000,144.471 110.775,144.667 110.500 C 144.862 110.225,144.985 110.000,144.939 110.000 C 144.894 110.000,144.696 110.225,144.500 110.500 M270.910 112.458 C 271.167 112.848,271.409 113.167,271.448 113.167 C 271.568 113.167,270.930 112.152,270.680 111.946 C 270.550 111.838,270.654 112.069,270.910 112.458 M143.064 112.542 C 142.490 113.515,142.452 113.598,142.745 113.250 C 143.083 112.847,143.375 112.333,143.266 112.333 C 143.222 112.333,143.131 112.427,143.064 112.542 M206.380 112.456 C 206.818 112.490,207.493 112.490,207.880 112.455 C 208.267 112.420,207.908 112.392,207.083 112.392 C 206.258 112.393,205.942 112.422,206.380 112.456 M204.294 112.618 C 204.501 112.658,204.801 112.656,204.960 112.615 C 205.120 112.573,204.950 112.540,204.583 112.542 C 204.217 112.544,204.086 112.578,204.294 112.618 M209.127 112.618 C 209.334 112.658,209.634 112.656,209.794 112.615 C 209.953 112.573,209.783 112.540,209.417 112.542 C 209.050 112.544,208.920 112.578,209.127 112.618 M201.583 112.833 C 200.890 113.010,201.572 113.018,202.417 112.843 C 202.977 112.727,203.004 112.705,202.583 112.706 C 202.308 112.706,201.858 112.763,201.583 112.833 M211.583 112.843 C 212.428 113.018,213.110 113.010,212.417 112.833 C 212.142 112.763,211.692 112.706,211.417 112.706 C 210.996 112.705,211.023 112.727,211.583 112.843 M198.750 113.341 C 198.518 113.446,198.619 113.461,199.083 113.391 C 199.450 113.335,199.781 113.262,199.819 113.228 C 199.963 113.102,199.070 113.196,198.750 113.341 M214.181 113.228 C 214.219 113.262,214.550 113.335,214.917 113.391 C 215.381 113.461,215.482 113.446,215.250 113.341 C 214.930 113.196,214.037 113.102,214.181 113.228 M216.250 113.667 C 216.433 113.745,216.696 113.810,216.833 113.810 C 216.991 113.810,216.960 113.757,216.750 113.667 C 216.567 113.588,216.304 113.523,216.167 113.523 C 216.009 113.523,216.040 113.576,216.250 113.667 M141.897 114.375 C 141.323 115.348,141.286 115.431,141.578 115.083 C 141.916 114.680,142.208 114.167,142.099 114.167 C 142.055 114.167,141.964 114.260,141.897 114.375 M228.333 118.381 C 228.333 118.425,228.802 118.738,229.375 119.077 C 229.948 119.415,230.304 119.584,230.167 119.451 C 229.869 119.163,228.333 118.267,228.333 118.381 M138.750 119.833 C 138.427 120.475,138.200 121.000,138.246 121.000 C 138.292 121.000,138.594 120.475,138.917 119.833 C 139.240 119.192,139.467 118.667,139.421 118.667 C 139.375 118.667,139.073 119.192,138.750 119.833 M137.698 121.925 C 137.196 122.958,137.252 123.103,137.769 122.109 C 138.000 121.664,138.161 121.272,138.126 121.237 C 138.091 121.202,137.899 121.512,137.698 121.925 M179.717 122.659 C 178.880 123.388,178.138 124.079,178.066 124.195 C 177.994 124.311,178.606 123.816,179.426 123.096 C 181.295 121.453,181.424 121.333,181.321 121.333 C 181.275 121.333,180.553 121.930,179.717 122.659 M276.861 123.009 C 276.959 123.288,277.069 123.486,277.107 123.448 C 277.190 123.366,276.875 122.500,276.763 122.500 C 276.719 122.500,276.764 122.729,276.861 123.009 M237.087 125.167 C 238.002 126.130,238.784 126.896,238.826 126.869 C 238.868 126.842,238.119 126.055,237.163 125.119 L 235.425 123.417 237.087 125.167 M175.742 126.542 L 175.083 127.250 175.792 126.591 C 176.181 126.229,176.500 125.910,176.500 125.883 C 176.500 125.757,176.355 125.883,175.742 126.542 M278.929 127.833 C 278.990 128.063,279.110 128.362,279.195 128.500 C 279.302 128.674,279.315 128.623,279.238 128.333 C 279.176 128.104,279.057 127.804,278.972 127.667 C 278.865 127.493,278.851 127.544,278.929 127.833 M173.000 129.833 C 172.804 130.108,172.681 130.333,172.727 130.333 C 172.773 130.333,172.971 130.108,173.167 129.833 C 173.362 129.558,173.485 129.333,173.439 129.333 C 173.394 129.333,173.196 129.558,173.000 129.833 M241.577 130.458 C 241.834 130.848,242.076 131.167,242.115 131.167 C 242.235 131.167,241.597 130.152,241.347 129.946 C 241.216 129.838,241.320 130.069,241.577 130.458 M171.897 131.375 C 171.323 132.348,171.286 132.431,171.578 132.083 C 171.916 131.680,172.208 131.167,172.099 131.167 C 172.055 131.167,171.964 131.260,171.897 131.375 M169.917 134.667 C 169.684 135.125,169.532 135.500,169.578 135.500 C 169.624 135.500,169.851 135.125,170.083 134.667 C 170.316 134.208,170.468 133.833,170.422 133.833 C 170.376 133.833,170.149 134.208,169.917 134.667 M206.621 137.787 C 206.917 137.824,207.442 137.824,207.788 137.788 C 208.134 137.752,207.892 137.722,207.250 137.721 C 206.608 137.721,206.325 137.750,206.621 137.787 M203.833 138.008 C 203.552 138.104,203.688 138.118,204.250 138.054 C 204.708 138.001,205.115 137.929,205.153 137.895 C 205.284 137.778,204.250 137.867,203.833 138.008 M209.917 138.000 C 210.622 138.179,211.227 138.179,210.667 138.000 C 210.438 137.927,210.063 137.868,209.833 137.870 C 209.459 137.872,209.468 137.886,209.917 138.000 M212.250 138.500 C 212.433 138.579,212.696 138.643,212.833 138.643 C 212.991 138.643,212.960 138.590,212.750 138.500 C 212.567 138.421,212.304 138.357,212.167 138.357 C 212.009 138.357,212.040 138.410,212.250 138.500 M131.762 138.929 C 131.701 139.173,131.683 139.405,131.722 139.444 C 131.761 139.483,131.843 139.316,131.905 139.071 C 131.966 138.827,131.984 138.595,131.945 138.556 C 131.906 138.517,131.823 138.684,131.762 138.929 M129.333 140.174 C 129.151 140.298,129.218 140.313,129.583 140.232 C 130.196 140.095,130.329 139.999,129.903 140.003 C 129.727 140.004,129.471 140.081,129.333 140.174 M195.739 142.032 C 195.045 142.692,194.321 143.460,194.129 143.740 C 193.938 144.021,194.172 143.821,194.649 143.297 C 195.126 142.773,195.905 142.005,196.380 141.589 C 196.856 141.173,197.190 140.833,197.123 140.833 C 197.056 140.833,196.433 141.373,195.739 142.032 M282.862 141.417 C 282.859 141.600,282.921 141.900,283.000 142.083 C 283.183 142.508,283.183 142.070,283.000 141.500 C 282.893 141.165,282.866 141.149,282.862 141.417 M124.583 141.500 C 124.373 141.590,124.342 141.643,124.500 141.643 C 124.638 141.643,124.900 141.579,125.083 141.500 C 125.293 141.410,125.324 141.357,125.167 141.357 C 125.029 141.357,124.767 141.421,124.583 141.500 M218.917 142.333 C 219.461 142.883,219.944 143.333,219.990 143.333 C 220.035 143.333,219.628 142.883,219.083 142.333 C 218.539 141.783,218.056 141.333,218.010 141.333 C 217.965 141.333,218.372 141.783,218.917 142.333 M117.708 144.005 C 117.150 144.230,117.255 144.343,117.833 144.142 C 118.108 144.046,118.333 143.937,118.333 143.900 C 118.333 143.801,118.130 143.836,117.708 144.005 M221.333 145.500 C 221.520 145.867,221.711 146.167,221.757 146.167 C 221.803 146.167,221.687 145.867,221.500 145.500 C 221.313 145.133,221.122 144.833,221.077 144.833 C 221.031 144.833,221.146 145.133,221.333 145.500 M248.357 145.167 C 248.357 145.304,248.421 145.567,248.500 145.750 C 248.590 145.960,248.643 145.991,248.643 145.833 C 248.643 145.696,248.579 145.433,248.500 145.250 C 248.410 145.040,248.357 145.009,248.357 145.167 M192.409 146.349 C 192.262 146.632,192.172 146.894,192.208 146.930 C 192.244 146.966,192.398 146.734,192.551 146.415 C 192.894 145.696,192.775 145.641,192.409 146.349 M283.706 146.583 C 283.706 146.858,283.763 147.308,283.833 147.583 L 283.961 148.083 283.961 147.583 C 283.961 147.308,283.903 146.858,283.833 146.583 L 283.706 146.083 283.706 146.583 M165.417 146.833 C 165.353 147.121,165.336 147.392,165.379 147.434 C 165.421 147.477,165.504 147.272,165.563 146.979 C 165.621 146.686,165.638 146.416,165.600 146.378 C 165.563 146.340,165.480 146.545,165.417 146.833 M109.458 148.095 C 108.835 148.433,108.873 148.574,109.500 148.250 C 109.775 148.108,110.000 147.956,110.000 147.912 C 110.000 147.805,109.982 147.811,109.458 148.095 M164.924 149.591 C 164.860 150.016,164.842 150.398,164.884 150.440 C 164.926 150.481,165.012 150.168,165.076 149.742 C 165.140 149.317,165.158 148.935,165.116 148.894 C 165.074 148.852,164.988 149.166,164.924 149.591 M284.042 149.417 C 284.044 149.783,284.078 149.914,284.118 149.706 C 284.158 149.499,284.156 149.199,284.115 149.040 C 284.073 148.880,284.040 149.050,284.042 149.417 M249.280 149.917 C 249.333 150.375,249.404 150.781,249.438 150.819 C 249.555 150.951,249.467 149.916,249.325 149.500 C 249.230 149.219,249.215 149.355,249.280 149.917 M223.195 149.833 C 223.203 150.266,223.466 150.978,223.472 150.583 C 223.474 150.400,223.412 150.100,223.333 149.917 C 223.246 149.712,223.192 149.680,223.195 149.833 M190.929 150.262 C 190.867 150.506,190.849 150.738,190.889 150.777 C 190.928 150.817,191.010 150.649,191.071 150.405 C 191.133 150.161,191.151 149.929,191.111 149.889 C 191.072 149.850,190.990 150.018,190.929 150.262 M284.209 151.417 C 284.204 151.875,284.256 152.887,284.324 153.667 C 284.445 155.042,284.449 155.052,284.453 154.000 C 284.456 153.404,284.405 152.392,284.339 151.750 C 284.235 150.734,284.218 150.691,284.209 151.417 M104.417 151.265 L 103.917 151.694 104.458 151.336 C 104.756 151.139,105.000 150.945,105.000 150.905 C 105.000 150.781,104.929 150.824,104.417 151.265 M164.705 151.833 C 164.705 152.154,164.740 152.285,164.782 152.125 C 164.823 151.965,164.823 151.702,164.782 151.542 C 164.740 151.381,164.705 151.512,164.705 151.833 M249.539 152.167 C 249.539 152.487,249.573 152.619,249.615 152.458 C 249.657 152.298,249.657 152.035,249.615 151.875 C 249.573 151.715,249.539 151.846,249.539 152.167 M223.750 155.000 C 223.750 156.585,223.802 157.590,223.865 157.233 C 223.929 156.876,223.981 155.871,223.981 155.000 C 223.981 154.129,223.929 153.124,223.865 152.767 C 223.802 152.410,223.750 153.415,223.750 155.000 M164.550 153.333 C 164.550 153.837,164.581 154.044,164.619 153.792 C 164.658 153.540,164.658 153.127,164.619 152.875 C 164.581 152.623,164.550 152.829,164.550 153.333 M190.383 154.000 C 190.383 154.504,190.415 154.710,190.453 154.458 C 190.491 154.206,190.491 153.794,190.453 153.542 C 190.415 153.290,190.383 153.496,190.383 154.000 M249.749 200.000 C 249.749 225.529,249.768 235.973,249.792 223.208 C 249.815 210.444,249.815 189.556,249.792 176.792 C 249.768 164.027,249.749 174.471,249.749 200.000 M99.333 155.014 L 98.583 155.694 99.375 155.077 C 100.069 154.536,100.275 154.332,100.125 154.334 C 100.102 154.334,99.746 154.640,99.333 155.014 M190.383 156.500 C 190.383 157.004,190.415 157.210,190.453 156.958 C 190.491 156.706,190.491 156.294,190.453 156.042 C 190.415 155.790,190.383 155.996,190.383 156.500 M164.512 157.097 C 164.519 157.548,164.587 158.254,164.664 158.667 C 164.762 159.195,164.777 158.974,164.713 157.917 C 164.614 156.283,164.493 155.786,164.512 157.097 M95.742 158.042 L 95.083 158.750 95.792 158.091 C 96.181 157.729,96.500 157.410,96.500 157.383 C 96.500 157.257,96.355 157.383,95.742 158.042 M190.539 158.167 C 190.539 158.487,190.573 158.619,190.615 158.458 C 190.657 158.298,190.657 158.035,190.615 157.875 C 190.573 157.715,190.539 157.846,190.539 158.167 M92.830 160.792 L 91.250 162.417 92.875 160.837 C 93.769 159.968,94.500 159.236,94.500 159.212 C 94.500 159.091,94.298 159.282,92.830 160.792 M223.262 159.762 C 223.201 160.006,223.183 160.238,223.222 160.277 C 223.261 160.317,223.343 160.149,223.405 159.905 C 223.466 159.661,223.484 159.429,223.445 159.389 C 223.406 159.350,223.323 159.518,223.262 159.762 M164.873 160.333 C 164.873 160.563,164.930 160.975,165.000 161.250 C 165.113 161.696,165.127 161.705,165.127 161.333 C 165.127 161.104,165.070 160.692,165.000 160.417 C 164.887 159.971,164.873 159.962,164.873 160.333 M222.027 163.257 C 221.748 163.870,221.801 164.001,222.103 163.444 C 222.244 163.183,222.328 162.939,222.290 162.901 C 222.252 162.863,222.134 163.023,222.027 163.257 M165.362 163.250 C 165.359 163.433,165.421 163.733,165.500 163.917 C 165.683 164.341,165.683 163.903,165.500 163.333 C 165.393 162.998,165.366 162.982,165.362 163.250 M89.991 163.792 L 89.417 164.417 90.042 163.842 C 90.623 163.308,90.743 163.167,90.616 163.167 C 90.588 163.167,90.307 163.448,89.991 163.792 M192.500 164.333 C 192.687 164.700,192.878 165.000,192.923 165.000 C 192.969 165.000,192.854 164.700,192.667 164.333 C 192.480 163.967,192.289 163.667,192.243 163.667 C 192.197 163.667,192.313 163.967,192.500 164.333 M88.906 165.042 L 88.417 165.583 88.958 165.094 C 89.256 164.825,89.500 164.581,89.500 164.552 C 89.500 164.423,89.362 164.537,88.906 165.042 M221.064 165.042 C 220.490 166.015,220.452 166.098,220.745 165.750 C 221.083 165.347,221.375 164.833,221.266 164.833 C 221.222 164.833,221.131 164.927,221.064 165.042 M193.663 166.162 C 193.857 166.434,194.101 166.709,194.205 166.773 C 194.309 166.838,194.184 166.615,193.927 166.279 C 193.370 165.548,193.160 165.455,193.663 166.162 M195.167 167.917 C 195.665 168.421,196.109 168.833,196.155 168.833 C 196.201 168.833,195.831 168.421,195.333 167.917 C 194.835 167.412,194.391 167.000,194.345 167.000 C 194.299 167.000,194.669 167.412,195.167 167.917 M218.991 167.792 L 218.417 168.417 219.042 167.842 C 219.623 167.308,219.743 167.167,219.616 167.167 C 219.588 167.167,219.307 167.448,218.991 167.792 M84.781 170.208 C 83.872 171.446,83.476 172.059,83.784 171.750 C 84.085 171.449,85.838 169.000,85.752 169.000 C 85.707 169.000,85.270 169.544,84.781 170.208 M216.583 169.765 L 216.083 170.194 216.625 169.836 C 216.923 169.639,217.167 169.445,217.167 169.405 C 217.167 169.281,217.096 169.324,216.583 169.765 M211.333 172.000 C 210.998 172.107,210.982 172.134,211.250 172.138 C 211.433 172.141,211.733 172.079,211.917 172.000 C 212.341 171.817,211.903 171.817,211.333 172.000 M205.708 172.562 C 206.440 172.644,207.560 172.644,208.292 172.562 C 209.463 172.430,209.343 172.417,207.000 172.417 C 204.657 172.417,204.537 172.430,205.708 172.562 M133.020 175.837 C 133.273 176.583,133.415 176.728,133.262 176.083 C 133.196 175.808,133.071 175.510,132.984 175.420 C 132.896 175.331,132.912 175.518,133.020 175.837 M129.833 176.417 C 129.604 176.548,129.492 176.655,129.583 176.655 C 129.675 176.655,129.938 176.548,130.167 176.417 C 130.396 176.286,130.508 176.178,130.417 176.178 C 130.325 176.178,130.063 176.286,129.833 176.417 M79.250 179.000 C 79.108 179.275,79.029 179.500,79.075 179.500 C 79.121 179.500,79.274 179.275,79.417 179.000 C 79.559 178.725,79.638 178.500,79.592 178.500 C 79.546 178.500,79.392 178.725,79.250 179.000 M122.049 180.984 C 121.311 181.525,120.658 182.047,120.598 182.143 C 120.538 182.240,121.148 181.828,121.953 181.228 C 123.536 180.049,123.596 180.000,123.474 180.000 C 123.429 180.000,122.788 180.443,122.049 180.984 M174.166 181.999 C 174.550 182.458,174.950 182.886,175.057 182.951 C 175.163 183.016,174.885 182.642,174.438 182.118 C 173.992 181.595,173.591 181.167,173.548 181.167 C 173.504 181.167,173.783 181.541,174.166 181.999 M77.360 182.757 C 77.081 183.370,77.134 183.501,77.436 182.944 C 77.577 182.683,77.662 182.439,77.623 182.401 C 77.585 182.363,77.467 182.523,77.360 182.757 M117.164 185.292 L 115.083 187.417 117.208 185.336 C 119.182 183.403,119.409 183.167,119.289 183.167 C 119.265 183.167,118.309 184.123,117.164 185.292 M175.750 183.833 C 176.108 184.200,176.438 184.500,176.484 184.500 C 176.530 184.500,176.275 184.200,175.917 183.833 C 175.559 183.467,175.228 183.167,175.182 183.167 C 175.137 183.167,175.392 183.467,175.750 183.833 M76.527 184.590 C 76.248 185.203,76.301 185.334,76.603 184.777 C 76.744 184.517,76.828 184.273,76.790 184.235 C 76.752 184.196,76.634 184.357,76.527 184.590 M178.250 186.333 C 178.608 186.700,178.938 187.000,178.984 187.000 C 179.030 187.000,178.775 186.700,178.417 186.333 C 178.059 185.967,177.728 185.667,177.682 185.667 C 177.637 185.667,177.892 185.967,178.250 186.333 M137.014 186.583 C 137.014 186.675,137.158 187.012,137.333 187.333 C 137.509 187.654,137.653 187.842,137.653 187.750 C 137.653 187.658,137.509 187.321,137.333 187.000 C 137.158 186.679,137.014 186.492,137.014 186.583 M179.181 187.208 C 179.220 187.231,179.514 187.475,179.834 187.750 L 180.417 188.250 179.927 187.708 C 179.658 187.410,179.364 187.167,179.274 187.167 C 179.185 187.167,179.143 187.185,179.181 187.208 M75.185 187.852 C 75.083 188.146,75.028 188.417,75.063 188.452 C 75.099 188.488,75.212 188.276,75.315 187.981 C 75.417 187.687,75.472 187.417,75.437 187.381 C 75.401 187.345,75.288 187.557,75.185 187.852 M113.211 189.792 C 112.512 190.695,111.966 191.500,112.052 191.500 C 112.092 191.500,112.509 190.975,112.977 190.333 C 113.872 189.106,114.038 188.723,113.211 189.792 M181.986 189.394 C 182.208 189.667,182.833 190.080,182.833 189.954 C 182.833 189.922,182.590 189.718,182.292 189.499 C 181.956 189.254,181.840 189.214,181.986 189.394 M139.333 191.333 C 139.520 191.700,139.711 192.000,139.757 192.000 C 139.803 192.000,139.687 191.700,139.500 191.333 C 139.313 190.967,139.122 190.667,139.077 190.667 C 139.031 190.667,139.146 190.967,139.333 191.333 M140.701 193.764 C 140.911 194.139,141.218 194.626,141.382 194.848 C 141.547 195.069,141.509 194.944,141.299 194.569 C 141.089 194.195,140.782 193.707,140.618 193.486 C 140.453 193.264,140.491 193.390,140.701 193.764 M72.595 195.762 C 72.534 196.006,72.516 196.238,72.555 196.277 C 72.594 196.317,72.677 196.149,72.738 195.905 C 72.799 195.661,72.817 195.429,72.778 195.389 C 72.739 195.350,72.657 195.518,72.595 195.762 M197.583 196.667 C 197.767 196.745,198.067 196.808,198.250 196.805 C 198.518 196.801,198.502 196.774,198.167 196.667 C 197.597 196.484,197.159 196.484,197.583 196.667 M142.645 196.917 C 142.735 197.100,142.931 197.400,143.080 197.583 L 143.352 197.917 143.188 197.583 C 143.098 197.400,142.902 197.100,142.753 196.917 L 142.482 196.583 142.645 196.917 M202.960 197.618 C 203.168 197.658,203.468 197.656,203.627 197.615 C 203.786 197.573,203.617 197.540,203.250 197.542 C 202.883 197.544,202.753 197.578,202.960 197.618 M204.377 197.786 C 204.631 197.825,205.006 197.824,205.211 197.784 C 205.416 197.744,205.208 197.713,204.750 197.714 C 204.292 197.716,204.124 197.748,204.377 197.786 M207.711 197.953 C 207.964 197.991,208.339 197.990,208.544 197.951 C 208.749 197.911,208.542 197.880,208.083 197.881 C 207.625 197.882,207.457 197.915,207.711 197.953 M209.208 198.115 C 209.369 198.157,209.631 198.157,209.792 198.115 C 209.952 198.073,209.821 198.039,209.500 198.039 C 209.179 198.039,209.048 198.073,209.208 198.115 M71.750 199.167 C 71.687 199.455,71.670 199.725,71.712 199.768 C 71.755 199.810,71.837 199.605,71.896 199.313 C 72.035 198.618,71.900 198.483,71.750 199.167 M144.081 199.083 C 144.598 199.909,146.173 202.000,146.277 202.000 C 146.330 202.000,146.300 201.906,146.210 201.792 C 146.119 201.677,145.577 200.946,145.005 200.167 C 143.888 198.645,143.580 198.284,144.081 199.083 M212.500 198.805 C 212.637 198.890,212.938 199.010,213.167 199.071 C 213.456 199.149,213.507 199.135,213.333 199.028 C 213.196 198.943,212.896 198.824,212.667 198.762 C 212.377 198.685,212.326 198.698,212.500 198.805 M214.014 199.395 C 214.185 199.549,215.167 200.000,215.167 199.925 C 215.167 199.829,214.243 199.333,214.064 199.333 C 213.998 199.333,213.976 199.361,214.014 199.395 M107.519 200.019 C 107.416 200.313,107.361 200.583,107.397 200.619 C 107.432 200.655,107.545 200.443,107.648 200.148 C 107.751 199.854,107.806 199.583,107.770 199.548 C 107.734 199.512,107.621 199.724,107.519 200.019 M71.250 201.500 C 71.187 201.788,71.170 202.059,71.212 202.101 C 71.255 202.143,71.337 201.939,71.396 201.646 C 71.535 200.951,71.400 200.816,71.250 201.500 M218.333 202.205 C 218.333 202.243,218.840 202.715,219.458 203.255 C 220.077 203.794,220.433 204.061,220.250 203.849 C 219.883 203.424,218.333 202.095,218.333 202.205 M147.398 203.549 C 147.751 203.981,148.075 204.333,148.117 204.333 C 148.231 204.333,147.176 203.025,146.949 202.885 C 146.843 202.819,147.045 203.118,147.398 203.549 M70.773 204.273 C 70.714 204.703,70.698 205.087,70.737 205.126 C 70.776 205.165,70.860 204.849,70.924 204.424 C 70.988 203.999,71.004 203.615,70.960 203.571 C 70.916 203.527,70.832 203.843,70.773 204.273 M148.333 204.597 C 148.333 204.657,148.558 204.962,148.833 205.275 C 149.108 205.589,149.333 205.796,149.333 205.736 C 149.333 205.676,149.108 205.371,148.833 205.058 C 148.558 204.745,148.333 204.537,148.333 204.597 M105.762 205.595 C 105.701 205.839,105.683 206.071,105.722 206.111 C 105.761 206.150,105.843 205.982,105.905 205.738 C 105.966 205.494,105.984 205.262,105.945 205.223 C 105.906 205.183,105.823 205.351,105.762 205.595 M150.083 206.667 C 150.441 207.033,150.772 207.333,150.818 207.333 C 150.863 207.333,150.608 207.033,150.250 206.667 C 149.892 206.300,149.562 206.000,149.516 206.000 C 149.470 206.000,149.725 206.300,150.083 206.667 M105.267 207.850 C 105.206 208.232,105.188 208.577,105.228 208.617 C 105.268 208.657,105.353 208.379,105.417 208.000 C 105.481 207.621,105.498 207.276,105.455 207.233 C 105.413 207.190,105.328 207.468,105.267 207.850 M151.000 207.600 C 151.000 207.685,151.956 208.691,153.125 209.836 L 155.250 211.917 153.167 209.756 C 152.021 208.567,151.065 207.561,151.042 207.520 C 151.019 207.478,151.000 207.514,151.000 207.600 M70.209 208.917 C 70.211 209.283,70.245 209.414,70.285 209.206 C 70.324 208.999,70.323 208.699,70.281 208.540 C 70.239 208.380,70.207 208.550,70.209 208.917 M104.945 209.815 C 104.884 210.123,104.842 210.534,104.852 210.729 C 104.862 210.924,104.936 210.746,105.017 210.333 C 105.099 209.921,105.141 209.510,105.111 209.419 C 105.082 209.329,105.007 209.507,104.945 209.815 M69.924 211.841 C 69.858 212.768,69.840 213.562,69.884 213.606 C 69.927 213.649,70.017 212.927,70.083 212.000 C 70.150 211.073,70.168 210.279,70.124 210.235 C 70.080 210.191,69.990 210.914,69.924 211.841 M104.709 212.250 C 104.711 212.617,104.745 212.747,104.785 212.540 C 104.824 212.332,104.823 212.032,104.781 211.873 C 104.739 211.714,104.707 211.883,104.709 212.250 M156.334 212.833 C 157.306 213.786,159.833 215.914,159.833 215.779 C 159.833 215.737,159.177 215.158,158.375 214.492 C 157.573 213.826,156.575 212.974,156.158 212.599 C 155.740 212.224,155.820 212.329,156.334 212.833 M224.205 212.500 C 224.205 212.821,224.240 212.952,224.282 212.792 C 224.323 212.631,224.323 212.369,224.282 212.208 C 224.240 212.048,224.205 212.179,224.205 212.500 M224.381 213.917 C 224.382 214.375,224.415 214.543,224.453 214.289 C 224.491 214.036,224.490 213.661,224.451 213.456 C 224.411 213.251,224.380 213.458,224.381 213.917 M104.541 234.458 C 104.505 252.625,104.529 255.000,104.750 255.000 C 104.888 255.000,105.000 254.921,105.000 254.823 C 105.000 254.726,104.925 254.693,104.834 254.750 C 104.724 254.817,104.653 247.922,104.625 234.384 L 104.582 213.917 104.541 234.458 M160.667 216.406 C 160.667 216.450,161.210 216.889,161.875 217.380 C 163.140 218.314,164.202 219.014,163.917 218.726 C 163.631 218.436,160.667 216.320,160.667 216.406 M170.333 222.744 C 170.333 222.790,170.708 223.018,171.167 223.250 C 171.625 223.482,172.000 223.635,172.000 223.589 C 172.000 223.543,171.625 223.316,171.167 223.083 C 170.708 222.851,170.333 222.699,170.333 222.744 M181.000 227.639 C 181.137 227.724,181.438 227.843,181.667 227.904 C 181.956 227.982,182.007 227.969,181.833 227.861 C 181.696 227.776,181.396 227.657,181.167 227.596 C 180.877 227.518,180.826 227.531,181.000 227.639 M326.542 227.955 C 326.885 227.991,327.448 227.991,327.792 227.955 C 328.135 227.919,327.854 227.889,327.167 227.889 C 326.479 227.889,326.198 227.919,326.542 227.955 M324.960 228.118 C 325.168 228.158,325.468 228.156,325.627 228.115 C 325.786 228.073,325.617 228.040,325.250 228.042 C 324.883 228.044,324.753 228.078,324.960 228.118 M328.960 228.118 C 329.168 228.158,329.468 228.156,329.627 228.115 C 329.786 228.073,329.617 228.040,329.250 228.042 C 328.883 228.044,328.753 228.078,328.960 228.118 M183.333 228.472 C 183.471 228.557,183.771 228.676,184.000 228.738 C 184.290 228.815,184.340 228.802,184.167 228.695 C 184.029 228.610,183.729 228.490,183.500 228.429 C 183.210 228.351,183.160 228.365,183.333 228.472 M322.333 228.500 C 321.990 228.610,321.975 228.636,322.250 228.648 C 322.433 228.655,322.696 228.589,322.833 228.500 C 323.125 228.311,322.923 228.311,322.333 228.500 M331.500 228.492 C 331.637 228.585,331.894 228.663,332.069 228.664 C 332.496 228.668,332.363 228.572,331.750 228.435 C 331.385 228.353,331.317 228.369,331.500 228.492 M144.333 229.003 C 143.737 229.065,144.487 229.080,146.000 229.035 C 147.512 228.991,148.781 228.927,148.819 228.894 C 148.931 228.797,145.520 228.880,144.333 229.003 M184.833 228.975 C 184.971 229.056,185.308 229.170,185.583 229.230 C 185.903 229.299,185.993 229.285,185.833 229.191 C 185.696 229.111,185.358 228.996,185.083 228.937 C 184.763 228.868,184.673 228.881,184.833 228.975 M149.458 229.121 C 149.756 229.158,150.244 229.158,150.542 229.121 C 150.840 229.084,150.596 229.053,150.000 229.053 C 149.404 229.053,149.160 229.084,149.458 229.121 M140.375 229.448 C 140.535 229.490,140.798 229.490,140.958 229.448 C 141.119 229.406,140.987 229.372,140.667 229.372 C 140.346 229.372,140.215 229.406,140.375 229.448 M153.294 229.451 C 153.501 229.491,153.801 229.490,153.960 229.448 C 154.120 229.406,153.950 229.374,153.583 229.375 C 153.217 229.377,153.086 229.411,153.294 229.451 M186.500 229.500 C 186.637 229.589,186.862 229.662,187.000 229.662 C 187.222 229.662,187.222 229.644,187.000 229.500 C 186.862 229.411,186.637 229.338,186.500 229.338 C 186.278 229.338,186.278 229.356,186.500 229.500 M137.667 229.833 C 137.332 229.941,137.315 229.968,137.583 229.972 C 137.767 229.974,138.067 229.912,138.250 229.833 C 138.675 229.651,138.237 229.651,137.667 229.833 M155.917 229.833 C 156.100 229.912,156.400 229.974,156.583 229.972 C 156.851 229.968,156.835 229.941,156.500 229.833 C 155.930 229.651,155.492 229.651,155.917 229.833 M335.083 229.788 C 335.175 229.874,335.625 230.150,336.083 230.400 C 336.542 230.650,336.767 230.731,336.583 230.581 C 336.210 230.275,334.822 229.541,335.083 229.788 M188.014 229.893 C 188.052 229.926,188.308 230.003,188.583 230.065 C 188.948 230.147,189.016 230.131,188.833 230.008 C 188.608 229.855,187.847 229.749,188.014 229.893 M159.583 230.667 C 159.767 230.745,160.029 230.810,160.167 230.810 C 160.324 230.810,160.293 230.757,160.083 230.667 C 159.900 230.588,159.637 230.523,159.500 230.523 C 159.342 230.523,159.373 230.576,159.583 230.667 M131.250 231.589 C 130.833 231.790,130.819 231.813,131.167 231.728 C 131.639 231.613,132.170 231.342,131.917 231.346 C 131.825 231.347,131.525 231.457,131.250 231.589 M315.991 231.958 L 315.417 232.583 316.042 232.009 C 316.385 231.693,316.667 231.412,316.667 231.384 C 316.667 231.257,316.526 231.377,315.991 231.958 M338.667 232.025 C 339.588 232.944,341.004 234.156,340.417 233.523 C 340.050 233.128,339.450 232.574,339.083 232.291 C 338.717 232.008,338.529 231.888,338.667 232.025 M314.635 233.298 C 313.918 234.092,312.715 235.833,312.883 235.833 C 312.921 235.833,313.228 235.418,313.565 234.911 C 313.902 234.404,314.446 233.692,314.775 233.328 C 315.103 232.964,315.335 232.667,315.289 232.667 C 315.243 232.667,314.949 232.951,314.635 233.298 M166.833 233.250 C 167.063 233.381,167.325 233.488,167.417 233.488 C 167.508 233.488,167.396 233.381,167.167 233.250 C 166.938 233.119,166.675 233.012,166.583 233.012 C 166.492 233.012,166.604 233.119,166.833 233.250 M126.000 233.750 C 125.771 233.881,125.658 233.988,125.750 233.988 C 125.842 233.988,126.104 233.881,126.333 233.750 C 126.563 233.619,126.675 233.512,126.583 233.512 C 126.492 233.512,126.229 233.619,126.000 233.750 M124.792 234.345 C 124.448 234.526,124.167 234.712,124.167 234.757 C 124.167 234.803,124.467 234.687,124.833 234.500 C 125.200 234.313,125.500 234.124,125.500 234.080 C 125.500 233.971,125.499 233.971,124.792 234.345 M341.499 234.958 C 341.718 235.256,341.922 235.500,341.954 235.500 C 342.080 235.500,341.667 234.875,341.394 234.653 C 341.214 234.507,341.254 234.623,341.499 234.958 M123.292 235.178 C 122.948 235.359,122.667 235.545,122.667 235.591 C 122.667 235.636,122.967 235.520,123.333 235.333 C 123.700 235.146,124.000 234.957,124.000 234.913 C 124.000 234.804,123.999 234.805,123.292 235.178 M171.417 235.586 C 171.600 235.736,171.900 235.931,172.083 236.021 L 172.417 236.185 172.083 235.914 C 171.900 235.764,171.600 235.569,171.417 235.479 L 171.083 235.315 171.417 235.586 M120.269 237.082 C 119.822 237.391,119.372 237.735,119.269 237.846 C 119.167 237.956,119.552 237.734,120.125 237.351 C 120.698 236.968,121.167 236.620,121.167 236.577 C 121.167 236.463,121.151 236.472,120.269 237.082 M311.667 237.833 C 311.480 238.200,311.364 238.500,311.410 238.500 C 311.456 238.500,311.646 238.200,311.833 237.833 C 312.020 237.467,312.136 237.167,312.090 237.167 C 312.044 237.167,311.854 237.467,311.667 237.833 M117.667 239.012 C 116.979 239.564,116.229 240.210,116.000 240.447 C 115.643 240.818,117.271 239.547,118.647 238.380 C 119.572 237.597,118.855 238.058,117.667 239.012 M176.333 238.883 C 176.333 238.925,176.686 239.249,177.117 239.602 C 177.548 239.955,177.847 240.157,177.782 240.051 C 177.641 239.824,176.333 238.769,176.333 238.883 M310.685 240.019 C 310.583 240.313,310.528 240.583,310.563 240.619 C 310.599 240.655,310.712 240.443,310.815 240.148 C 310.917 239.854,310.972 239.583,310.937 239.548 C 310.901 239.512,310.788 239.724,310.685 240.019 M343.862 239.917 C 343.859 240.100,343.921 240.400,344.000 240.583 C 344.183 241.008,344.183 240.570,344.000 240.000 C 343.893 239.665,343.866 239.649,343.862 239.917 M178.500 240.750 C 178.811 241.071,179.103 241.333,179.149 241.333 C 179.195 241.333,178.978 241.071,178.667 240.750 C 178.356 240.429,178.064 240.167,178.018 240.167 C 177.972 240.167,178.189 240.429,178.500 240.750 M113.664 242.625 L 111.917 244.417 113.708 242.670 C 114.694 241.709,115.500 240.903,115.500 240.878 C 115.500 240.758,115.286 240.961,113.664 242.625 M179.337 241.340 C 179.339 241.382,180.216 242.317,181.285 243.417 C 182.501 244.668,182.786 244.917,182.045 244.083 C 180.854 242.742,179.330 241.198,179.337 241.340 M344.205 241.833 C 344.205 242.154,344.240 242.285,344.282 242.125 C 344.323 241.965,344.323 241.702,344.282 241.542 C 344.240 241.381,344.205 241.512,344.205 241.833 M344.398 244.500 C 344.398 245.646,344.424 246.115,344.457 245.542 C 344.489 244.969,344.489 244.031,344.457 243.458 C 344.424 242.885,344.398 243.354,344.398 244.500 M309.750 244.000 C 309.685 244.470,309.668 244.890,309.711 244.933 C 309.754 244.976,309.840 244.625,309.903 244.153 C 309.965 243.681,309.983 243.261,309.942 243.220 C 309.901 243.179,309.815 243.530,309.750 244.000 M111.404 245.042 C 110.459 246.077,110.109 246.500,110.196 246.500 C 110.244 246.500,110.675 246.050,111.153 245.500 C 112.068 244.449,112.251 244.114,111.404 245.042 M184.500 247.167 C 184.790 247.533,185.066 247.833,185.111 247.833 C 185.157 247.833,184.957 247.533,184.667 247.167 C 184.376 246.800,184.101 246.500,184.055 246.500 C 184.009 246.500,184.210 246.800,184.500 247.167 M249.879 247.167 C 249.879 247.579,249.911 247.748,249.951 247.542 C 249.991 247.335,249.991 246.998,249.951 246.792 C 249.911 246.585,249.879 246.754,249.879 247.167 M344.212 247.333 C 344.212 247.746,344.245 247.915,344.284 247.708 C 344.324 247.502,344.324 247.165,344.284 246.958 C 344.245 246.752,344.212 246.921,344.212 247.333 M185.847 249.000 C 186.460 249.874,186.918 250.382,186.560 249.792 C 186.253 249.285,185.295 248.000,185.224 248.000 C 185.181 248.000,185.461 248.450,185.847 249.000 M250.113 249.583 C 250.166 250.042,250.237 250.448,250.271 250.486 C 250.388 250.617,250.300 249.583,250.158 249.167 C 250.063 248.886,250.048 249.021,250.113 249.583 M107.769 249.750 C 107.621 249.979,107.379 250.373,107.230 250.625 L 106.960 251.083 107.296 250.678 C 107.692 250.198,108.217 249.333,108.112 249.333 C 108.071 249.333,107.917 249.521,107.769 249.750 M308.527 250.090 C 308.248 250.703,308.301 250.834,308.603 250.277 C 308.744 250.017,308.828 249.773,308.790 249.735 C 308.752 249.696,308.634 249.857,308.527 250.090 M343.872 250.167 C 343.872 250.487,343.906 250.619,343.948 250.458 C 343.990 250.298,343.990 250.035,343.948 249.875 C 343.906 249.715,343.872 249.846,343.872 250.167 M250.533 252.417 C 250.533 252.600,250.593 252.938,250.667 253.167 C 250.772 253.497,250.800 253.514,250.800 253.250 C 250.800 253.067,250.740 252.729,250.667 252.500 C 250.561 252.170,250.533 252.153,250.533 252.417 M343.417 252.667 C 343.353 252.955,343.336 253.225,343.379 253.268 C 343.421 253.310,343.504 253.105,343.563 252.813 C 343.701 252.118,343.567 251.983,343.417 252.667 M287.917 254.000 C 288.368 254.458,288.775 254.833,288.821 254.833 C 288.867 254.833,288.535 254.458,288.083 254.000 C 287.632 253.542,287.225 253.167,287.179 253.167 C 287.133 253.167,287.465 253.542,287.917 254.000 M305.833 254.046 C 305.421 254.433,304.821 254.961,304.500 255.219 C 304.003 255.619,304.031 255.610,304.687 255.164 C 305.374 254.698,306.852 253.327,306.659 253.337 C 306.617 253.339,306.246 253.658,305.833 254.046 M189.173 254.426 C 189.161 254.772,189.607 255.232,189.741 255.014 C 189.810 254.903,189.822 254.766,189.767 254.711 C 189.712 254.656,189.664 254.717,189.661 254.847 C 189.658 254.977,189.548 254.896,189.417 254.667 C 189.286 254.438,189.176 254.329,189.173 254.426 M342.938 254.854 C 342.799 255.549,342.933 255.684,343.083 255.000 C 343.147 254.712,343.164 254.441,343.121 254.399 C 343.079 254.357,342.996 254.561,342.938 254.854 M251.357 256.167 C 251.357 256.304,251.421 256.567,251.500 256.750 C 251.590 256.960,251.643 256.991,251.643 256.833 C 251.643 256.696,251.579 256.433,251.500 256.250 C 251.410 256.040,251.357 256.009,251.357 256.167 M291.833 256.639 C 291.971 256.724,292.271 256.843,292.500 256.904 C 292.790 256.982,292.840 256.969,292.667 256.861 C 292.529 256.776,292.229 256.657,292.000 256.596 C 291.710 256.518,291.660 256.531,291.833 256.639 M300.083 257.167 C 299.873 257.257,299.842 257.310,300.000 257.310 C 300.137 257.310,300.400 257.245,300.583 257.167 C 300.793 257.076,300.824 257.023,300.667 257.023 C 300.529 257.023,300.267 257.088,300.083 257.167 M296.288 257.620 C 296.584 257.657,297.109 257.658,297.455 257.622 C 297.800 257.586,297.558 257.555,296.917 257.555 C 296.275 257.554,295.992 257.583,296.288 257.620 M252.262 259.333 C 252.324 259.563,252.443 259.862,252.528 260.000 C 252.635 260.174,252.649 260.123,252.571 259.833 C 252.510 259.604,252.390 259.304,252.305 259.167 C 252.198 258.993,252.185 259.044,252.262 259.333 M253.096 261.667 C 253.157 261.896,253.276 262.196,253.361 262.333 C 253.469 262.507,253.482 262.456,253.404 262.167 C 253.343 261.938,253.224 261.637,253.139 261.500 C 253.031 261.326,253.018 261.377,253.096 261.667 M145.865 262.975 C 145.654 263.035,146.277 263.083,147.250 263.083 C 148.223 263.083,148.846 263.035,148.635 262.975 C 148.423 262.915,147.800 262.867,147.250 262.867 C 146.700 262.867,146.077 262.915,145.865 262.975 M339.527 264.757 C 339.248 265.370,339.301 265.501,339.603 264.944 C 339.744 264.683,339.828 264.439,339.790 264.401 C 339.752 264.363,339.634 264.523,339.527 264.757 M139.727 265.396 C 139.190 265.796,138.450 266.451,138.083 266.850 C 137.558 267.421,137.629 267.379,138.417 266.650 C 138.967 266.141,139.735 265.514,140.125 265.257 C 140.768 264.832,140.949 264.667,140.768 264.667 C 140.733 264.667,140.264 264.995,139.727 265.396 M155.286 266.004 C 155.581 266.313,155.851 266.533,155.885 266.491 C 155.920 266.450,155.679 266.197,155.349 265.929 L 154.750 265.441 155.286 266.004 M156.929 267.750 C 157.862 268.944,157.931 269.018,157.703 268.579 C 157.607 268.393,157.218 267.906,156.838 267.496 C 156.164 266.768,156.166 266.774,156.929 267.750 M158.083 269.500 C 158.226 269.775,158.379 270.000,158.425 270.000 C 158.471 270.000,158.392 269.775,158.250 269.500 C 158.108 269.225,157.954 269.000,157.908 269.000 C 157.862 269.000,157.941 269.225,158.083 269.500 M257.645 270.750 C 257.735 270.933,257.931 271.233,258.080 271.417 L 258.352 271.750 258.188 271.417 C 258.098 271.233,257.902 270.933,257.753 270.750 L 257.482 270.417 257.645 270.750 M159.026 271.417 C 159.026 271.508,159.126 271.846,159.250 272.167 C 159.374 272.487,159.477 272.637,159.480 272.500 C 159.483 272.362,159.382 272.025,159.256 271.750 C 159.130 271.475,159.027 271.325,159.026 271.417 M334.500 273.500 C 334.304 273.775,334.181 274.000,334.227 274.000 C 334.273 274.000,334.471 273.775,334.667 273.500 C 334.862 273.225,334.985 273.000,334.939 273.000 C 334.894 273.000,334.696 273.225,334.500 273.500 M159.624 274.167 C 159.672 274.762,159.739 275.281,159.773 275.319 C 159.895 275.460,159.805 273.739,159.673 273.417 C 159.593 273.221,159.572 273.531,159.624 274.167 M134.553 274.833 C 134.553 275.429,134.584 275.673,134.621 275.375 C 134.658 275.077,134.658 274.590,134.621 274.292 C 134.584 273.994,134.553 274.237,134.553 274.833 M224.381 276.917 C 224.382 277.375,224.415 277.543,224.453 277.289 C 224.491 277.036,224.490 276.661,224.451 276.456 C 224.411 276.251,224.380 276.458,224.381 276.917 M262.250 276.833 C 262.608 277.200,262.938 277.500,262.984 277.500 C 263.030 277.500,262.775 277.200,262.417 276.833 C 262.059 276.467,261.728 276.167,261.682 276.167 C 261.637 276.167,261.892 276.467,262.250 276.833 M134.375 276.917 C 134.377 277.283,134.411 277.414,134.451 277.206 C 134.491 276.999,134.490 276.699,134.448 276.540 C 134.406 276.380,134.374 276.550,134.375 276.917 M331.906 276.875 L 331.417 277.417 331.958 276.927 C 332.463 276.471,332.577 276.333,332.448 276.333 C 332.419 276.333,332.175 276.577,331.906 276.875 M69.873 277.000 C 69.873 277.229,69.930 277.642,70.000 277.917 C 70.113 278.363,70.127 278.372,70.127 278.000 C 70.127 277.771,70.070 277.358,70.000 277.083 C 69.887 276.637,69.873 276.628,69.873 277.000 M330.824 278.125 L 330.250 278.750 330.875 278.176 C 331.219 277.860,331.500 277.578,331.500 277.551 C 331.500 277.423,331.359 277.543,330.824 278.125 M224.106 278.773 C 224.047 279.203,224.031 279.587,224.070 279.626 C 224.110 279.665,224.194 279.349,224.258 278.924 C 224.321 278.499,224.337 278.115,224.293 278.071 C 224.249 278.027,224.165 278.343,224.106 278.773 M134.083 278.667 C 134.020 278.955,134.003 279.225,134.045 279.268 C 134.088 279.310,134.171 279.105,134.229 278.813 C 134.368 278.118,134.233 277.983,134.083 278.667 M160.033 278.417 C 160.033 278.600,160.093 278.938,160.167 279.167 C 160.272 279.497,160.300 279.514,160.300 279.250 C 160.300 279.067,160.240 278.729,160.167 278.500 C 160.061 278.170,160.033 278.153,160.033 278.417 M328.910 280.208 L 328.083 281.083 328.958 280.256 C 329.440 279.801,329.833 279.408,329.833 279.381 C 329.833 279.257,329.679 279.395,328.910 280.208 M265.917 280.500 C 266.275 280.867,266.605 281.167,266.651 281.167 C 266.697 281.167,266.441 280.867,266.083 280.500 C 265.725 280.133,265.395 279.833,265.349 279.833 C 265.303 279.833,265.559 280.133,265.917 280.500 M327.075 281.875 L 326.417 282.583 327.125 281.925 C 327.784 281.312,327.910 281.167,327.784 281.167 C 327.757 281.167,327.438 281.485,327.075 281.875 M325.417 283.276 C 324.703 283.930,324.682 283.966,325.266 283.526 C 325.883 283.062,326.470 282.490,326.312 282.506 C 326.278 282.510,325.875 282.856,325.417 283.276 M269.333 283.238 C 269.333 283.283,269.783 283.627,270.333 284.000 C 270.883 284.373,271.333 284.642,271.333 284.596 C 271.333 284.550,270.883 284.207,270.333 283.833 C 269.783 283.460,269.333 283.192,269.333 283.238 M131.756 284.431 C 131.600 284.668,131.502 284.891,131.537 284.926 C 131.572 284.961,131.732 284.767,131.893 284.495 C 132.252 283.887,132.145 283.837,131.756 284.431 M162.994 285.408 C 163.275 285.816,163.584 286.199,163.681 286.259 C 163.778 286.319,163.583 285.985,163.247 285.517 C 162.496 284.473,162.289 284.383,162.994 285.408 M130.322 286.375 C 129.921 286.856,129.725 287.145,129.886 287.016 C 130.210 286.757,131.237 285.500,131.123 285.500 C 131.084 285.500,130.724 285.894,130.322 286.375 M273.667 286.075 C 273.667 286.121,273.892 286.274,274.167 286.417 C 274.442 286.559,274.667 286.638,274.667 286.592 C 274.667 286.546,274.442 286.392,274.167 286.250 C 273.892 286.108,273.667 286.029,273.667 286.075 M164.917 287.667 C 165.553 288.308,166.112 288.833,166.158 288.833 C 166.204 288.833,165.720 288.308,165.083 287.667 C 164.447 287.025,163.888 286.500,163.842 286.500 C 163.796 286.500,164.280 287.025,164.917 287.667 M219.906 287.208 L 219.417 287.750 219.958 287.260 C 220.463 286.804,220.577 286.667,220.448 286.667 C 220.419 286.667,220.175 286.910,219.906 287.208 M74.917 287.667 C 75.368 288.125,75.775 288.500,75.821 288.500 C 75.867 288.500,75.535 288.125,75.083 287.667 C 74.632 287.208,74.225 286.833,74.179 286.833 C 74.133 286.833,74.465 287.208,74.917 287.667 M128.833 288.083 C 128.428 288.496,128.135 288.833,128.181 288.833 C 128.226 288.833,128.595 288.496,129.000 288.083 C 129.405 287.671,129.699 287.333,129.653 287.333 C 129.607 287.333,129.238 287.671,128.833 288.083 M127.138 289.472 C 126.062 290.316,125.938 290.486,126.843 289.874 C 127.482 289.443,128.192 288.801,127.979 288.847 C 127.945 288.854,127.566 289.135,127.138 289.472 M166.393 288.962 C 166.525 289.175,167.500 289.897,167.500 289.781 C 167.500 289.740,167.225 289.496,166.888 289.240 C 166.552 288.983,166.329 288.858,166.393 288.962 M280.833 289.472 C 280.971 289.557,281.271 289.676,281.500 289.738 C 281.790 289.815,281.840 289.802,281.667 289.695 C 281.529 289.610,281.229 289.490,281.000 289.429 C 280.710 289.351,280.660 289.365,280.833 289.472 M125.458 290.595 C 124.835 290.933,124.873 291.074,125.500 290.750 C 125.775 290.608,126.000 290.456,126.000 290.412 C 126.000 290.305,125.982 290.311,125.458 290.595 M286.750 291.333 C 286.933 291.412,287.196 291.477,287.333 291.477 C 287.491 291.477,287.460 291.424,287.250 291.333 C 287.067 291.255,286.804 291.190,286.667 291.190 C 286.509 291.190,286.540 291.243,286.750 291.333 M309.917 291.333 C 309.707 291.424,309.676 291.477,309.833 291.477 C 309.971 291.477,310.233 291.412,310.417 291.333 C 310.627 291.243,310.658 291.190,310.500 291.190 C 310.362 291.190,310.100 291.255,309.917 291.333 M122.917 291.756 C 122.500 291.957,122.486 291.980,122.833 291.895 C 123.306 291.779,123.836 291.509,123.583 291.513 C 123.492 291.514,123.192 291.623,122.917 291.756 M212.583 291.756 C 212.167 291.957,212.153 291.980,212.500 291.895 C 212.972 291.779,213.503 291.509,213.250 291.513 C 213.158 291.514,212.858 291.623,212.583 291.756 M307.917 291.833 C 307.492 292.016,307.930 292.016,308.500 291.833 C 308.835 291.726,308.851 291.699,308.583 291.695 C 308.400 291.692,308.100 291.755,307.917 291.833 M82.417 292.167 C 82.600 292.245,82.862 292.310,83.000 292.310 C 83.158 292.310,83.127 292.257,82.917 292.167 C 82.733 292.088,82.471 292.023,82.333 292.023 C 82.176 292.023,82.207 292.076,82.417 292.167 M121.417 292.167 C 121.207 292.257,121.176 292.310,121.333 292.310 C 121.471 292.310,121.733 292.245,121.917 292.167 C 122.127 292.076,122.158 292.023,122.000 292.023 C 121.862 292.023,121.600 292.088,121.417 292.167 M172.417 292.167 C 172.600 292.245,172.862 292.310,173.000 292.310 C 173.158 292.310,173.127 292.257,172.917 292.167 C 172.733 292.088,172.471 292.023,172.333 292.023 C 172.176 292.023,172.207 292.076,172.417 292.167 M306.083 292.167 C 305.634 292.281,305.626 292.294,306.000 292.297 C 306.229 292.299,306.604 292.240,306.833 292.167 C 307.394 291.987,306.788 291.987,306.083 292.167 M84.917 292.667 C 85.590 292.816,86.781 292.886,86.653 292.771 C 86.615 292.736,86.058 292.666,85.417 292.614 C 84.520 292.542,84.404 292.555,84.917 292.667 M118.250 292.667 L 117.417 292.781 118.167 292.787 C 118.579 292.791,119.142 292.737,119.417 292.667 C 120.074 292.499,119.469 292.499,118.250 292.667 M208.167 292.667 L 207.417 292.783 208.083 292.789 C 208.450 292.792,208.975 292.737,209.250 292.667 C 209.917 292.497,209.258 292.497,208.167 292.667 M294.917 292.674 C 295.375 292.746,296.012 292.801,296.333 292.796 C 296.805 292.790,296.757 292.764,296.083 292.659 C 295.625 292.588,294.987 292.533,294.667 292.537 C 294.195 292.543,294.243 292.569,294.917 292.674 M302.167 292.667 C 301.485 292.773,301.470 292.784,302.000 292.796 C 302.321 292.803,302.921 292.749,303.333 292.675 C 304.332 292.497,303.303 292.490,302.167 292.667 M175.625 292.784 C 175.831 292.824,176.169 292.824,176.375 292.784 C 176.581 292.745,176.412 292.712,176.000 292.712 C 175.588 292.712,175.419 292.745,175.625 292.784 " stroke="none" fill="#875c2d" fill-rule="evenodd"></path><path id="path4" d="M164.555 155.250 C 164.555 155.892,164.586 156.134,164.622 155.788 C 164.658 155.442,164.657 154.917,164.620 154.621 C 164.583 154.325,164.554 154.608,164.555 155.250 M224.582 245.417 C 224.582 262.283,224.601 269.208,224.625 260.805 C 224.649 252.402,224.649 238.602,224.625 230.138 C 224.601 221.675,224.582 228.550,224.582 245.417 M189.746 242.667 C 189.746 249.313,189.766 252.031,189.792 248.708 C 189.817 245.385,189.817 239.948,189.792 236.625 C 189.766 233.302,189.746 236.021,189.746 242.667 M159.717 276.167 C 159.717 276.671,159.748 276.877,159.786 276.625 C 159.824 276.373,159.824 275.960,159.786 275.708 C 159.748 275.456,159.717 275.662,159.717 276.167 " stroke="none" fill="#70675c" fill-rule="evenodd"></path></g></svg>