<svg width="160" height="160" viewBox="0 0 160 160" fill="none" xmlns="http://www.w3.org/2000/svg">
<circle cx="80" cy="80" r="64" fill="url(#paint0_radial_30_2860)"/>
<path d="M81.5239 72.2556C84.2608 72.2556 86.4795 70.0369 86.4795 67.3C86.4795 64.5632 84.2608 62.3445 81.5239 62.3445C78.787 62.3445 76.5684 64.5632 76.5684 67.3C76.5684 70.0369 78.787 72.2556 81.5239 72.2556Z" fill="white"/>
<path d="M118.588 90.4878C116.007 90.05 113.769 92.0116 113.736 94.5018C113.711 96.5294 112.592 98.4291 110.696 99.1476C107.17 100.49 103.825 97.9046 103.825 94.5555V67.5931C103.825 56.1994 95.3755 46.3915 84.0521 45.1403C71.8903 43.794 61.3928 52.3011 59.5262 63.6741C59.5262 63.6823 59.5179 63.6906 59.5096 63.6906C49.4457 65.8875 42 74.8365 42 85.4703V103.665C42 105.933 43.8377 107.77 46.1049 107.77H55.3718C57.6348 107.77 59.3527 105.92 59.3445 103.657C59.3321 100.213 62.8505 97.5742 66.4805 99.1518C68.2314 99.9157 69.2638 101.716 69.2556 103.624C69.2473 105.912 71.1015 107.766 73.3852 107.766H82.4952C84.7624 107.766 86.6 105.928 86.6 103.661V85.4951C86.6 84.8302 86.472 84.1612 86.1623 83.5748C85.3777 82.0757 83.8538 81.2291 82.2515 81.3159C82.0162 81.3283 81.7725 81.3365 81.5289 81.3365C73.7982 81.3365 67.4964 75.0471 67.4881 67.3164C67.4881 67.3123 67.4881 67.304 67.4881 67.2999L67.55 66.4657C68.058 59.5362 73.4678 53.8455 80.3973 53.3004C88.6483 52.6479 95.5737 59.181 95.5737 67.2958V94.3407C95.5737 100.663 100.666 106.779 106.926 107.638C114.954 108.741 121.863 102.575 121.999 94.7867C122.036 92.7137 120.641 90.8305 118.596 90.4837L118.588 90.4878ZM78.3367 89.7238V99.0981C78.3367 99.3252 78.1508 99.511 77.9237 99.511H77.1432C76.9697 99.511 76.8169 99.3995 76.7591 99.2343C74.9421 94.1053 70.0402 90.4258 64.3 90.4258C58.5598 90.4258 53.658 94.1095 51.8409 99.2343C51.7831 99.3995 51.6303 99.511 51.4527 99.511H50.6722C50.4451 99.511 50.2593 99.3252 50.2593 99.0981V85.4703C50.2593 79.4823 54.0048 74.3409 59.3279 72.3298C59.5592 72.2431 59.8111 72.3835 59.8689 72.623C61.9874 81.2333 69.1276 87.8985 77.9898 89.315C78.188 89.348 78.3367 89.5173 78.3367 89.7197V89.7238Z" fill="white"/>
<defs>
<radialGradient id="paint0_radial_30_2860" cx="0" cy="0" r="1" gradientUnits="userSpaceOnUse" gradientTransform="translate(16 16) rotate(45) scale(181.019)">
<stop stop-color="#0ECAD4"/>
<stop offset="1" stop-color="#7A45E5"/>
</radialGradient>
</defs>
</svg>
