<?xml version="1.0" encoding="utf-8"?>
<!-- Generator: Adobe Illustrator 16.0.4, SVG Export Plug-In . SVG Version: 6.00 Build 0)  -->
<!DOCTYPE svg PUBLIC "-//W3C//DTD SVG 1.1//EN" "http://www.w3.org/Graphics/SVG/1.1/DTD/svg11.dtd">
<svg version="1.1" id="Layer_1" xmlns="http://www.w3.org/2000/svg" xmlns:xlink="http://www.w3.org/1999/xlink" x="0px" y="0px"
	 width="683.261px" height="80.748px" viewBox="0 0 683.261 80.748" enable-background="new 0 0 683.261 80.748"
	 xml:space="preserve">
<path d="M102.668,73.417c-2.738,0-10.656,0.148-12.136,0.148v-1.111l2.96-0.443c4.144-0.74,4.81-2.146,4.81-11.174V49.146h-24.42
	v11.691c0,9.027,0.666,10.434,4.81,11.174l2.96,0.443v1.111c-1.48,0-9.398-0.148-12.136-0.148c-2.738,0-9.694,0.148-11.248,0.148
	v-1.111l2.59-0.443c3.626-0.666,4.292-2.441,4.292-11.174V35.529c0-8.731-0.666-10.508-4.292-11.174l-2.59-0.443v-1.109
	c1.554,0,8.51,0.147,11.248,0.147c2.738,0,10.656-0.147,12.136-0.147v1.109l-2.96,0.443c-4.144,0.74-4.81,2.146-4.81,11.174v11.175
	h24.42V35.529c0-9.027-0.666-10.434-4.81-11.174l-2.96-0.443v-1.109c1.48,0,9.398,0.147,12.136,0.147s9.694-0.147,11.248-0.147
	v1.109l-2.59,0.443c-3.626,0.666-4.292,2.442-4.292,11.174v25.308c0,8.732,0.666,10.508,4.292,11.174l2.59,0.443v1.111
	C112.362,73.565,105.406,73.417,102.668,73.417z"/>
<path d="M209.408,73.69c-9.8,0-10.976-0.299-15.676-0.299c-3.7,0-12.549,0.199-14.549,0.199v-1.08l3.5-0.6
	c4.9-0.9,5.8-3.301,5.8-15.1v-34.62c0-11.8-0.9-14.492-5.8-15.393l-3.5-0.6V4.991c2,0,8.749,0.2,12.549,0.2
	c4,0,9.076-0.2,13.676-0.2c24.4,0,39.601,12.574,39.601,34.874C245.009,62.466,230.508,73.69,209.408,73.69z M204.408,7.299
	c-2.4,0-4.4,0.2-5.8,0.5V59.11c0,9.9,2.3,12.5,12.2,12.5c13.4,0,22.7-9.92,22.7-31.219C233.508,18.791,222.809,7.299,204.408,7.299z
	"/>
<path d="M516.876,44.259h-4.018l-0.385-2.016l6.27-0.303c8.947-0.812,15.943-4.612,15.943-17.049c0-11.899-5.9-17.8-14.801-17.8
	c-3,0-3.699,0.3-5.898,0.8v49c0,12.5,1.1,14,7.5,15.1l3.6,0.6v1c-1.9,0-11.434-0.199-15.135-0.199
	c-3.699,0-13.225,0.199-15.324,0.199v-1l3.5-0.6c4.9-0.9,5.801-3.301,5.801-15.1v-35.2c0-11.8-0.9-14.2-5.801-15.1l-3.5-0.601v-1
	c2.1,0,11.824,0.2,15.625,0.2c3.699,0,6.834-0.1,11.434-0.1c14.9,0,23.721,6.3,23.721,19.199
	C545.407,41.313,528.749,44.3,516.876,44.259z"/>
<g>
	<path d="M32.136,56.757c0-13.328,0-48.565,0-48.565c-6.867,0-16.288-0.839-20.676,4c-3.555,3.921-7.815,12.042-7.815,12.042
		L2.492,23.85l4.1-20.882c0,0,6.861,2.843,17.886,2.843c6.724,0,16.899,0,26.455,0c9.761,0,16.899-2.843,16.899-2.843l3.016,18.063
		h-1.53c-1.328-2.622-3.51-6.294-6.354-8.839c-4.868-4.356-13.809-4-20.676-4c0,0,0.042,35.708,0.042,48.282
		s0.863,14.248,7.458,15.385l3.7,0.6v1.133c0,0-10.213-0.189-15.823-0.189s-16.728,0.189-16.728,0.189v-1.133l3.7-0.6
		C31.32,70.667,32.136,69.022,32.136,56.757z"/>
</g>
<path d="M123.177,35.529c0-9.678-1.027-10.409-4.292-11.174l-2.59-0.443v-1.109c0,0,11.044,0.147,14.06,0.147
	c2.905,0,22.723-0.093,22.723-0.093l4.683,11.499l-0.956,0.369c-3.792-4.731-6.445-7.548-8.952-8.768
	c-2.577-1.254-6.547-1.184-8.045-1.184s-5.21,0.177-7.898,0.768v20.645c0,0,2.304-0.041,5.053-0.168
	c3.726-0.174,5.99-0.453,8.01-2.682s2.762-6.878,2.762-6.878h0.954v22.134h-0.924c0,0-1.224-4.912-3.314-7.385
	s-4.667-2.646-7.766-2.752c-3.1-0.104-4.774-0.123-4.774-0.123s0,8.732,0,13.986c0,5.256,0.654,6.789,1.838,7.973
	s4.109,1.287,8.323,1.287s7.607,0.021,11.876-4.422c3.413-3.553,5.395-7.434,5.395-7.434l0,0l0.771,0.211l-3.589,13.561
	c0,0-21.245-0.104-25.11-0.104s-15.119,0.176-15.119,0.176v-1.111c0,0,0.632,0.012,2.59-0.443c2.917-0.676,4.292-0.955,4.292-11.174
	C123.177,51.101,123.177,35.529,123.177,35.529z M148.878,70.79c1.263-0.539,2.48-1.301,3.652-2.285
	c1.169-0.982,2.305-2.189,3.406-3.619c1.099-1.428,2.273-3.115,3.314-5.199l0.863,0.246l-3.511,13.42"/>
<path d="M252.177,35.529c0-9.678-1.027-10.409-4.292-11.174l-2.59-0.443v-1.109c0,0,11.044,0.147,14.06,0.147
	c2.905,0,22.723-0.093,22.723-0.093l4.683,11.499l-0.956,0.369c-3.792-4.731-6.445-7.548-8.952-8.768
	c-2.577-1.254-6.547-1.184-8.045-1.184s-5.21,0.177-7.898,0.768v20.645c0,0,2.304-0.041,5.053-0.168
	c3.726-0.174,5.99-0.453,8.01-2.682s2.762-6.878,2.762-6.878h0.954v22.134h-0.925c0,0-1.224-4.912-3.313-7.385
	s-4.667-2.646-7.766-2.752c-3.1-0.104-4.774-0.123-4.774-0.123s0,8.732,0,13.986c0,5.256,0.654,6.789,1.838,7.973
	s4.109,1.287,8.323,1.287c4.213,0,7.607,0.021,11.875-4.422c3.414-3.553,5.396-7.434,5.396-7.434l0,0l0.771,0.211l-3.589,13.561
	c0,0-21.245-0.104-25.11-0.104s-15.119,0.176-15.119,0.176v-1.111c0,0,0.632,0.012,2.59-0.443c2.917-0.676,4.292-0.955,4.292-11.174
	C252.177,51.101,252.177,35.529,252.177,35.529z M277.877,70.79c1.264-0.539,2.48-1.301,3.652-2.285
	c1.17-0.982,2.305-2.189,3.406-3.619c1.099-1.428,2.272-3.115,3.314-5.199l0.862,0.246l-3.511,13.42"/>
<g>
	<path d="M471.442,67.095c-3.371-4.279-7.541-11.834-9.834-14.709c-2.291-2.875-3.791-3.457-3.791-3.457s13.242-2.918,13.242-13.177
		c0-12.801-16.246-12.895-18.475-12.895c-2.23,0-6.25,0.073-10.381,0.073c-4.129,0-12.289-0.128-12.289-0.128v1.109l2.312,0.371
		c3.361,0.585,4.568,2.01,4.568,9.137c0,6.798,0,26.425,0,26.425c0,9.502-0.512,11.33-3.947,12.061l-2.934,0.549v1.111
		c0,0,7.758-0.148,11.248-0.148s12.137,0.148,12.137,0.148v-1.111l-2.688-0.402c-5.264-0.695-5.117-4.24-5.117-11.986
		c0-6.834,0.033-9.885,0.033-9.885s1.1-0.094,2.672,0.455c3.764,1.312,9.467,10.014,12.828,15.824
		c3.363,5.811,4.957,7.105,4.957,7.105s4.275-0.082,7.373-0.082c3.1,0,7.389,0.082,7.389,0.082l0.049-1.166
		C480.796,72.399,476.233,73.177,471.442,67.095z M448.483,48.72c-1.584,0-2.955-0.24-2.955-0.24V25.244
		c0,0,1.955-0.666,6.143-0.666s10.064,1.642,10.064,11.766C461.735,49.802,450.067,48.72,448.483,48.72z"/>
</g>
<g>
	<path d="M594.013,38.075c-1.146-3.136-2.801-5.906-4.957-8.307s-4.783-4.313-7.881-5.74c-3.098-1.425-6.596-2.139-10.498-2.139
		c-3.58,0-6.988,0.605-10.223,1.817c-3.236,1.212-6.059,2.949-8.469,5.206c-2.41,2.259-4.324,5.016-5.748,8.272
		c-1.422,3.255-2.133,6.927-2.133,11.015c0,3.852,0.676,7.381,2.031,10.59c1.354,3.209,3.199,5.965,5.539,8.271
		c2.34,2.305,5.072,4.088,8.193,5.346c3.121,1.26,6.424,1.891,9.912,1.891c3.535,0,6.871-0.641,10.016-1.926
		c3.145-1.283,5.898-3.111,8.264-5.488c2.361-2.379,4.23-5.182,5.609-8.414c1.377-3.232,2.066-6.75,2.066-10.555
		C595.735,44.493,595.159,41.214,594.013,38.075z M585.136,56.7c-0.668,2.916-1.67,5.543-3.008,7.881
		c-1.334,2.338-3.002,4.246-5.004,5.727c-2.004,1.48-4.361,2.221-7.072,2.221c-2.715,0-5.098-0.67-7.141-2.014
		c-2.047-1.34-3.748-3.121-5.105-5.344s-2.379-4.793-3.068-7.707c-0.689-2.916-1.033-5.947-1.033-9.096
		c0-3.008,0.312-5.98,0.936-8.919c0.627-2.939,1.592-5.567,2.908-7.882c1.314-2.314,2.992-4.201,5.039-5.659
		c2.045-1.458,4.467-2.188,7.27-2.188c2.756,0,5.145,0.729,7.17,2.188c2.025,1.458,3.715,3.356,5.072,5.693
		c1.357,2.339,2.369,4.942,3.037,7.812c0.666,2.871,1.002,5.716,1.002,8.539C586.138,50.868,585.802,53.786,585.136,56.7z"/>
</g>
<path d="M660.522,25.17c0,0,2.906,0.013,5.885,0.162c2.977,0.149,5.807-0.248,8.486,3.077c2.682,3.325,4.863,8.09,4.863,8.09
	l0.979-0.283l-2.791-14.902c0,0-2.914,1.767-11.922,1.767s-9.008,0-19.074,0c-8.566,0-12.188-1.678-12.188-1.678l-2.254,14.814
	l1.105,0.288c0,0,2.916-10.509,10.598-11.039l7.654-0.294c0,0,0,25.378,0,35.667c0,8.641-0.488,10.42-5.682,11.213l-2.605,0.404
	v1.111c0,0,9.396-0.148,12.58-0.148s12.652,0.148,12.652,0.148v-1.111l-2.891-0.455c-4.402-0.84-5.441-1.582-5.441-11.574
	C660.478,54.093,660.522,25.17,660.522,25.17z"/>
<path d="M613.401,72.167c-10.689,0-14.041-12.785-14.041-12.785h-1.402l0.152,13.902l0.887,0.068l1.158-2.279
	c0,0,5.178,3.084,13.037,3.084c9.4,0,18.465-5.598,18.465-14.805c0-8.424-4.018-12.701-15.15-16.369
	c-11.131-3.669-10.953-7.478-10.953-10.36s1.479-8.584,9.398-8.584c9.609,0,13.117,12.063,13.117,12.063h1.182V22.812l-0.912-0.164
	l-1.459,2.763c0,0-4.268-3.222-11.41-3.222c-8.957,0-17.121,5.441-17.121,13.965c0,7.777,3.369,11.275,11.793,14.904
	c8.426,3.629,14.283,4.74,14.283,11.832C624.425,69.979,618.825,72.167,613.401,72.167z"/>
<path d="M428.649,59.642c-1.1,2.268-1.971,3.58-3.002,4.951c-0.648,0.834-1.385,1.707-2.207,2.562
	c-0.531,0.555-1.049,1.037-1.559,1.461c-0.08,0.066-0.162,0.129-0.244,0.193c-0.17,0.137-0.342,0.275-0.51,0.398
	c-0.264,0.191-0.529,0.369-0.797,0.539c-2.934,1.84-5.621,1.83-8.766,1.83c-4.215,0-7.139-0.104-8.324-1.287
	c-1.184-1.184-1.838-2.717-1.838-7.973c0-5.254,0-13.986,0-13.986s1.674,0.02,4.773,0.123c3.1,0.105,5.678,0.279,7.768,2.752
	s3.16,7.385,3.16,7.385h1.078V36.457h-1.01c0,0-0.688,4.649-2.707,6.878s-4.283,2.508-8.01,2.682
	c-2.748,0.127-5.053,0.168-5.053,0.168V25.54c2.689-0.59,6.4-0.768,7.898-0.768s5.469-0.07,8.045,1.184
	c2.508,1.22,5.186,3.791,8.967,8.876l0.941-0.478l-4.682-11.499c0,0-19.818,0.093-22.725,0.093c-3.016,0-26.975-0.147-26.975-0.147
	h-0.008v1.109l2.295,0.37c2.887,0.519,3.773,2.071,3.773,4.069c0,1.924-0.812,4.662-2.219,8.362l-10.582,26.787l-12.654-31.079
	c-0.666-1.554-1.186-3.552-1.186-4.811c0-1.775,1.037-2.885,4.145-3.403l2.146-0.296v-1.109c0,0-9.027,0.195-15.645,0.23
	c-0.666,0.004-1.311,0.006-1.918,0.006c-0.439,0-0.891-0.001-1.348-0.003c-0.043,0-0.088-0.001-0.131-0.001
	c-1.326-0.006-2.715-0.02-4.09-0.037c-5.302-0.067-10.346-0.195-10.346-0.195v1.109l1.406,0.223
	c4.809,0.887,6.29,2.516,6.438,11.247l0.221,24.346l-31.45-36.999c-2.071,0.147-5.105,0.222-7.399,0.222
	c-2.664,0-5.476-0.074-7.104-0.147v1.109l1.037,0.223c2.369,0.621,4.01,1.377,5.902,3.077l-0.029,0.007
	c2.137,1.701,1.832,4.928,1.832,4.928s0.012-0.023,0.029-0.057l-0.335,28.822c-0.147,8.879-1.628,10.582-6.142,11.396l-0.889,0.146
	v1.111c1.629,0,5.92-0.148,8.658-0.148s7.77,0.148,9.176,0.148v-1.111l-1.406-0.221c-4.81-0.889-6.289-2.516-6.438-11.248
	l-0.223-29.007l35.891,42.179l1.258-0.297l0.369-38.404c0.035-2.029,0.145-3.671,0.34-5.027c0.379-3.654,1.219-5.331,2.318-5.724
	c0.178-0.063,0.361-0.097,0.553-0.096c0.094,0,0.186,0.015,0.275,0.034c0.086,0.021,0.172,0.053,0.256,0.093
	c0.643,0.3,1.252,1.209,2.367,3.227c0.455,0.822,1.176,2.492,1.818,4.041l18.225,42.522h1.215c0,0,2.201-3.859,5.738-12.275
	c3.539-8.416,12.361-29.459,12.361-29.459c0.107-0.253,0.215-0.489,0.322-0.728c0.305-0.767,1.705-4.133,3.498-6.207
	c0.924-1.069,1.26-1.568,3.113-1.723l-0.014-0.007l0.082,0.007c2.979,0.217,4.291,1.717,4.291,11.395c0,0,0,15.571,0,25.308
	c0,10.219-1.375,10.498-4.291,11.174c-1.957,0.455-2.59,0.443-2.59,0.443v1.111c0,0,11.254-0.176,15.119-0.176
	s25.109,0.104,25.109,0.104l0.041-0.152l0.037,0.012l3.512-13.42L428.649,59.642z"/>
</svg>
