<svg xmlns="http://www.w3.org/2000/svg" viewBox="0 0 145 50" width="145" height="50"><style>.zeek-logo{fill:#e44340}</style><path class="zeek-logo" d="M35.2 5.3c-.6 1.9-.6 2.2-2 3.4l-16.8 16h10.1c2.5 0 3.3-.3 3.9-1.9h1.7l-1.7 5.6c-.8 2.5-1.1 2.8-3.9 2.8H3.3c-2 0-3-.5-3-1.4 0-.2 0-.6.3-.9l1.2-4 19.6-19H10.6c-1.7 0-2.5-.5-2.5-1.4 0-.3 0-.8.2-1.1l1-3.4h27.4l-1.5 5.3zM53.6 11.4H66l-1.1 3.4c-.6 2.2-1.4 2.8-4.2 2.8h-9l-2.3 7.2h10.1c3.3 0 3.9-.3 4.7-1.9H66l-1.9 5.9c-.6 2.2-1.2 2.6-4.7 2.6H37.7c-2.2 0-3-.5-3-1.6 0-.2 0-.6.3-1.4l7.2-23.8c.5-1.7.5-1.6.5-2 0-.8-.6-1.2-2-1.4l.4-1.2h29.3l-.9 3.3c-.8 2.5-1.1 2.6-5.1 2.6h-8.9l-1.9 5.5zM86.8 11.4h12.5l-1.1 3.4c-.6 2.2-1.4 2.8-4.2 2.8h-9l-2.3 7.2h10.1c3.3 0 3.9-.3 4.7-1.9h1.9l-1.9 5.9c-.6 2.2-1.4 2.6-4.7 2.6H70.9c-2.2 0-3-.5-3-1.6 0-.3 0-.6.3-1.4l7.3-23.8c.5-1.6.5-1.5.5-2 0-.8-.6-1.2-2-1.4l.3-1.2h29.3l-.9 3.3c-.8 2.5-1.1 2.6-5.1 2.6h-8.9l-1.9 5.5zM136 22.9c.6 1.6 1.1 1.9 3 1.9h1.2l-1.4 4.4c-.5 1.7-1.4 2.2-4 2.2h-5.5c-2.5 0-3-.3-3.7-2.2l-4.7-11.8-3.6 2.3-2.2 7c-.5 1.6-.5 1.6-.5 2 0 .6.6 1.1 1.9 1.4l-.3 1.2h-12.5c-2 0-2.8-.5-2.8-1.6 0-.2 0-.6.3-1.1l7.3-24c.3-1.1.5-1.6.5-2 0-.8-.6-1.1-1.9-1.4l.3-1.2h12c2.3 0 3.3.5 3.3 1.4 0 .3 0 .6-.2.9l-2.2 7.2 8.6-6.1c.8-.6.9-.8.9-1.2s-.5-.8-1.6-.9L129 0h13.4c1.7 0 2.3.3 2.3.9s-.5 1.1-1.7 1.9l-12.1 8.1 5.1 12z"/><g><path d="M.5 36.1h3.3V50l-3.3-.2V36.1zM9.3 36.1H13l2.6 9v-9h3V50H15l-2.8-9.5V50h-3V36.1zM26.3 38.8h-3v-2.6h9v2.6h-3V50H26l.3-11.2zM37.2 36.1h7.9v2.6h-4.7v2.8H45v2.6h-4.5v3.1h5v2.5h-8.3V36.1zM50.3 36.1h5.5c2.8 0 3.7 1.7 3.7 3.6 0 2-.8 3-2.3 3.4 2 .3 2.2 1.6 2.2 3.4 0 2.6.2 3 .6 3.1v.2h-3.4c-.3-.5-.3-1.2-.3-2.8 0-2.3-.3-3-1.4-3h-1.2v5.8h-3.3V36.1zm3.3 5.8h.9c1.2 0 1.7-.9 1.7-1.9 0-1.1-.3-1.7-1.7-1.7h-.9v3.6zM67.6 36.1h4L75.1 50h-3.4l-.5-2.6h-3.3l-.5 2.5H64l3.6-13.8zm1.9 2.5l-1.2 6.1h2.3l-1.1-6.1zM85 40.8c0-2-.2-3-1.2-3-1.2 0-1.4 1.2-1.4 4.8 0 4 .2 5.1 1.6 5.1 1.2 0 1.4-1.4 1.4-3.6h3.1v.5c0 3-.8 5.1-4.8 5.1-4.2 0-4.5-3.1-4.5-7.3 0-3.6.2-7 4.8-7 2.8 0 4.4 1.2 4.4 4.5v.6l-3.4.3zM95.2 38.8h-2.8v-2.6h9v2.6h-3V50h-3.3V38.8zM106.1 36.1h3.3V50h-3.3V36.1zM114 36.1h3.4l1.7 10.6 1.7-10.6h3.4l-3 13.9H117l-3-13.9zM129 36.1h7.9v2.6h-4.7v2.8h4.5v2.6h-4.5v3.1h5V50H129V36.1z"/></g></svg>